<svg width="28" height="5" viewBox="0 0 28 5" fill="none" xmlns="http://www.w3.org/2000/svg"><path d="M1.33984 2.47461h.79297v.3418h-.79297v.89843H.976562v-.89843H.183594v-.3418h.792968v-.83008h.363278v.83008zm1.72266-.07227h.27148c.17058-.0026.30469-.04752.40235-.13476.09765-.08724.14648-.20508.14648-.35352 0-.33333-.16601-.5-.49804-.5-.15625 0-.28125.04492-.375.13477-.09245.08854-.13868.20638-.13868.35351h-.36132c0-.22526.08203-.41211.24609-.56054.16536-.14974.375-.22461.62891-.22461.26822 0 .47851.07096.63085.21289.15235.14193.22852.33919.22852.5918 0 .12369-.04036.24348-.12109.35937-.07943.11589-.18815.20247-.32617.25977.15624.04947.27669.13151.36132.24609.08594.11458.12891.25456.12891.41992 0 .25521-.08333.45768-.25.60742-.16667.14974-.38346.22461-.65039.22461s-.48438-.07226-.65234-.21679c-.16667-.14454-.25-.33529-.25-.57227h.36328c0 .14974.04882.26953.14648.35938.09766.08984.22852.13476.39258.13476.17448 0 .30794-.04557.40039-.13672.09245-.09114.13867-.222.13867-.39258 0-.16536-.05078-.29231-.15234-.38086-.10156-.08854-.24805-.13411-.43946-.13671H3.0625v-.29493zm3.24609.64258h.39453v.29492h-.39453V4h-.36328v-.66016H4.65039v-.21289l1.27344-1.9707h.38476v1.88867zm-1.24804 0h.88476V1.65039l-.04297.07813-.84179 1.3164zm4.3789-1.89062v.30664h-.0664c-.28125.00521-.50521.08854-.67188.25-.16666.16146-.26302.38867-.28906.68164.14974-.17188.35417-.25781.61328-.25781.2474 0 .44466.08724.5918.26171.14843.17448.22265.39974.22265.67579 0 .29296-.08007.52734-.24023.70312-.15885.17578-.3724.26367-.64063.26367-.27213 0-.49283-.10416-.6621-.3125-.16928-.20963-.25391-.47916-.25391-.80859V2.7793c0-.52344.11133-.92318.33398-1.19922.22396-.27735.55664-.41927.99805-.42578h.06445zm-.47461 1.28125c-.12369 0-.23763.03711-.34179.11133-.10417.07421-.17644.16731-.2168.27929v.13281c0 .23438.05273.42318.1582.56641.10547.14323.23698.21484.39453.21484.16276 0 .29037-.05989.38282-.17968.09375-.11979.14062-.2767.14062-.47071 0-.19531-.04752-.35286-.14258-.47265-.09375-.1211-.21875-.18164-.375-.18164zM11.6855 1.1543v.30664h-.0664c-.2812.00521-.5052.08854-.6718.25-.1667.16146-.2631.38867-.2891.68164.1497-.17188.3542-.25781.6133-.25781.2474 0 .4446.08724.5918.26171.1484.17448.2226.39974.2226.67579 0 .29296-.08.52734-.2402.70312-.1589.17578-.3724.26367-.6406.26367-.2722 0-.4929-.10416-.6621-.3125-.1693-.20963-.2539-.47916-.2539-.80859V2.7793c0-.52344.1113-.92318.3339-1.19922.224-.27735.5567-.41927.9981-.42578h.0644zm-.4746 1.28125c-.1237 0-.2376.03711-.3418.11133-.1041.07421-.1764.16731-.2168.27929v.13281c0 .23438.0528.42318.1582.56641.1055.14323.237.21484.3946.21484.1627 0 .2903-.05989.3828-.17968.0937-.11979.1406-.2767.1406-.47071 0-.19531-.0475-.35286-.1426-.47265-.0937-.1211-.2187-.18164-.375-.18164zM14.377 4h-1.8633v-.25977l.9843-1.09375c.1459-.16536.2461-.29947.3008-.40234.056-.10417.084-.21159.084-.32226 0-.14844-.0449-.27019-.1348-.36524-.0898-.09505-.2096-.14258-.3593-.14258-.1797 0-.3197.05143-.4199.1543-.099.10156-.1485.24349-.1485.42578h-.3613c0-.26172.084-.47331.2519-.63476.1693-.16146.3952-.24219.6778-.24219.2643 0 .4733.06966.6269.20898.1537.13802.2305.32227.2305.55274 0 .27994-.1784.61328-.5352 1l-.7617.82617h1.4278V4zm2.246 0h-1.8632v-.25977l.9843-1.09375c.1459-.16536.2461-.29947.3008-.40234.056-.10417.084-.21159.084-.32226 0-.14844-.0449-.27019-.1348-.36524-.0898-.09505-.2096-.14258-.3593-.14258-.1797 0-.3197.05143-.42.1543-.0989.10156-.1484.24349-.1484.42578h-.3613c0-.26172.084-.47331.2519-.63476.1693-.16146.3952-.24219.6778-.24219.2643 0 .4733.06966.6269.20898.1537.13802.2305.32227.2305.55274 0 .27994-.1784.61328-.5352 1l-.7617.82617h1.4277V4zm2.1075-2.10156c0 .14192-.0378.26823-.1133.3789-.0742.11068-.1751.19727-.3027.25977.1484.0638.2656.1569.3515.2793.0873.12239.1309.26106.1309.41601 0 .2461-.0834.44206-.25.58789-.1654.14584-.3835.21875-.6543.21875-.2735 0-.4929-.07291-.6582-.21875-.1641-.14713-.2461-.3431-.2461-.58789 0-.15364.0416-.29232.125-.41601.0846-.1237.2012-.21745.3496-.28125-.1263-.0625-.2259-.14909-.2988-.25977-.073-.11068-.1094-.23633-.1094-.37695 0-.23959.0768-.42969.2305-.57032.1536-.14062.3561-.21093.6074-.21093.25 0 .4518.07031.6054.21093.155.14063.2325.33073.2325.57032zm-.295 1.32617c0-.15885-.0507-.28841-.1523-.38867-.1003-.10026-.2318-.15039-.3945-.15039-.1628 0-.2936.04948-.3926.14843-.0977.09896-.1465.22917-.1465.39063 0 .16146.0475.28841.1426.38086.0963.09245.2298.13867.4004.13867.1692 0 .3021-.04622.3984-.13867.0964-.09375.1445-.2207.1445-.38086zm-.5429-1.81055c-.1419 0-.2572.04427-.3457.13282-.0873.08723-.1309.20638-.1309.35742 0 .14453.043.26172.1289.35156.0873.08854.2031.13281.3477.13281.1445 0 .2597-.04427.3457-.13281.0872-.08984.1308-.20703.1308-.35156s-.0449-.26237-.1347-.35352c-.0899-.09114-.2038-.13672-.3418-.13672zm1.5254 1.16016l.1445-1.41797h1.457v.33398h-1.1504l-.0859.77539c.1393-.08203.2975-.12304.4746-.12304.2591 0 .4649.08594.6172.25781.1523.17057.2285.40169.2285.69336 0 .29297-.0794.52409-.2383.69336-.1575.16797-.3782.25195-.6621.25195-.2513 0-.4564-.06966-.6152-.20898-.1589-.13932-.2494-.33203-.2715-.57813h.3418c.0221.16276.0801.28581.1738.36914.0938.08203.2175.12305.3711.12305.168 0 .2995-.05729.3946-.17187.0963-.11459.1445-.27279.1445-.47461 0-.19011-.0521-.34245-.1563-.45704-.1028-.11588-.2402-.17382-.4121-.17382-.1575 0-.2812.0345-.3711.10351l-.0957.07813-.289-.07422zm3.4648.17578c-.0755.08984-.166.16211-.2715.2168-.1041.05468-.2187.08203-.3437.08203-.1641 0-.3073-.04037-.4297-.1211-.1211-.08072-.2149-.19401-.2813-.33984-.0664-.14713-.0996-.30924-.0996-.48633 0-.1901.0358-.36133.1075-.51367.0729-.15234.1757-.26888.3085-.34961.1329-.08073.2878-.12109.4649-.12109.2812 0 .5026.10547.6641.3164.1627.20964.2441.4961.2441.85938v.10547c0 .55338-.1094.95768-.3281 1.21289-.2188.2539-.5489.38411-.9903.39062h-.0703v-.30468h.0762c.2982-.00521.5273-.08269.6875-.23243.1601-.15104.2474-.38932.2617-.71484zm-.5566 0c.1211 0 .2324-.03711.334-.11133.1028-.07422.1777-.16601.2246-.27539v-.14453c0-.23698-.0515-.42969-.1543-.57813-.1029-.14843-.2331-.22265-.3907-.22265-.1588 0-.2864.0612-.3828.18359-.0963.1211-.1445.28125-.1445.48047 0 .19401.0462.35417.1387.48047.0937.125.2187.1875.375.1875zm2.8027 0c-.0755.08984-.166.16211-.2715.2168-.1041.05468-.2187.08203-.3437.08203-.1641 0-.3073-.04037-.4297-.1211-.1211-.08072-.2149-.19401-.2813-.33984-.0664-.14713-.0996-.30924-.0996-.48633 0-.1901.0358-.36133.1074-.51367.073-.15234.1758-.26888.3086-.34961.1329-.08073.2878-.12109.4649-.12109.2812 0 .5026.10547.664.3164.1628.20964.2442.4961.2442.85938v.10547c0 .55338-.1094.95768-.3281 1.21289-.2188.2539-.5489.38411-.9903.39062h-.0703v-.30468h.0762c.2982-.00521.5273-.08269.6875-.23243.1601-.15104.2474-.38932.2617-.71484zm-.5566 0c.1211 0 .2324-.03711.3339-.11133.1029-.07422.1778-.16601.2247-.27539v-.14453c0-.23698-.0515-.42969-.1543-.57813-.1029-.14843-.2331-.22265-.3907-.22265-.1588 0-.2864.0612-.3828.18359-.0963.1211-.1445.28125-.1445.48047 0 .19401.0462.35417.1387.48047.0937.125.2187.1875.375.1875zm2.8027 0c-.0755.08984-.166.16211-.2715.2168-.1042.05468-.2187.08203-.3437.08203-.1641 0-.3073-.04037-.4297-.1211-.1211-.08072-.2149-.19401-.2813-.33984-.0664-.14713-.0996-.30924-.0996-.48633 0-.1901.0358-.36133.1074-.51367.073-.15234.1758-.26888.3086-.34961.1328-.08073.2878-.12109.4649-.12109.2812 0 .5026.10547.664.3164.1628.20964.2442.4961.2442.85938v.10547c0 .55338-.1094.95768-.3281 1.21289-.2188.2539-.5489.38411-.9903.39062h-.0703v-.30468h.0762c.2982-.00521.5273-.08269.6875-.23243.1601-.15104.2474-.38932.2617-.71484zm-.5566 0c.1211 0 .2324-.03711.3339-.11133.1029-.07422.1778-.16601.2247-.27539v-.14453c0-.23698-.0515-.42969-.1543-.57813-.1029-.14843-.2331-.22265-.3907-.22265-.1588 0-.2864.0612-.3828.18359-.0963.1211-.1445.28125-.1445.48047 0 .19401.0462.35417.1387.48047.0937.125.2187.1875.375.1875z" fill="#434343"/></svg>