<svg width="29" height="12" viewBox="0 0 29 12" fill="none" xmlns="http://www.w3.org/2000/svg"><path d="M9.44313 5.07c-.16667 0-.33167-.00667-.495-.02-.16-.01333-.295-.02833-.405-.045-.11-.01333-.17167-.02167-.185-.025l.02-1.595-.025-1.87c.01666-.00333.08-.00833.19-.015.11333-.01.24833-.02.405-.03.15666-.01.31-.015.46-.015.18333 0 .34833.02833.495.085.14667.05667.26337.15333.34997.29.09.13333.135.31833.135.555 0 .16333-.0233.29667-.07.4-.0433.10333-.0983.18333-.165.24-.0633.05333-.1266.09167-.18997.115-.06.02333-.105.03667-.135.04v.02c.05.00333.11166.01833.18497.045.0734.02333.145.06333.215.12.0734.05333.1334.13167.18.235.0467.1.07.22833.07.385 0 .21667-.03.39667-.09.54-.0566.14-.135.25-.235.33-.1.08-.21164.135-.33497.165-.12.03333-.245.05-.375.05zm-.015-2.04c.20666 0 .345-.04833.415-.145.07333-.1.11-.26167.11-.485 0-.23667-.04334-.40167-.13-.495-.08667-.09333-.23167-.14-.435-.14-.14334 0-.27.005-.38.015-.10667.01-.185.01833-.235.025v1.22l.655.005zm.07 1.715c.21666 0 .36-.06.43-.18s.10497-.305.10497-.555c0-.25-.05831-.42167-.17497-.515-.11334-.09333-.27-.14-.47-.14h-.615l.01 1.34c.03333.00333.115.01333.245.03.13333.01333.29.02.47.02zm3.05127.325c-.24 0-.445-.045-.615-.135-.1667-.09333-.2933-.255-.38-.485-.0867-.23-.13-.55-.13-.96V1.525h.42v1.83c0 .3.01.53833.03.715.02.17667.055.31.105.4.05.09.12.15.21.18.0933.02667.2133.04.36.04s.2667-.015.36-.045.165-.08833.215-.175c.05-.09.085-.22333.105-.4.02-.18.03-.41833.03-.715v-1.83h.42v1.92c0 .42667-.045.75833-.135.995-.0867.23333-.2133.39667-.38.49-.1667.09333-.3717.14-.615.14zm2.1807-.065l.015-1.595-.015-1.885h.425l-.02 1.535.02 1.94-.425.005zM16.2047 5V1.525h.42l-.025 3.115 1.255-.01V5h-1.65zm3.2164.07c-.0666 0-.15-.00333-.25-.01-.0966-.00333-.1966-.01-.3-.02-.1-.00667-.19-.01333-.27-.02-.08-.00667-.135-.01167-.165-.015V1.52c.0134 0 .0567-.00333.13-.01.0734-.00667.1634-.01333.27-.02.1067-.01.2167-.01833.33-.025.1167-.00667.22-.01.31-.01.2567 0 .465.04833.625.145.1634.09333.2884.22333.375.39.0867.16333.1467.35167.18.565.0334.21.05.43167.05.665 0 .46-.0566.825-.17 1.095-.11.27-.2616.46333-.455.58-.1933.11667-.4133.175-.66.175zm-.055-.365c.18 0 .3134-.01167.4-.035.0867-.02667.1517-.06167.195-.105.0467-.04667.09-.12.13-.22.0434-.1.0784-.24333.105-.43.0267-.18667.04-.43.04-.73 0-.30333-.0216-.57-.065-.8-.04-.23-.1066-.385-.2-.465-.0333-.03-.0866-.05333-.16-.07-.07-.02-.1783-.03-.325-.03-.1166 0-.23.005-.34.015-.1066.00667-.2033.015-.29.025v2.795c.08.01333.16.025.24.035.08.01.17.015.27.015zm2.2243.3l.015-1.595-.015-1.885h.425l-.02 1.535.02 1.94-.425.005zM23.065 5V1.525h.565l1.415 2.97h.015l-.065-2.97h.42V5h-.565l-1.415-2.97h-.015L23.485 5h-.42zm4.5285.065c-.1734 0-.3384-.02333-.495-.07-.1567-.05-.295-.14-.415-.27s-.215-.31333-.285-.55c-.0667-.24-.1-.54833-.1-.925 0-.37.0316-.67167.095-.905.0666-.23667.16-.41833.28-.545.12-.13.2633-.21833.43-.265.1666-.05.3516-.075.555-.075.1066 0 .215.005.325.015.11.00667.2116.01667.305.03.0966.01333.1716.02667.225.04l-.05.36c-.0634-.00667-.165-.01833-.305-.035-.1367-.02-.3134-.03-.53-.03-.1667 0-.3017.01-.405.03-.1.01667-.175.05167-.225.105-.0634.06333-.1217.195-.175.395-.05.2-.075.49-.075.87 0 .29.015.525.045.705.0333.18.07.31667.11.41.04.09.075.15167.105.185.04.04333.105.08167.195.115.0933.03.23.045.41.045.1166 0 .2183-.00667.305-.02.09-.01333.1616-.03167.215-.055v-1.1l-.53-.025v-.31h.93v1.68s-.04.01667-.12.05c-.0767.03-.1867.06167-.33.095-.14.03333-.3034.05-.49.05zM1.16641 11l.01-3.12-.975004.015v-.37H2.55141v.37l-.975-.015.01 3.12h-.42zm1.91816 0V7.525h1.705v.37l-1.285-.015-.025 1.175h1.19v.355h-1.19l.025 1.23 1.285-.01V11h-1.705zm3.60336.07c-.23667 0-.445-.0567-.625-.17-.18-.1167-.32167-.305-.425-.565-.1-.26-.15-.605-.15-1.035 0-.38.03167-.69.095-.93.06667-.24333.15667-.43167.27-.565.11667-.13333.25333-.225.41-.275.15667-.05.32667-.075.51-.075.08 0 .175.005.285.015.11.00667.21667.01667.32.03.10333.01.18167.02167.235.035l-.05.36c-.03-.00333-.07833-.00833-.145-.015-.06667-.00667-.14-.01333-.22-.02-.08-.00667-.15667-.01167-.23-.015-.07333-.00667-.13-.01-.17-.01-.16333 0-.295.00833-.395.025-.09667.01667-.16833.05333-.215.11-.04333.05333-.085.13167-.125.235-.04.10333-.07167.245-.095.425-.02333.17667-.035.405-.035.685 0 .35333.03333.63667.1.85.07.21.13833.3483.205.415.04667.0467.10333.08.17.1.06667.0167.14167.025.225.025.12667 0 .24833-.0133.365-.04.12-.0267.225-.0583.315-.095.09333-.0367.16667-.0683.22-.095.05333-.0267.08-.04.08-.04l.145.33s-.02667.015-.08.045c-.05.03-.12167.0667-.215.11-.09333.04-.20667.075-.34.105-.13.03-.275.045-.435.045zM8.56797 11V7.525h.42l-.015 1.52H10.433l-.01-1.52h.42V11h-.42l.01-1.585H8.97297l.015 1.585h-.42zm3.32523 0V7.525h.565l1.415 2.97h.015l-.065-2.97h.42V11h-.565l-1.415-2.97h-.015l.065 2.97h-.42zm4.5134.07c-.1733 0-.3383-.0267-.495-.08-.1533-.0533-.29-.145-.41-.275-.1167-.1333-.2083-.3183-.275-.555-.0667-.23667-.1-.53833-.1-.905 0-.36667.0333-.66667.1-.9.0667-.23333.1583-.415.275-.545.12-.13333.2567-.225.41-.275.1567-.05333.3217-.08.495-.08.1767 0 .3417.02667.495.08.1533.05.2883.14167.405.275.12.13.2133.31167.28.545.0667.23333.1.53333.1.9 0 .36667-.0333.66833-.1.905-.0667.2367-.16.4217-.28.555-.1167.13-.2517.2217-.405.275-.1533.0533-.3183.08-.495.08zm0-.38c.1433 0 .2667-.015.37-.045.1067-.0333.1933-.0983.26-.195.07-.0967.1217-.2383.155-.425.0333-.19.05-.44167.05-.755s-.0167-.565-.05-.755c-.03-.19-.0783-.33333-.145-.43-.0667-.1-.1533-.16667-.26-.2-.1067-.03333-.2333-.05-.38-.05-.15 0-.2783.01667-.385.05-.1033.03333-.1883.1-.255.2-.0667.09667-.1167.24-.15.43-.03.19-.045.44167-.045.755s.0167.565.05.755c.0333.1867.0833.3283.15.425.0667.0967.1533.1617.26.195.1067.03.2317.045.375.045zm2.1663.31V7.525h.42l-.025 3.115 1.255-.01V11h-1.65zm3.2487.07c-.1733 0-.3383-.0267-.495-.08-.1533-.0533-.29-.145-.41-.275-.1166-.1333-.2083-.3183-.275-.555-.0666-.23667-.1-.53833-.1-.905 0-.36667.0334-.66667.1-.9.0667-.23333.1584-.415.275-.545.12-.13333.2567-.225.41-.275.1567-.05333.3217-.08.495-.08.1767 0 .3417.02667.495.08.1534.05.2884.14167.405.275.12.13.2134.31167.28.545.0667.23333.1.53333.1.9 0 .36667-.0333.66833-.1.905-.0666.2367-.16.4217-.28.555-.1166.13-.2516.2217-.405.275-.1533.0533-.3183.08-.495.08zm0-.38c.1434 0 .2667-.015.37-.045.1067-.0333.1934-.0983.26-.195.07-.0967.1217-.2383.155-.425.0334-.19.05-.44167.05-.755s-.0166-.565-.05-.755c-.03-.19-.0783-.33333-.145-.43-.0666-.1-.1533-.16667-.26-.2-.1066-.03333-.2333-.05-.38-.05-.15 0-.2783.01667-.385.05-.1033.03333-.1883.1-.255.2-.0666.09667-.1166.24-.15.43-.03.19-.045.44167-.045.755s.0167.565.05.755c.0334.1867.0834.3283.15.425.0667.0967.1534.1617.26.195.1067.03.2317.045.375.045zm3.2963.375c-.1733 0-.3383-.0233-.495-.07-.1567-.05-.295-.14-.415-.27s-.215-.3133-.285-.55c-.0667-.24-.1-.54833-.1-.925 0-.37.0317-.67167.095-.905.0667-.23667.16-.41833.28-.545.12-.13.2633-.21833.43-.265.1667-.05.3517-.075.555-.075.1067 0 .215.005.325.015.11.00667.2117.01667.305.03.0967.01333.1717.02667.225.04l-.05.36c-.0633-.00667-.165-.01833-.305-.035-.1367-.02-.3133-.03-.53-.03-.1667 0-.3017.01-.405.03-.1.01667-.175.05167-.225.105-.0633.06333-.1217.195-.175.395-.05.2-.075.49-.075.87 0 .29.015.525.045.705.0333.18.07.3167.11.41.04.09.075.1517.105.185.04.0433.105.0817.195.115.0933.03.23.045.41.045.1167 0 .2183-.0067.305-.02.09-.0133.1617-.0317.215-.055v-1.1l-.53-.025v-.31h.93v1.68s-.04.0167-.12.05c-.0767.03-.1867.0617-.33.095-.14.0333-.3033.05-.49.05zM27.5256 11l.015-1.295-.985-2.18h.455l.715 1.74h.03l.71-1.74h.455l-.985 2.18.015 1.295h-.425z" fill="#000"/></svg>