<svg width="33" height="42" viewBox="0 0 33 42" fill="none" xmlns="http://www.w3.org/2000/svg"><path d="M1.13086 11V2.46875h2.78906c.92578 0 1.6211.19141 2.08594.57422.46875.38281.70312.94922.70312 1.69922 0 .39843-.11328.75195-.33984 1.06054-.22656.30469-.53516.54102-.92578.70899.46094.1289.82422.375 1.08984.73828.26953.35938.4043.78906.4043 1.28906 0 .76563-.24805 1.36719-.74414 1.80474-.49609.4374-1.19727.6562-2.10352.6562H1.13086zm1.125-3.99023v3.07033h1.85742c.52344 0 .93555-.13479 1.23633-.40432.30469-.27344.45703-.64844.45703-1.125 0-1.02734-.55859-1.54101-1.67578-1.54101h-1.875zm0-.90235h1.69922c.49219 0 .88476-.12304 1.17773-.36914.29688-.24609.44531-.58008.44531-1.00195 0-.46875-.13671-.8086-.41015-1.01953-.27344-.21485-.68945-.32227-1.24805-.32227H2.25586v2.71289zM14.6133 2.46875v5.80078c-.0039.80469-.2578 1.46289-.7617 1.97457-.5.5118-1.1797.7989-2.0391.8614l-.2988.0117c-.9336 0-1.67776-.252-2.23245-.7559-.55469-.50388-.83594-1.19724-.84375-2.08005v-5.8125h1.11328v5.77734c0 .61719.16992 1.09766.50972 1.44141.3399.3398.8243.5098 1.4532.5098.6367 0 1.123-.17 1.459-.5098.3398-.33984.5097-.81836.5097-1.43555v-5.7832h1.1309zM17.5957 11h-1.125V2.46875h1.125V11zm3.1934-.9199h4.0429V11h-5.1738V2.46875h1.1309v7.61135zM26.1152 11V2.46875h2.4082c.7422 0 1.3985.16406 1.9688.49219.5703.32812 1.0098.79492 1.3183 1.40039.3125.60547.4707 1.30078.4747 2.08594v.54492c0 .80469-.1563 1.50976-.4688 2.11523-.3086.60547-.7519 1.07028-1.3301 1.39458-.5742.3242-1.2441.4902-2.0097.498h-2.3614zm1.125-7.60547v6.68557h1.1836c.8672 0 1.541-.26955 2.0215-.80862.4844-.53906.7266-1.30664.7266-2.30273V6.4707c0-.96875-.2285-1.7207-.6856-2.25586-.4531-.53906-1.0976-.8125-1.9336-.82031h-1.3125zM9.5332 17.3945H6.79102V25H5.67188v-7.6055H2.93555v-.9257H9.5332v.9257zm6.0879 3.6621h-3.6973v3.0235h4.295V25h-5.42v-8.5312h5.3614v.9257h-4.2364v2.7422h3.6973v.9199zm8.2734 1.2364c-.1054.9023-.4394 1.5996-1.0019 2.0918-.5586.4882-1.3028.7324-2.2324.7324-1.0079 0-1.8164-.3613-2.4258-1.084-.6055-.7227-.9082-1.6894-.9082-2.9004v-.8203c0-.793.1406-1.4902.4218-2.0918.2852-.6016.6875-1.0625 1.2071-1.3828.5195-.3242 1.1211-.4863 1.8047-.4863.9062 0 1.6328.2539 2.1797.7617.5468.5039.8652 1.2031.955 2.0976h-1.1308c-.0977-.6797-.3106-1.1718-.6387-1.4765-.3242-.3047-.7793-.4571-1.3652-.4571-.7188 0-1.2832.2657-1.6934.7969-.4062.5313-.6094 1.2871-.6094 2.2676v.8262c0 .9258.1934 1.6621.5801 2.209.3867.5468.9277.8203 1.6231.8203.625 0 1.1035-.1407 1.4355-.4219.3359-.2852.5586-.7793.668-1.4824h1.1308zM31.9922 25h-1.1309v-3.9434h-4.3008V25h-1.125v-8.5312h1.125v3.6679h4.3008v-3.6679h1.1309V25z" fill="#000"/></svg>