<svg width="44" height="5" viewBox="0 0 44 5" fill="none" xmlns="http://www.w3.org/2000/svg"><path d="M2.84766 3.09766c-.03516.30078-.14649.5332-.33399.69726-.1862.16276-.43424.24414-.74414.24414-.33594 0-.60547-.12044-.808592-.36133-.201823-.24088-.302735-.56315-.302735-.96679V2.4375c0-.26432.046875-.49674.140625-.69727.095052-.20052.229162-.35416.402342-.46093.17318-.10808.3737-.16211.60156-.16211.30209 0 .54428.08463.72657.2539.18229.16797.28841.40105.31836.69922H2.4707c-.03255-.22656-.10351-.39062-.21289-.49219-.10807-.10156-.25976-.15234-.45508-.15234-.23958 0-.42773.08854-.56445.26563-.13542.17708-.20312.42903-.20312.75586v.27539c0 .30859.06445.55403.19336.73632.1289.1823.30924.27344.54101.27344.20833 0 .36784-.04687.47852-.14062.11198-.09506.18619-.25977.22265-.49414h.37696zm.46484.71289c0-.0625.01823-.11459.05469-.15625.03776-.04167.09375-.0625.16797-.0625.07422 0 .1302.02083.16796.0625.03907.04166.0586.09375.0586.15625 0 .05989-.01953.11002-.0586.15039-.03776.04036-.09374.06054-.16796.06054s-.13021-.02018-.16797-.06054c-.03646-.04037-.05469-.0905-.05469-.15039zm2.73633-.30078l.52344-1.62305h.36914L6.18359 4H5.9082l-.76562-2.11328h.36914l.53711 1.62305zm2.08984.52929c-.28646 0-.51953-.09375-.69922-.28125-.17968-.1888-.26953-.44075-.26953-.75586v-.0664c0-.20964.03972-.39649.11914-.56055.08073-.16536.19271-.29427.33594-.38672.14453-.09375.30078-.14062.46875-.14062.27474 0 .48828.09049.64063.27148.15234.18099.22851.4401.22851.77734v.1504H7.53125c.00521.20833.06576.37695.18164.50585.11719.12761.26563.19141.44531.19141.12761 0 .23568-.02604.32422-.07812.08854-.05209.16602-.1211.23242-.20704l.22071.17188c-.17709.27213-.44271.4082-.79688.4082zm-.04492-1.89453c-.14583 0-.26823.05339-.36719.16016-.09896.10547-.16015.2539-.18359.44531h1.05859v-.02734c-.01041-.1836-.05989-.32552-.14844-.42578-.08854-.10157-.20833-.15235-.35937-.15235zm2.31055.06641c-.0547-.00912-.1139-.01367-.1777-.01367-.23702 0-.39782.10091-.48246.30273V4h-.36133V1.88672h.35157l.00585.24414c.11849-.1888.28647-.2832.50387-.2832.0704 0 .1237.00911.1602.02734v.33594zm.209.71484c0-.32943.0762-.59114.2285-.78516.1523-.19531.3542-.29296.6055-.29296.2578 0 .4589.09114.6035.27343l.0176-.23437h.33v2.0625c0 .27344-.0813.48893-.2441.64648-.1615.15756-.3789.23633-.6523.23633-.1524 0-.3015-.03255-.4473-.09765-.1458-.06511-.2572-.1543-.334-.26758l.1875-.2168c.155.19141.3444.28711.5684.28711.1757 0 .3125-.04948.4101-.14844.099-.09896.1485-.23828.1485-.41797v-.18164c-.1446.16667-.3418.25-.5918.25-.2474 0-.448-.09961-.6016-.29883-.1523-.19921-.2285-.4707-.2285-.81445zm.3633.04102c0 .23828.0488.42578.1464.5625.0977.13541.2344.20312.4102.20312.2279 0 .3952-.10351.502-.31054v-.96485c-.1107-.20182-.2767-.30273-.4981-.30273-.1758 0-.3131.06836-.4121.20508-.099.13671-.1484.33919-.1484.60742zm2.8457 1.07226c-.2865 0-.5196-.09375-.6993-.28125-.1796-.1888-.2695-.44075-.2695-.75586v-.0664c0-.20964.0397-.39649.1192-.56055.0807-.16536.1927-.29427.3359-.38672.1445-.09375.3008-.14062.4687-.14062.2748 0 .4883.09049.6407.27148.1523.18099.2285.4401.2285.77734v.1504h-1.4317c.0053.20833.0658.37695.1817.50585.1172.12761.2656.19141.4453.19141.1276 0 .2357-.02604.3242-.07812.0886-.05209.166-.1211.2324-.20704l.2207.17188c-.177.27213-.4427.4082-.7968.4082zm-.045-1.89453c-.1458 0-.2682.05339-.3671.16016-.099.10547-.1602.2539-.1836.44531h1.0586v-.02734c-.0105-.1836-.0599-.32552-.1485-.42578-.0885-.10157-.2083-.15235-.3594-.15235zm2.1934.78125c0-.32422.0768-.58463.2305-.78125.1536-.19792.3548-.29687.6035-.29687.2474 0 .4433.08463.5879.2539V1h.3613v3h-.332l-.0176-.22656c-.1445.17708-.3457.26562-.6035.26562-.2448 0-.4447-.10026-.5996-.30078-.1537-.20052-.2305-.46224-.2305-.78516v-.02734zm.3613.04102c0 .23958.0495.42708.1485.5625.0989.13541.2356.20312.4101.20312.2292 0 .3965-.10286.502-.30859v-.97071c-.1081-.19921-.2741-.29882-.4981-.29882-.1771 0-.3151.06836-.414.20508-.099.13671-.1485.33919-.1485.60742zm2.8614 1.07226c-.2865 0-.5196-.09375-.6993-.28125-.1796-.1888-.2695-.44075-.2695-.75586v-.0664c0-.20964.0397-.39649.1192-.56055.0807-.16536.1927-.29427.3359-.38672.1445-.09375.3008-.14062.4687-.14062.2748 0 .4883.09049.6407.27148.1523.18099.2285.4401.2285.77734v.1504h-1.4317c.0052.20833.0658.37695.1817.50585.1172.12761.2656.19141.4453.19141.1276 0 .2357-.02604.3242-.07812.0886-.05209.166-.1211.2324-.20704l.2207.17188c-.177.27213-.4427.4082-.7968.4082zm-.045-1.89453c-.1458 0-.2682.05339-.3672.16016-.0989.10547-.1601.2539-.1835.44531h1.0585v-.02734c-.0104-.1836-.0598-.32552-.1484-.42578-.0885-.10157-.2083-.15235-.3594-.15235zm2.6211-.25781l.0098.23437c.1549-.18229.3639-.27343.6269-.27343.2956 0 .4968.11328.6036.33984.0703-.10156.1614-.18359.2734-.24609.1133-.0625.2467-.09375.4004-.09375.4635 0 .6992.24544.707.73632V4h-.3613V2.60547c0-.15104-.0345-.26367-.1035-.33789-.069-.07552-.1849-.11328-.3477-.11328-.1341 0-.2454.04036-.334.12109-.0885.07943-.1399.18685-.1543.32227V4h-.3632V2.61523c0-.30729-.1504-.46093-.4512-.46093-.237 0-.3991.10091-.4863.30273V4h-.3614V1.88672h.3418zm3.0723 1.03711c0-.20703.0404-.39323.1211-.5586.082-.16536.1953-.29296.3398-.38281.1459-.08984.3119-.13476.4981-.13476.2877 0 .5202.09961.6972.29882.1784.19922.2676.4642.2676.79493v.02539c0 .20573-.0397.39062-.1191.55468-.0781.16276-.1908.28972-.3379.38086-.1458.09115-.3138.13672-.5039.13672-.2865 0-.5189-.09961-.6973-.29883-.1771-.19921-.2656-.46289-.2656-.79101v-.02539zm.3633.04297c0 .23437.054.42252.1621.56445.1094.14193.2552.21289.4375.21289.1836 0 .3294-.07161.4375-.21484.1081-.14453.1621-.34636.1621-.60547 0-.23177-.0553-.41927-.166-.5625-.1094-.14453-.2552-.2168-.4375-.2168-.1784 0-.3223.07096-.4317.21289-.1093.14193-.164.34505-.164.60938zm2.3554-1.08008l.0118.26562c.1614-.20312.3724-.30468.6328-.30468.4466 0 .6719.25195.6758.75586V4h-.3614V2.60156c-.0013-.15234-.0364-.26497-.1054-.33789-.0677-.07291-.1739-.10937-.3184-.10937-.1172 0-.22.03125-.3086.09375-.0885.0625-.1575.14453-.207.24609V4h-.3613V1.88672h.3417zM29.916 1.375v.51172h.3945v.2793h-.3945v1.31054c0 .08464.0176.14844.0528.19141.0351.04167.095.0625.1796.0625.0417 0 .099-.00781.1719-.02344V4c-.095.02604-.1875.03906-.2773.03906-.1615 0-.2832-.04883-.3653-.14648-.082-.09766-.123-.23633-.123-.41602V2.16602h-.3848v-.2793h.3848V1.375h.3613zm2.0488 2.06445c0-.09765-.0371-.17317-.1113-.22656-.0729-.05469-.2012-.10156-.3847-.14062-.1823-.03907-.3275-.08594-.4356-.14063-.1068-.05469-.1862-.11979-.2383-.19531-.0508-.07552-.0761-.16537-.0761-.26953 0-.17318.0729-.31966.2187-.43946.1471-.11979.3346-.17968.5625-.17968.2396 0 .4336.06185.582.18554.1498.1237.2246.2819.2246.47461h-.3632c0-.09896-.0424-.18424-.127-.25586-.0833-.07161-.1888-.10742-.3164-.10742-.1315 0-.2344.02865-.3086.08594-.0742.05729-.1113.13216-.1113.22461 0 .08724.0345.15299.1035.19726.069.04427.1934.08659.373.12696.181.04036.3275.08854.4395.14453.112.05599.1947.1237.248.20312.0547.07813.0821.17383.0821.28711 0 .1888-.0755.3405-.2266.45508-.151.11328-.347.16992-.5879.16992-.1693 0-.319-.02995-.4492-.08984-.1302-.0599-.2324-.14323-.3066-.25-.073-.10807-.1094-.22461-.1094-.34961h.3613c.0065.12109.0547.21745.1445.28906.0912.07031.211.10547.3594.10547.1367 0 .2461-.02734.3281-.08203.0834-.05599.125-.13021.125-.22266zm1.709.59961c-.2864 0-.5195-.09375-.6992-.28125-.1797-.1888-.2695-.44075-.2695-.75586v-.0664c0-.20964.0397-.39649.1191-.56055.0807-.16536.1927-.29427.336-.38672.1445-.09375.3007-.14062.4687-.14062.2747 0 .4883.09049.6406.27148.1524.18099.2285.4401.2285.77734v.1504h-1.4316c.0052.20833.0658.37695.1816.50585.1172.12761.2657.19141.4454.19141.1276 0 .2356-.02604.3242-.07812.0885-.05209.166-.1211.2324-.20704l.2207.17188c-.1771.27213-.4427.4082-.7969.4082zm-.0449-1.89453c-.1458 0-.2682.05339-.3672.16016-.0989.10547-.1601.2539-.1836.44531h1.0586v-.02734c-.0104-.1836-.0599-.32552-.1484-.42578-.0886-.10157-.2084-.15235-.3594-.15235zm2.3106.06641c-.0547-.00912-.114-.01367-.1778-.01367-.237 0-.3978.10091-.4824.30273V4h-.3613V1.88672h.3515l.0059.24414c.1185-.1888.2864-.2832.5039-.2832.0703 0 .1237.00911.1602.02734v.33594zm1.3554 0c-.0547-.00912-.1139-.01367-.1777-.01367-.237 0-.3978.10091-.4824.30273V4h-.3614V1.88672h.3516l.0059.24414c.1184-.1888.2864-.2832.5039-.2832.0703 0 .1237.00911.1601.02734v.33594zM38.8555 4c-.0209-.04167-.0378-.11589-.0508-.22266-.168.17448-.3685.26172-.6016.26172-.2083 0-.3795-.05859-.5136-.17578-.1329-.11849-.1993-.26823-.1993-.44922 0-.22005.0834-.39062.25-.51172.168-.12239.4037-.18359.7071-.18359h.3515v-.16602c0-.1263-.0377-.22656-.1133-.30078-.0755-.07552-.1868-.11328-.3339-.11328-.1289 0-.237.03255-.3243.09766-.0872.0651-.1308.14388-.1308.23633h-.3633c0-.10547.0371-.20704.1113-.30469.0756-.09896.1771-.17708.3047-.23438.1289-.05729.2702-.08593.4238-.08593.2435 0 .4343.06119.5723.18359.138.12109.2096.28841.2149.50195v.97266c0 .19401.0247.34831.0742.46289V4h-.3789zm-.5996-.27539c.1132 0 .2207-.0293.3222-.08789.1016-.0586.1752-.13477.2207-.22852v-.43359h-.2832c-.4427 0-.664.12956-.664.38867 0 .11328.0377.20182.1132.26563.0756.0638.1726.0957.2911.0957zM40.2168 1.375v.51172h.3945v.2793h-.3945v1.31054c0 .08464.0176.14844.0527.19141.0352.04167.0951.0625.1797.0625.0417 0 .099-.00781.1719-.02344V4c-.0951.02604-.1875.03906-.2773.03906-.1615 0-.2833-.04883-.3653-.14648-.082-.09766-.123-.23633-.123-.41602V2.16602h-.3848v-.2793h.3848V1.375h.3613zM43.375 2.75c-.0755.08984-.166.16211-.2715.2168-.1042.05468-.2187.08203-.3437.08203-.1641 0-.3073-.04037-.4297-.1211-.1211-.08072-.2149-.19401-.2813-.33984-.0664-.14713-.0996-.30924-.0996-.48633 0-.1901.0358-.36133.1074-.51367.073-.15234.1758-.26888.3086-.34961.1328-.08073.2878-.12109.4649-.12109.2812 0 .5026.10547.664.3164.1628.20964.2442.4961.2442.85938v.10547c0 .55338-.1094.95768-.3281 1.21289-.2188.2539-.5489.38411-.9903.39062h-.0703v-.30468h.0762c.2982-.00521.5273-.08269.6875-.23243.1601-.15104.2474-.38932.2617-.71484zm-.5566 0c.1211 0 .2324-.03711.3339-.11133.1029-.07422.1778-.16601.2247-.27539v-.14453c0-.23698-.0515-.42969-.1543-.57813-.1029-.14843-.2331-.22265-.3907-.22265-.1588 0-.2864.0612-.3828.18359-.0963.1211-.1445.28125-.1445.48047 0 .19401.0462.35417.1387.48047.0937.125.2187.1875.375.1875z" fill="#434343"/></svg>