<svg width="34" height="5" viewBox="0 0 34 5" fill="none" xmlns="http://www.w3.org/2000/svg"><path d="M2.66016 3.09766c-.03516.30078-.14649.5332-.33399.69726-.1862.16276-.43424.24414-.74414.24414-.33594 0-.605468-.12044-.808592-.36133-.201823-.24088-.302735-.56315-.302735-.96679V2.4375c0-.26432.046875-.49674.140625-.69727.095052-.20052.229167-.35416.402342-.46093.17318-.10808.3737-.16211.60156-.16211.30209 0 .54428.08463.72657.2539.18229.16797.28841.40105.31836.69922H2.2832c-.03255-.22656-.10351-.39062-.21289-.49219-.10807-.10156-.25976-.15234-.45508-.15234-.23958 0-.42773.08854-.56445.26563-.135415.17708-.203124.42903-.203124.75586v.27539c0 .30859.064453.55403.193364.73632.1289.1823.30924.27344.54101.27344.20833 0 .36784-.04687.47852-.14062.11198-.09506.18619-.25977.22265-.49414h.37696zm.36132-.17383c0-.20703.04037-.39323.1211-.5586.08203-.16536.19531-.29296.33984-.38281.14584-.08984.31185-.13476.49805-.13476.28776 0 .52018.09961.69726.29882.17839.19922.26758.4642.26758.79493v.02539c0 .20573-.03971.39062-.11914.55468-.07812.16276-.19075.28972-.33789.38086-.14583.09115-.3138.13672-.5039.13672-.28646 0-.51889-.09961-.69727-.29883-.17708-.19921-.26563-.46289-.26563-.79101v-.02539zm.36329.04297c0 .23437.05403.42252.16211.56445.10937.14193.2552.21289.4375.21289.18359 0 .32942-.07161.4375-.21484.10807-.14453.1621-.34636.1621-.60547 0-.23177-.05533-.41927-.16601-.5625-.10938-.14453-.25521-.2168-.4375-.2168-.17839 0-.32227.07096-.43164.21289-.10938.14193-.16406.34505-.16406.60938zm3.03515-.75586c-.05469-.00912-.11393-.01367-.17773-.01367-.23698 0-.39779.10091-.48242.30273V4h-.36133V1.88672H5.75l.00586.24414c.11849-.1888.28646-.2832.50391-.2832.07031 0 .12369.00911.16015.02734v.33594zm2.11914.75586c0 .32161-.07357.58073-.2207.77734-.14714.19662-.34635.29492-.59766.29492-.25651 0-.45833-.08138-.60547-.24414V4.8125h-.36132V1.88672h.33007l.01758.23437c.14714-.18229.35156-.27343.61328-.27343.25391 0 .45443.0957.60157.28711.14843.1914.22265.45768.22265.79882v.03321zm-.36133-.04102c0-.23828-.05078-.42643-.15234-.56445-.10156-.13802-.24088-.20703-.41797-.20703-.21875 0-.38281.097-.49219.29101v1.00977c.10808.19271.27344.28906.4961.28906.17318 0 .31055-.06836.41211-.20508.10286-.13802.15429-.34245.15429-.61328zm.72657-.00195c0-.20703.04036-.39323.12109-.5586.08203-.16536.19531-.29296.33984-.38281.14584-.08984.31185-.13476.49805-.13476.28772 0 .52022.09961.69722.29882.1784.19922.2676.4642.2676.79493v.02539c0 .20573-.0397.39062-.1191.55468-.0781.16276-.1908.28972-.3379.38086-.1458.09115-.3138.13672-.50391.13672-.28646 0-.51888-.09961-.69727-.29883-.17708-.19921-.26562-.46289-.26562-.79101v-.02539zm.36328.04297c0 .23437.05403.42252.16211.56445.10937.14193.25521.21289.4375.21289.18361 0 .32941-.07161.43751-.21484.1081-.14453.1621-.34636.1621-.60547 0-.23177-.0553-.41927-.166-.5625-.1094-.14453-.2552-.2168-.43752-.2168-.17838 0-.32226.07096-.43164.21289-.10937.14193-.16406.34505-.16406.60938zm3.03512-.75586c-.0547-.00912-.1139-.01367-.1777-.01367-.237 0-.3978.10091-.4824.30273V4h-.3614V1.88672h.3516l.0059.24414c.1185-.1888.2864-.2832.5039-.2832.0703 0 .1237.00911.1601.02734v.33594zM13.8633 4c-.0209-.04167-.0378-.11589-.0508-.22266-.168.17448-.3685.26172-.6016.26172-.2083 0-.3795-.05859-.5136-.17578-.1328-.11849-.1993-.26823-.1993-.44922 0-.22005.0834-.39062.25-.51172.168-.12239.4037-.18359.7071-.18359h.3515v-.16602c0-.1263-.0377-.22656-.1132-.30078-.0756-.07552-.1869-.11328-.334-.11328-.1289 0-.237.03255-.3242.09766-.0873.0651-.1309.14388-.1309.23633h-.3633c0-.10547.0371-.20704.1113-.30469.0756-.09896.1771-.17708.3047-.23438.1289-.05729.2702-.08593.4239-.08593.2434 0 .4342.06119.5722.18359.138.12109.2097.28841.2149.50195v.97266c0 .19401.0247.34831.0742.46289V4h-.3789zm-.5996-.27539c.1133 0 .2207-.0293.3222-.08789.1016-.0586.1752-.13477.2207-.22852v-.43359h-.2832c-.4427 0-.664.12956-.664.38867 0 .11328.0377.20182.1133.26563.0755.0638.1725.0957.291.0957zM15.2246 1.375v.51172h.3945v.2793h-.3945v1.31054c0 .08464.0176.14844.0527.19141.0352.04167.0951.0625.1797.0625.0417 0 .099-.00781.1719-.02344V4c-.095.02604-.1875.03906-.2773.03906-.1615 0-.2832-.04883-.3653-.14648-.082-.09766-.123-.23633-.123-.41602V2.16602h-.3848v-.2793h.3848V1.375h.3613zM16.4355 4h-.3613V1.88672h.3613V4zm-.3906-2.67383c0-.05859.0176-.10807.0528-.14844.0364-.04036.0898-.06054.1601-.06054.0703 0 .1237.02018.1602.06054.0364.04037.0547.08985.0547.14844 0 .0586-.0183.10742-.0547.14649-.0365.03906-.0899.05859-.1602.05859-.0703 0-.1237-.01953-.1601-.05859-.0352-.03907-.0528-.08789-.0528-.14649zm1.668 2.1836l.5234-1.62305h.3692L17.8477 4h-.2754l-.7657-2.11328h.3692l.5371 1.62305zm2.0898.52929c-.2864 0-.5195-.09375-.6992-.28125-.1797-.1888-.2695-.44075-.2695-.75586v-.0664c0-.20964.0397-.39649.1191-.56055.0808-.16536.1927-.29427.336-.38672.1445-.09375.3007-.14062.4687-.14062.2748 0 .4883.09049.6406.27148.1524.18099.2286.4401.2286.77734v.1504h-1.4317c.0052.20833.0658.37695.1817.50585.1171.12761.2656.19141.4453.19141.1276 0 .2356-.02604.3242-.07812.0885-.05209.166-.1211.2324-.20704l.2207.17188c-.1771.27213-.4427.4082-.7969.4082zm-.0449-1.89453c-.1458 0-.2682.05339-.3672.16016-.0989.10547-.1601.2539-.1836.44531h1.0586v-.02734c-.0104-.1836-.0599-.32552-.1484-.42578-.0886-.10157-.2083-.15235-.3594-.15235zM22.0957 4V1.15625h.8027c.2474 0 .4662.05469.6563.16406.1901.10938.3366.26498.4394.4668.1042.20182.1569.43359.1582.69531v.18164c0 .26823-.052.50326-.1562.70508-.1029.20182-.2507.35677-.4434.46484-.1914.10808-.4147.16342-.6699.16602h-.7871zm.375-2.53516v2.22852h.3945c.2891 0 .5137-.08984.6739-.26953.1614-.17969.2421-.43555.2421-.76758v-.16602c0-.32291-.0761-.57356-.2285-.75195-.151-.17969-.3659-.27083-.6445-.27344h-.4375zm3.0703 2.57422c-.2864 0-.5195-.09375-.6992-.28125-.1797-.1888-.2695-.44075-.2695-.75586v-.0664c0-.20964.0397-.39649.1191-.56055.0807-.16536.1927-.29427.3359-.38672.1446-.09375.3008-.14062.4688-.14062.2747 0 .4883.09049.6406.27148.1524.18099.2285.4401.2285.77734v.1504h-1.4316c.0052.20833.0657.37695.1816.50585.1172.12761.2657.19141.4453.19141.1277 0 .2357-.02604.3243-.07812.0885-.05209.166-.1211.2324-.20704l.2207.17188c-.1771.27213-.4427.4082-.7969.4082zm-.0449-1.89453c-.1458 0-.2682.05339-.3672.16016-.099.10547-.1601.2539-.1836.44531h1.0586v-.02734c-.0104-.1836-.0599-.32552-.1484-.42578-.0886-.10157-.2084-.15235-.3594-.15235zm2.5195 1.29492c0-.09765-.0371-.17317-.1113-.22656-.0729-.05469-.2012-.10156-.3848-.14062-.1823-.03907-.3274-.08594-.4355-.14063-.1068-.05469-.1862-.11979-.2383-.19531-.0508-.07552-.0762-.16537-.0762-.26953 0-.17318.0729-.31966.2188-.43946.1471-.11979.3346-.17968.5625-.17968.2396 0 .4336.06185.582.18554.1498.1237.2246.2819.2246.47461h-.3633c0-.09896-.0423-.18424-.1269-.25586-.0833-.07161-.1888-.10742-.3164-.10742-.1315 0-.2344.02865-.3086.08594-.0742.05729-.1113.13216-.1113.22461 0 .08724.0345.15299.1035.19726.069.04427.1933.08659.373.12696.181.04036.3275.08854.4395.14453.112.05599.1946.1237.248.20312.0547.07813.0821.17383.0821.28711 0 .1888-.0756.3405-.2266.45508-.1511.11328-.347.16992-.5879.16992-.1693 0-.319-.02995-.4492-.08984-.1302-.0599-.2324-.14323-.3067-.25-.0729-.10807-.1093-.22461-.1093-.34961h.3613c.0065.12109.0547.21745.1445.28906.0912.07031.211.10547.3594.10547.1367 0 .2461-.02734.3281-.08203.0834-.05599.125-.13021.125-.22266zM29.2402 4h-.3613V1.88672h.3613V4zm-.3906-2.67383c0-.05859.0176-.10807.0527-.14844.0365-.04036.0899-.06054.1602-.06054.0703 0 .1237.02018.1602.06054.0364.04037.0546.08985.0546.14844 0 .0586-.0182.10742-.0546.14649-.0365.03906-.0899.05859-.1602.05859-.0703 0-.1237-.01953-.1602-.05859-.0351-.03907-.0527-.08789-.0527-.14649zm.8848 1.59961c0-.32943.0761-.59114.2285-.78516.1523-.19531.3542-.29296.6055-.29296.2578 0 .4589.09114.6035.27343l.0176-.23437h.33v2.0625c0 .27344-.0813.48893-.2441.64648-.1615.15756-.3789.23633-.6524.23633-.1523 0-.3014-.03255-.4472-.09765-.1459-.06511-.2572-.1543-.334-.26758l.1875-.2168c.1549.19141.3444.28711.5684.28711.1757 0 .3125-.04948.4101-.14844.099-.09896.1484-.23828.1484-.41797v-.18164c-.1445.16667-.3417.25-.5917.25-.2474 0-.448-.09961-.6016-.29883-.1524-.19921-.2285-.4707-.2285-.81445zm.3633.04102c0 .23828.0488.42578.1464.5625.0977.13541.2344.20312.4102.20312.2279 0 .3952-.10351.5019-.31054v-.96485c-.1106-.20182-.2766-.30273-.498-.30273-.1758 0-.3131.06836-.4121.20508-.099.13671-.1484.33919-.1484.60742zm2.3105-1.08008l.0117.26562c.1615-.20312.3724-.30468.6328-.30468.4466 0 .6719.25195.6758.75586V4h-.3613V2.60156c-.0013-.15234-.0365-.26497-.1055-.33789-.0677-.07291-.1738-.10937-.3183-.10937-.1172 0-.2201.03125-.3086.09375-.0886.0625-.1576.14453-.2071.24609V4h-.3613V1.88672h.3418z" fill="#000"/></svg>