<svg width="32" height="5" viewBox="0 0 32 5" fill="none" xmlns="http://www.w3.org/2000/svg"><path d="M.935547 4V1.15625h.802733c.2474 0 .46615.05469.65625.16406.19011.10938.33659.26498.43945.4668.10417.20182.15691.43359.15821.69531v.18164c0 .26823-.05209.50326-.15625.70508-.10287.20182-.25065.35677-.44336.46484-.19141.10808-.41472.16342-.66992.16602H.935547zm.375003-2.53516v2.22852h.39453c.28906 0 .51367-.08984.67383-.26953.16145-.17969.24218-.43555.24218-.76758v-.16602c0-.32291-.07617-.57356-.22851-.75195-.15104-.17969-.36589-.27083-.64453-.27344h-.4375zM3.4082 2.92383c0-.20703.04037-.39323.1211-.5586.08203-.16536.19531-.29296.33984-.38281.14583-.08984.31185-.13476.49805-.13476.28776 0 .52018.09961.69726.29882.17839.19922.26758.4642.26758.79493v.02539c0 .20573-.03971.39062-.11914.55468-.07812.16276-.19075.28972-.33789.38086-.14583.09115-.3138.13672-.50391.13672-.28645 0-.51888-.09961-.69726-.29883-.17709-.19921-.26563-.46289-.26563-.79101v-.02539zm.36328.04297c0 .23437.05404.42252.16211.56445.10938.14193.25521.21289.4375.21289.1836 0 .32943-.07161.4375-.21484.10808-.14453.16211-.34636.16211-.60547 0-.23177-.05534-.41927-.16601-.5625-.10938-.14453-.25521-.2168-.4375-.2168-.17839 0-.32227.07096-.43164.21289-.10938.14193-.16407.34505-.16407.60938zM6.125 1.88672l.00977.23437c.15494-.18229.36393-.27343.62695-.27343.29557 0 .49674.11328.60351.33984.07032-.10156.16146-.18359.27344-.24609.11328-.0625.24675-.09375.40039-.09375.46354 0 .69922.24544.70703.73632V4h-.36132V2.60547c0-.15104-.03451-.26367-.10352-.33789-.06901-.07552-.1849-.11328-.34766-.11328-.13411 0-.24544.04036-.33398.12109-.08854.07943-.13997.18685-.1543.32227V4h-.36328V2.61523c0-.30729-.15039-.46093-.45117-.46093-.23698 0-.39909.10091-.48633.30273V4H5.7832V1.88672h.3418zm3.07227 1.03711c0-.20703.04036-.39323.12109-.5586.08203-.16536.19531-.29296.33984-.38281.14584-.08984.31185-.13476.498-.13476.2878 0 .5202.09961.6973.29882.1784.19922.2676.4642.2676.79493v.02539c0 .20573-.0397.39062-.1191.55468-.0782.16276-.1908.28972-.3379.38086-.1459.09115-.3138.13672-.5039.13672-.2865 0-.51892-.09961-.69731-.29883-.17708-.19921-.26562-.46289-.26562-.79101v-.02539zm.36328.04297c0 .23437.05403.42252.16211.56445.10937.14193.2552.21289.43754.21289.1836 0 .3294-.07161.4375-.21484.108-.14453.1621-.34636.1621-.60547 0-.23177-.0554-.41927-.166-.5625-.1094-.14453-.2553-.2168-.4376-.2168-.17834 0-.32222.07096-.43159.21289-.10938.14193-.16406.34505-.16406.60938zM12.0645 1.375v.51172h.3945v.2793h-.3945v1.31054c0 .08464.0175.14844.0527.19141.0351.04167.095.0625.1797.0625.0416 0 .0989-.00781.1719-.02344V4c-.0951.02604-.1876.03906-.2774.03906-.1615 0-.2832-.04883-.3652-.14648-.0821-.09766-.1231-.23633-.1231-.41602V2.16602h-.3847v-.2793h.3847V1.375h.3614zM13.2754 4h-.3613V1.88672h.3613V4zm-.3906-2.67383c0-.05859.0175-.10807.0527-.14844.0365-.04036.0898-.06054.1602-.06054.0703 0 .1237.02018.1601.06054.0365.04037.0547.08985.0547.14844 0 .0586-.0182.10742-.0547.14649-.0364.03906-.0898.05859-.1601.05859-.0704 0-.1237-.01953-.1602-.05859-.0352-.03907-.0527-.08789-.0527-.14649zm1.8183 2.41797c.1289 0 .2416-.03906.3379-.11719.0964-.07812.1498-.17578.1602-.29297h.3418c-.0065.1211-.0482.23633-.125.34571-.0769.10937-.1797.19661-.3086.26172-.1276.0651-.263.09765-.4063.09765-.2877 0-.5169-.0957-.6875-.28711-.1692-.19271-.2539-.45573-.2539-.78906v-.06055c0-.20573.0378-.38867.1133-.54882.0755-.16016.1836-.28451.3242-.37305.1419-.08854.3093-.13281.502-.13281.237 0 .4336.07096.5898.21289.1576.14192.2416.32617.252.55273h-.3418c-.0104-.13672-.0625-.2487-.1563-.33594-.0924-.08854-.207-.13281-.3437-.13281-.1836 0-.3262.06641-.4278.19922-.1002.13151-.1504.32227-.1504.57227v.06836c0 .24348.0502.43098.1504.5625.1003.13151.2435.19726.4297.19726zm3.1328-1.01172c-.3216-.09245-.556-.20573-.7031-.33984-.1458-.13542-.2187-.30209-.2187-.5 0-.22396.0892-.40886.2675-.55469.1797-.14713.4128-.2207.6993-.2207.1953 0 .3691.03776.5214.11328.1537.07552.2722.17969.3555.3125.0846.13281.127.27799.127.43555h-.377c0-.17188-.0547-.30664-.164-.4043-.1094-.09896-.2637-.14844-.4629-.14844-.1849 0-.3295.04102-.4336.12305-.1029.08073-.1543.19336-.1543.33789 0 .11588.0488.21419.1465.29492.0989.07943.2662.15234.5019.21875.237.06641.4219.13997.5547.2207.1341.07943.2331.17253.2969.2793.0651.10677.0976.23242.0976.37695 0 .23047-.0898.41537-.2695.55469-.1797.13802-.4199.20703-.7207.20703-.1953 0-.3776-.03711-.5469-.11133-.1693-.07552-.3001-.17838-.3926-.30859-.0911-.13021-.1367-.27799-.1367-.44336h.377c0 .17188.0631.30794.1894.4082.1276.09896.2976.14844.5098.14844.1979 0 .3496-.04036.4551-.12109.1054-.08073.1582-.19076.1582-.33008 0-.13932-.0489-.24674-.1465-.32227-.0977-.07682-.2748-.15234-.5313-.22656zm2.1719.73828L20.5 1.88672h.3867l-.8496 2.43945c-.1315.35156-.3405.52735-.6269.52735l-.0684-.00586-.1348-.02539V4.5293l.0977.00781c.1224 0 .2174-.02474.2851-.07422.0691-.04948.1257-.13997.17-.27148l.08-.21485-.7539-2.08984h.3946l.5273 1.58398zm2.4336-.03125c0-.09765-.0371-.17317-.1113-.22656-.0729-.05469-.2012-.10156-.3848-.14062-.1823-.03907-.3275-.08594-.4355-.14063-.1068-.05469-.1862-.11979-.2383-.19531-.0508-.07552-.0762-.16537-.0762-.26953 0-.17318.0729-.31966.2188-.43946.1471-.11979.3346-.17968.5625-.17968.2395 0 .4336.06185.582.18554.1497.1237.2246.2819.2246.47461h-.3633c0-.09896-.0423-.18424-.1269-.25586-.0834-.07161-.1888-.10742-.3164-.10742-.1315 0-.2344.02865-.3086.08594-.0742.05729-.1114.13216-.1114.22461 0 .08724.0345.15299.1036.19726.069.04427.1933.08659.373.12696.181.04036.3275.08854.4395.14453.1119.05599.1946.1237.248.20312.0547.07813.082.17383.082.28711 0 .1888-.0755.3405-.2265.45508-.1511.11328-.347.16992-.5879.16992-.1693 0-.319-.02995-.4492-.08984-.1302-.0599-.2325-.14323-.3067-.25-.0729-.10807-.1094-.22461-.1094-.34961h.3614c.0065.12109.0547.21745.1445.28906.0912.07031.2109.10547.3594.10547.1367 0 .2461-.02734.3281-.08203.0833-.05599.125-.13021.125-.22266zM23.7637 1.375v.51172h.3945v.2793h-.3945v1.31054c0 .08464.0175.14844.0527.19141.0352.04167.0951.0625.1797.0625.0417 0 .099-.00781.1719-.02344V4c-.0951.02604-.1875.03906-.2774.03906-.1614 0-.2832-.04883-.3652-.14648-.082-.09766-.1231-.23633-.1231-.41602V2.16602h-.3847v-.2793h.3847V1.375h.3614zm1.6953 2.66406c-.2865 0-.5195-.09375-.6992-.28125-.1797-.1888-.2696-.44075-.2696-.75586v-.0664c0-.20964.0397-.39649.1192-.56055.0807-.16536.1927-.29427.3359-.38672.1445-.09375.3008-.14062.4688-.14062.2747 0 .4882.09049.6406.27148.1523.18099.2285.4401.2285.77734v.1504h-1.4316c.0052.20833.0657.37695.1816.50585.1172.12761.2656.19141.4453.19141.1276 0 .2357-.02604.3242-.07812.0886-.05209.1661-.1211.2325-.20704l.2207.17188c-.1771.27213-.4427.4082-.7969.4082zm-.0449-1.89453c-.1459 0-.2683.05339-.3672.16016-.099.10547-.1602.2539-.1836.44531h1.0586v-.02734c-.0104-.1836-.0599-.32552-.1485-.42578-.0885-.10157-.2083-.15235-.3593-.15235zm1.6289-.25781l.0097.23437c.155-.18229.364-.27343.627-.27343.2956 0 .4967.11328.6035.33984.0703-.10156.1615-.18359.2734-.24609.1133-.0625.2468-.09375.4004-.09375.4636 0 .6992.24544.7071.73632V4h-.3614V2.60547c0-.15104-.0345-.26367-.1035-.33789-.069-.07552-.1849-.11328-.3476-.11328-.1342 0-.2455.04036-.334.12109-.0886.07943-.14.18685-.1543.32227V4H28V2.61523c0-.30729-.1504-.46093-.4512-.46093-.237 0-.3991.10091-.4863.30273V4h-.3613V1.88672h.3418zm4.3984 1.55273c0-.09765-.0371-.17317-.1113-.22656-.0729-.05469-.2012-.10156-.3848-.14062-.1823-.03907-.3275-.08594-.4355-.14063-.1068-.05469-.1862-.11979-.2383-.19531-.0508-.07552-.0762-.16537-.0762-.26953 0-.17318.0729-.31966.2188-.43946.1471-.11979.3346-.17968.5625-.17968.2395 0 .4336.06185.582.18554.1497.1237.2246.2819.2246.47461h-.3633c0-.09896-.0423-.18424-.1269-.25586-.0834-.07161-.1888-.10742-.3164-.10742-.1315 0-.2344.02865-.3086.08594-.0742.05729-.1114.13216-.1114.22461 0 .08724.0345.15299.1036.19726.069.04427.1933.08659.373.12696.181.04036.3275.08854.4395.14453.1119.05599.1946.1237.248.20312.0547.07813.082.17383.082.28711 0 .1888-.0755.3405-.2265.45508-.1511.11328-.347.16992-.5879.16992-.1693 0-.319-.02995-.4492-.08984-.1302-.0599-.2325-.14323-.3067-.25-.0729-.10807-.1094-.22461-.1094-.34961h.3614c.0065.12109.0547.21745.1445.28906.0912.07031.2109.10547.3594.10547.1367 0 .2461-.02734.3281-.08203.0833-.05599.125-.13021.125-.22266z" fill="#000"/></svg>