<svg width="1148" height="831" viewBox="0 0 1148 831" fill="none" xmlns="http://www.w3.org/2000/svg"><path d="M135.821 229.759c-9.451 2.532-15.059 12.247-12.527 21.698L258.01 754.224c2.533 9.451 12.247 15.06 21.698 12.527L1003.73 572.75c9.45-2.533 15.06-12.247 12.53-21.698L881.542 48.2845c-2.532-9.4508-12.246-15.0594-21.697-12.527L135.821 229.759z" fill="url(#paint0_linear)"/><path d="M135.821 229.759c-9.451 2.532-15.059 12.247-12.527 21.698L258.01 754.224c2.533 9.451 12.247 15.06 21.698 12.527L1003.73 572.75c9.45-2.533 15.06-12.247 12.53-21.698L881.542 48.2845c-2.532-9.4508-12.246-15.0594-21.697-12.527L135.821 229.759z" fill="url(#paint1_linear)"/><path d="M135.821 229.759c-9.451 2.532-15.059 12.247-12.527 21.698L258.01 754.224c2.533 9.451 12.247 15.06 21.698 12.527L1003.73 572.75c9.45-2.533 15.06-12.247 12.53-21.698L881.542 48.2845c-2.532-9.4508-12.246-15.0594-21.697-12.527L135.821 229.759z" stroke="#333" stroke-width="1.41727"/><path d="M995.735 536.288l.685-.183-.184-.685L868.088 57.1652c-1.317-4.9144-6.368-7.8309-11.282-6.514L145.898 241.138c-4.915 1.317-7.831 6.369-6.514 11.283l128.148 478.255.183.685.685-.184 727.335-194.889z" fill="#000" stroke="#444" stroke-width="1.41727"/><path d="M141.587 795.294l996.033-266.885 4.96 18.511c.96 3.597-.53 7.404-3.7 9.346-4.61 2.814-11.31 6.823-16.5 9.546-9.77 5.133-50.6 18.43-50.6 18.43L233.979 808.731c-.751.201-1.483.404-2.233.611-6.32 1.749-38.349 10.35-60.282 11.238-5.189.21-12.065.079-16.978-.07-3.699-.112-6.855-2.657-7.813-6.232l-5.086-18.984z" fill="url(#paint2_linear)"/><path d="M141.587 795.294l996.033-266.885 4.96 18.511c.96 3.597-.53 7.404-3.7 9.346-4.61 2.814-11.31 6.823-16.5 9.546-9.77 5.133-50.6 18.43-50.6 18.43L233.979 808.731c-.751.201-1.483.404-2.233.611-6.32 1.749-38.349 10.35-60.282 11.238-5.189.21-12.065.079-16.978-.07-3.699-.112-6.855-2.657-7.813-6.232l-5.086-18.984z" fill="url(#paint3_linear)" fill-opacity=".3"/><path d="M564.998 683.928l150.251-40.26c2.499 9.328-3.037 18.916-12.365 21.416l-116.47 31.208c-9.328 2.499-18.916-3.036-21.416-12.364z" fill="#C4C4C4"/><path d="M564.998 683.928l150.251-40.26c2.499 9.328-3.037 18.916-12.365 21.416l-116.47 31.208c-9.328 2.499-18.916-3.036-21.416-12.364z" fill="url(#paint4_linear)"/><path d="M564.998 683.928l150.251-40.26c2.499 9.328-3.037 18.916-12.365 21.416l-116.47 31.208c-9.328 2.499-18.916-3.036-21.416-12.364z" fill="url(#paint5_linear)"/><defs><linearGradient id="paint0_linear" x1="119.577" y1="234.845" x2="1027.03" y2="547.164" gradientUnits="userSpaceOnUse"><stop stop-color="#333"/><stop offset=".53125" stop-color="#596368"/><stop offset="1" stop-color="#333"/></linearGradient><linearGradient id="paint1_linear" x1="498.016" y1="133.443" x2="645.529" y2="683.966" gradientUnits="userSpaceOnUse"><stop offset=".6875" stop-opacity=".4"/><stop offset=".883584" stop-color="#333" stop-opacity=".643"/><stop offset="1" stop-opacity=".94"/></linearGradient><linearGradient id="paint2_linear" x1="1137.62" y1="528.409" x2="141.587" y2="795.294" gradientUnits="userSpaceOnUse"><stop stop-color="#212121"/><stop offset=".5" stop-color="#555"/><stop offset="1" stop-color="#212121"/></linearGradient><linearGradient id="paint3_linear" x1="639.602" y1="661.852" x2="649.157" y2="697.508" gradientUnits="userSpaceOnUse"><stop stop-color="#666"/><stop offset=".5" stop-color="#666"/><stop offset=".541667" stop-opacity=".5"/><stop offset="1"/></linearGradient><linearGradient id="paint4_linear" x1="640.123" y1="663.798" x2="644.649" y2="680.688" gradientUnits="userSpaceOnUse"><stop stop-color="#999"/><stop offset=".151042" stop-color="#777"/><stop offset=".609375" stop-color="#444"/><stop offset=".822917" stop-color="#333"/><stop offset="1" stop-color="#222"/></linearGradient><linearGradient id="paint5_linear" x1="564.998" y1="683.928" x2="715.249" y2="643.668" gradientUnits="userSpaceOnUse"><stop stop-color="#333"/><stop offset=".130208" stop-color="#333" stop-opacity=".42"/><stop offset=".932292" stop-color="#333" stop-opacity=".118947"/><stop offset="1" stop-color="#333" stop-opacity=".83"/></linearGradient></defs></svg>