<svg width="36" height="5" viewBox="0 0 36 5" fill="none" xmlns="http://www.w3.org/2000/svg"><path d="M.900391 4H.539062V1.88672h.361329V4zM.509766 1.32617c0-.05859.017578-.10807.052734-.14844.036458-.04036.089844-.06054.160156-.06054.070313 0 .123698.02018.160156.06054.036459.04037.054688.08985.054688.14844 0 .0586-.018229.10742-.054688.14649-.036458.03906-.089843.05859-.160156.05859-.070312 0-.123698-.01953-.160156-.05859-.035156-.03907-.052734-.08789-.052734-.14649zm1.312504.56055l.01171.26562c.16146-.20312.3724-.30468.63282-.30468.44661 0 .67187.25195.67578.75586V4h-.36133V2.60156c-.0013-.15234-.03646-.26497-.10547-.33789-.06771-.07291-.17383-.10937-.31836-.10937-.11719 0-.22005.03125-.30859.09375-.08854.0625-.15755.14453-.20703.24609V4h-.36133V1.88672h.3418zM3.86523 4V2.16602h-.33398v-.2793h.33398v-.2168c0-.22656.06055-.40169.18165-.52539.12109-.1237.29231-.185546.51367-.185546.08333 0 .16601.011068.24804.033204l-.01953.292972c-.0612-.01172-.1263-.01758-.19531-.01758-.11719 0-.20768.0345-.27148.10351-.06381.06771-.09571.16537-.09571.29297v.22266h.45117v.2793h-.45117V4h-.36133zm1.11719-1.07617c0-.20703.04037-.39323.1211-.5586.08203-.16536.19531-.29296.33984-.38281.14583-.08984.31185-.13476.49805-.13476.28776 0 .52018.09961.69726.29882.17839.19922.26758.4642.26758.79493v.02539c0 .20573-.03971.39062-.11914.55468-.07813.16276-.19076.28972-.33789.38086-.14583.09115-.3138.13672-.50391.13672-.28646 0-.51888-.09961-.69726-.29883-.17709-.19921-.26563-.46289-.26563-.79101v-.02539zm.36328.04297c0 .23437.05404.42252.16211.56445.10938.14193.25521.21289.4375.21289.1836 0 .32943-.07161.4375-.21484.10808-.14453.16211-.34636.16211-.60547 0-.23177-.05534-.41927-.16601-.5625-.10938-.14453-.25521-.2168-.4375-.2168-.17839 0-.32227.07096-.43164.21289-.10938.14193-.16407.34505-.16407.60938zm5.1348.05273c-.0157.31511-.0938.5638-.2344.74609-.1406.1823-.32878.27344-.56446.27344-.24349 0-.39974-.10937-.46875-.32812-.07031.11067-.15104.19336-.24219.24804-.08984.05339-.18294.08008-.27929.08008-.1849 0-.32487-.07552-.41993-.22656-.09505-.15104-.1302-.36003-.10546-.62695.01953-.21485.06836-.40625.14648-.57422.07943-.16927.18099-.30209.30469-.39844.125-.09635.25586-.14453.39258-.14453.10546 0 .19987.01432.2832.04297.08333.02734.17708.08203.28125.16406l-.10156 1.08203c-.02474.30078.05859.45117.25.45117.14713 0 .26627-.07291.35744-.21875.0911-.14583.1406-.33593.1484-.57031.0248-.50651-.0696-.89258-.28319-1.1582-.21224-.26563-.5358-.39844-.9707-.39844-.26172 0-.49414.0651-.69727.19531-.20312.12891-.36328.31576-.48046.56055-.11719.24479-.18295.52734-.19727.84766-.01563.32291.02344.60351.11719.84179.09375.23698.23632.41797.42773.54297.19271.1263.42513.18945.69727.18945.11718 0 .23437-.01432.35156-.04296.11849-.02865.2168-.06576.29492-.11133l.07227.22461c-.08073.05078-.18815.09245-.32227.125-.13281.03255-.26758.04883-.4043.04883-.32552 0-.60546-.07357-.83984-.22071-.23437-.14583-.41016-.35677-.52734-.63281-.11589-.27474-.16602-.59635-.15039-.96484.01562-.35808.0957-.67969.24023-.96485.14453-.28646.3405-.50716.58789-.66211.2474-.15625.52669-.23437.83789-.23437.32422 0 .60222.07291.83399.21875.23179.14583.40429.35612.51759.63086.1133.27474.1621.59635.1465.96484zm-2.00394.16602c-.01823.18489-.0013.32682.05078.42578.05339.09896.13737.14844.25196.14844.07812 0 .15299-.03321.22461-.09961.07291-.06641.13281-.16146.17968-.28516l.00196-.01758.08984-.98242c-.07292-.03776-.15104-.05664-.23437-.05664-.15235 0-.27865.07747-.37891.23242-.09896.15495-.16081.36654-.18555.63477zm4.26564-.21875c0 .32291-.0742.58268-.2227.77929-.1484.19532-.3476.29297-.5976.29297-.267 0-.4733-.0944-.6192-.2832L11.2852 4h-.3321V1h.3614v1.11914c.1458-.18099.347-.27148.6035-.27148.2565 0 .4577.097.6035.29101.1471.19401.2207.45964.2207.79688v.03125zm-.3613-.04102c0-.24609-.0476-.4362-.1426-.57031-.0951-.13412-.2318-.20117-.4102-.20117-.2383 0-.4095.11067-.5136.33203v.91406c.1106.22135.2832.33203.5175.33203.1732 0 .308-.06706.4043-.20117.0964-.13411.1446-.33594.1446-.60547zm2.123.86524c-.1406.16536-.347.24804-.6191.24804-.2253 0-.3972-.0651-.5157-.19531-.1171-.13151-.1764-.32552-.1777-.58203v-1.375h.3613v1.36523c0 .32032.1302.48047.3907.48047.276 0 .4596-.10286.5507-.30859V1.88672h.3614V4h-.3438l-.0078-.20898zM15.7988 4h-.3613V1.88672h.3613V4zm-.3906-2.67383c0-.05859.0176-.10807.0527-.14844.0365-.04036.0899-.06054.1602-.06054.0703 0 .1237.02018.1601.06054.0365.04037.0547.08985.0547.14844 0 .0586-.0182.10742-.0547.14649-.0364.03906-.0898.05859-.1601.05859-.0703 0-.1237-.01953-.1602-.05859-.0351-.03907-.0527-.08789-.0527-.14649zM16.7715 4h-.3613V1h.3613v3zm.4922-1.07422c0-.32422.0768-.58463.2304-.78125.1537-.19792.3549-.29687.6036-.29687.2474 0 .4433.08463.5878.2539V1h.3614v3h-.3321l-.0175-.22656c-.1446.17708-.3457.26562-.6035.26562-.2448 0-.4447-.10026-.5997-.30078-.1536-.20052-.2304-.46224-.2304-.78516v-.02734zm.3613.04102c0 .23958.0495.42708.1484.5625.099.13541.2357.20312.4102.20312.2292 0 .3965-.10286.5019-.30859v-.97071c-.108-.19921-.274-.29882-.498-.29882-.1771 0-.3151.06836-.4141.20508-.0989.13671-.1484.33919-.1484.60742zm2.4746-1.5918v.51172h.3945v.2793h-.3945v1.31054c0 .08464.0176.14844.0527.19141.0352.04167.0951.0625.1797.0625.0417 0 .099-.00781.1719-.02344V4c-.095.02604-.1875.03906-.2773.03906-.1615 0-.2832-.04883-.3653-.14648-.082-.09766-.123-.23633-.123-.41602V2.16602h-.3848v-.2793h.3848V1.375h.3613zm1.6953 2.66406c-.2864 0-.5195-.09375-.6992-.28125-.1797-.1888-.2695-.44075-.2695-.75586v-.0664c0-.20964.0397-.39649.1191-.56055.0807-.16536.1927-.29427.3359-.38672.1446-.09375.3008-.14062.4688-.14062.2747 0 .4883.09049.6406.27148.1524.18099.2285.4401.2285.77734v.1504h-1.4316c.0052.20833.0658.37695.1816.50585.1172.12761.2657.19141.4454.19141.1276 0 .2356-.02604.3242-.07812.0885-.05209.166-.1211.2324-.20704l.2207.17188c-.1771.27213-.4427.4082-.7969.4082zM21.75 2.14453c-.1458 0-.2682.05339-.3672.16016-.0989.10547-.1601.2539-.1836.44531h1.0586v-.02734c-.0104-.1836-.0599-.32552-.1484-.42578-.0886-.10157-.2084-.15235-.3594-.15235zm2.1367 1.59961c.1289 0 .2416-.03906.3379-.11719.0964-.07812.1497-.17578.1602-.29297h.3418c-.0065.1211-.0482.23633-.125.34571-.0769.10937-.1797.19661-.3086.26172-.1276.0651-.2631.09765-.4063.09765-.2877 0-.5169-.0957-.6875-.28711-.1693-.19271-.2539-.45573-.2539-.78906v-.06055c0-.20573.0378-.38867.1133-.54882.0755-.16016.1836-.28451.3242-.37305.1419-.08854.3093-.13281.502-.13281.2369 0 .4336.07096.5898.21289.1576.14192.2415.32617.252.55273h-.3418c-.0105-.13672-.0625-.2487-.1563-.33594-.0924-.08854-.207-.13281-.3437-.13281-.1836 0-.3262.06641-.4278.19922-.1002.13151-.1504.32227-.1504.57227v.06836c0 .24348.0502.43098.1504.5625.1003.13151.2435.19726.4297.19726zm1.6074-1.60156c.1602-.19662.3685-.29492.625-.29492.4467 0 .6719.25195.6758.75586V4h-.3613V2.60156c-.0013-.15234-.0365-.26497-.1055-.33789-.0677-.07291-.1738-.10937-.3183-.10937-.1172 0-.2201.03125-.3086.09375-.0886.0625-.1576.14453-.2071.24609V4h-.3613V1h.3613v1.14258zm1.8497 1.66797c0-.0625.0182-.11459.0546-.15625.0378-.04167.0938-.0625.168-.0625.0742 0 .1302.02083.168.0625.039.04166.0586.09375.0586.15625 0 .05989-.0196.11002-.0586.15039-.0378.04036-.0938.06054-.168.06054-.0742 0-.1302-.02018-.168-.06054-.0364-.04037-.0546-.0905-.0546-.15039zm1.8945-.06641c.1289 0 .2415-.03906.3379-.11719.0963-.07812.1497-.17578.1601-.29297h.3418c-.0065.1211-.0482.23633-.125.34571-.0768.10937-.1797.19661-.3086.26172-.1276.0651-.263.09765-.4062.09765-.2878 0-.5169-.0957-.6875-.28711-.1693-.19271-.2539-.45573-.2539-.78906v-.06055c0-.20573.0377-.38867.1133-.54882.0755-.16016.1836-.28451.3242-.37305.1419-.08854.3092-.13281.5019-.13281.237 0 .4336.07096.5899.21289.1575.14192.2415.32617.2519.55273h-.3418c-.0104-.13672-.0625-.2487-.1562-.33594-.0925-.08854-.2071-.13281-.3438-.13281-.1836 0-.3261.06641-.4277.19922-.1003.13151-.1504.32227-.1504.57227v.06836c0 .24348.0501.43098.1504.5625.1003.13151.2435.19726.4297.19726zm1.1504-.82031c0-.20703.0403-.39323.1211-.5586.082-.16536.1953-.29296.3398-.38281.1458-.08984.3119-.13476.4981-.13476.2877 0 .5201.09961.6972.29882.1784.19922.2676.4642.2676.79493v.02539c0 .20573-.0397.39062-.1191.55468-.0782.16276-.1908.28972-.3379.38086-.1459.09115-.3138.13672-.5039.13672-.2865 0-.5189-.09961-.6973-.29883-.1771-.19921-.2656-.46289-.2656-.79101v-.02539zm.3633.04297c0 .23437.054.42252.1621.56445.1093.14193.2552.21289.4375.21289.1836 0 .3294-.07161.4375-.21484.108-.14453.1621-.34636.1621-.60547 0-.23177-.0554-.41927-.166-.5625-.1094-.14453-.2553-.2168-.4375-.2168-.1784 0-.3223.07096-.4317.21289s-.164.34505-.164.60938zm2.3535-1.08008l.0097.23437c.155-.18229.364-.27343.627-.27343.2956 0 .4967.11328.6035.33984.0703-.10156.1615-.18359.2734-.24609.1133-.0625.2468-.09375.4004-.09375.4636 0 .6993.24544.7071.73632V4h-.3614V2.60547c0-.15104-.0345-.26367-.1035-.33789-.069-.07552-.1849-.11328-.3476-.11328-.1342 0-.2455.04036-.334.12109-.0886.07943-.14.18685-.1543.32227V4h-.3633V2.61523c0-.30729-.1504-.46093-.4512-.46093-.237 0-.3991.10091-.4863.30273V4h-.3613V1.88672h.3418z" fill="#434343"/></svg>