<svg width="14" height="18" viewBox="0 0 14 18" fill="none" xmlns="http://www.w3.org/2000/svg"><path d="M8.40798 17.084c-3.97601 0-7.28003-2.8734-7.954692-6.656C.371954 9.96398.32666 9.48799.32666 8.99999c0-.23334.010664-.46533.030664-.69467.090667-1.072.391992-2.08262.858656-2.99329.30267-.58667.67331-1.13202 1.10397-1.62402C3.80129 1.99067 5.97864.917303 8.40798.917303c.23333 0 .46399.011997.69199.030665.30533.026666.60666.068022.9.126692.34933.06933.68933.16134 1.02003.27467.696.23734 1.3493.56798 1.9453.97598l.0013.00137c.0134.008.0254.01732.0374.02532.0013.00134.0026.00134.004.00267.0346.024.0706.04934.1053.07468.004.00266.008.00531.012.00931.0107.00666.02.01332.0294.01998.0053.004.0106.00805.0146.01205.016.01067.032.02267.0467.03333.0066.00534.0133.01062.02.01595.008.00534.016.01068.0226.01602.008.00666.016.01198.024.01732.0067.00533.0134.01068.02.01601.0107.008.0201.01466.0294.02266.0053.004.012.00934.0173.01334.0133.01067.0267.02.04.03067.0053.004.0094.00798.0147.01198.0107.008.02.01602.0307.02402.0053.004.0106.00798.0146.01198.0133.01067.0254.02133.0387.03066.0013.00134.004.00401.0053.00534.0147.012.0294.02404.044.0347.004.004.008.00801.012.01068.0107.00933.0227.01866.0333.02799.004.00267.008.00665.012.00932.0147.01333.0294.02536.044.03736h-.2506c-1.276-.948-2.8547-1.50937-4.56805-1.50937-4.23466 0-7.66796 3.43334-7.66796 7.66934 0 4.23731 3.4333 7.67071 7.66796 7.67071 1.76265 0 3.38405-.5947 4.67735-1.592h.2387c-.7094.6227-1.5294 1.1213-2.4254 1.4667l-.0987-.0987-.3306.2493c-.78.2507-1.61066.388-2.47332.388z" fill="#EACFA5"/></svg>