<svg width="3" height="3" viewBox="0 0 3 3" fill="none" xmlns="http://www.w3.org/2000/svg"><path d="M.586784 1.09942H1.94668C1.92001.942082 1.84004.808748 1.70671.699415c-.12-.108-.26664-.162663-.43998-.162663-.16 0-.306639.053326-.439972.158659C.693424.800745.61345.935415.586784 1.09942zm1.599996.21735H.586784c0 .164.066614.30799.213281.43066.133333.12.280055.17998.453385.17998.13333 0 .25331-.03334.37331-.104l.26666-.28399h.23998c-.05333.17733-.17333.32401-.33333.44268-.16.11733-.33339.17731-.52006.17731-.26666 0-.479997-.08934-.666664-.26934C.440013 1.71141.34668 1.49142.34668 1.23275c0-.258668.093333-.477324.266666-.655991.173334-.18.400054-.270671.653384-.270671.13334 0 .26667.030658.4.090658.12.06.22672.144018.32005.252018l.1599.314649c.02667.095997.0401.214687.0401.353357z" fill="#fff"/></svg>