<svg width="9" height="9" viewBox="0 0 9 9" fill="none" xmlns="http://www.w3.org/2000/svg"><path d="M8.70653 8.67543H6.45327c-1.69333 0-3.38674 0-5.08008-.00133-.73333 0-1.293356-.55869-1.293356-1.28402V1.6501c0-.709328.56-1.269335 1.266666-1.273335.17333-.001333.33336-.001334.49336-.001334.32 0 .62667.001334.93333.001334.46667.537334.91998 1.082675 1.37331 1.638675-.54667.57066-.87995 1.33998-.87995 2.18398 0 1.772 1.42667 3.19733 3.2 3.196.46667 0 .89336-.09998 1.29336-.27731.32.51333.63995 1.03199.94662 1.55732z" fill="#E7E6DE"/></svg>