<svg width="25" height="161" viewBox="0 0 25 161" fill="none" xmlns="http://www.w3.org/2000/svg"><path d="M12.844 160.393c-.216 0-.4373-.04-.6586-.126-1.04-43.178-1.0041-86.4622-3.10675-129.5742-.20933-4.3267-.47728-9.0813-2.61595-12.9587-1.868-3.3853-5.13866-5.7107-5.899997-9.75201-.12-.63866-.138677-1.27864-.110677-1.91465C10.3134 4.47812 18.528 2.40608 24.4147.007416 25.1333 13.6394 23.012 27.7741 23.516 41.2221c.6827 18.156 1.04 36.3227 1.0733 54.4907.0214 11.6452-.0919 23.2932-.3373 34.9362-.2146 10.15-3.3693 18.304-8.308 27.169-.6826 1.223-1.828 2.575-3.1 2.575z" fill="#1E1072"/></svg>