<svg width="2" height="3" viewBox="0 0 2 3" fill="none" xmlns="http://www.w3.org/2000/svg"><path d="M1.45862 1.45013l.32533.0413c-.036.224-.12664.3987-.27331.52536-.14533.12667-.32534.18933-.537337.18933-.266666 0-.481342-.08667-.642676-.26133-.162666-.17334-.242675-.42268-.242675-.74935 0-.209335.03467-.391987.104004-.551987C.261289.48612.367974.367433.51064.2901.651974.2101.807971.171448.974638.171448c.212002 0 .385322.053326.519982.159993.13334.106667.22.258656.25866.45599L1.43196.83678C1.4013.706113 1.34663.60745 1.2693.540784L.987952.442118c-.166667 0-.301306.059981-.405306.179981-.104.118666-.156022.306665-.156022.565331 0 .26133.050683.45067.150683.56934.1.11866.230659.17868.391992.17868.129331 0 .237321-.03999.323991-.11999.088-.07867.14267-.20133.16533-.36533z" fill="#3D3C3E"/></svg>