<svg width="9" height="7" viewBox="0 0 9 7" fill="none" xmlns="http://www.w3.org/2000/svg"><path d="M3.76002 6.11812c-.16-.26667-.33331-.53203-.50664-.79736.84-.316 1.44-1.11867 1.46666-2.064C4.74671 1.99942 3.74668.968784 2.49335.950117h-.03997c-.69334 0-1.30672.311973-1.720055.810643-.2-.24933-.400052-.49998-.586719-.74531C.71994.400783 1.54671.016784 2.45338.016784c1.77333-.001333 3.2 1.427976 3.2 3.206636 0 1.28667-.77336 2.3987-1.89336 2.8947zm3.70664-4.99867h-.32005c-.18667 0-.38664 0-.57331-.00133-.21333-.00133-.35997-.144001-.37331-.333335 0-.194667.14669-.356024.36003-.358691.18667-.002667.38659-.004004.58659-.004004.2 0 .40005.001337.58672.004004.21333.002667.36002.15735.36002.350683-.01333.194667-.16002.340013-.36002.341343-.09334.00133-.17334.00133-.26667.00133z" fill="#EACFA5"/></svg>