<svg width="71" height="8" viewBox="0 0 71 8" fill="none" xmlns="http://www.w3.org/2000/svg"><path d="M70.8639 7.75067c-1.408-.6-2.8346-1.168-4.2626-1.76667-4.3053-1.80533-9.1147-2.26132-13.8493-2.26132-1.864 0-3.7174.07066-5.5227.15866l-.164.008c-2.856.14134-5.7027.44802-8.5387.81869-7.2226.94-14.676 2.45735-22.0466 2.45735-3.2267 0-6.436-.29071-9.60271-1.04804-2.02-.48134-3.94533-1.27998-5.899995-1.97598 2.718665.14 5.417335.70133 8.136005.864 1.1733.06933 2.3387.10137 3.5.10137 8.1787 0 16.0813-1.61333 24.1413-3.19466C41.3333 1.0134 45.9573.233354 50.6279.066688c.7334-.026667 1.4734-.042644 2.2174-.042644 3.8093 0 7.7013.414649 11.176 1.981316 2.6893 1.21333 4.996 3.11867 6.8426 5.40801v.3373z" fill="#EACFA5"/></svg>