<svg width="5" height="4" viewBox="0 0 5 4" fill="none" xmlns="http://www.w3.org/2000/svg"><path d="M3.30934 3.19541c-.61733-.61733-1.23869-1.23999-1.85469-1.85599.12933-.13067.268-.268.39867-.401334.616.617334 1.23868 1.241324 1.85335 1.858664-.12667.12666-.26533.26533-.39733.39866zm.83734-.80931c-.64267-.644-1.28667-1.28936-1.932-1.930696-.22-.218667-.52135-.217331-.74268.002669C1.216.70874.964006.963431.710673 1.21676l-.048014.05333C1.55466 2.16209 2.44 3.04876 3.33466 3.94476c.272-.272.54402-.54268.81335-.81602.21867-.22133.22-.52131-.00133-.74264z" fill="#0B0146"/></svg>