<svg width="3" height="3" viewBox="0 0 3 3" fill="none" xmlns="http://www.w3.org/2000/svg"><path d="M1.75064 1.18613c-.12.048-.29997.08932-.53997.12399-.13467.02-.230687.04133-.286687.06533l-.130664.10801-.046647.15599.1.21999c.066666.05866.163998.08935.293328.08935.12667 0 .24-.02935.33867-.08402l.21865-.22799c.03467-.07467.05332-.18533.05332-.33066v-.11999zm.0267.73597c-.12134.104-.23869.17735-.35202.22002-.11334.044-.23467.064-.364.064-.214667 0-.378661-.05199-.494661-.15599-.113334-.10534-.172006-.23867-.172006-.40134l.065332-.26136.170671-.18932.237337-.10801c.065334-.01733.162657-.03332.293327-.05065.26667-.03067.46266-.069347.58932-.113347l.00134-.085319c0-.134667-.03066-.229351-.09333-.284017-.084-.076-.20931-.111979-.37598-.111979-.15466 0-.27067.026648-.344006.081315C.86533.580769.810666.67679.774666.814124L.451978.770113C.481311.63278.529321.522112.595988.435445c.068-.084.165325-.149328.291992-.194661.12667-.048.27468-.069336.44268-.069336.16533 0 .30133.019992.40533.058658l.22933.14668.10134.225326c.012.056.01732.157338.01732.305338v.44001c0 .30666.00802.49998.02135.58131l.08398.23334H1.844l-.06666-.24001z" fill="#3D3C3E"/></svg>