<svg width="3" height="3" viewBox="0 0 3 3" fill="none" xmlns="http://www.w3.org/2000/svg"><path d="M1.12 1.09942h1.37331c-.04-.157338-.11997-.290672-.23997-.400005-.13334-.108-.28011-.162663-.44011-.162663-.17333 0-.31992.053326-.45325.158659-.12.105334-.19998.240004-.23998.404009zm1.61328.21735H1.12c0 .164.07995.30799.21328.43066.13334.12.29339.17998.45339.17998.13333 0 .26659-.03334.38659-.104l.25338-.28399h.25326c-.06667.17733-.17333.32401-.33333.44268-.16.11733-.34667.17731-.53334.17731-.25333 0-.47992-.08934-.65325-.26934-.186669-.17866-.266669-.39865-.266669-.65732 0-.258668.08-.477324.266669-.655991.17333-.18.38659-.270671.65325-.270671.13334 0 .26672.030658.38672.090658s.22672.144018.32005.252018l.1599.314649c.04.095997.05338.214687.05338.353357z" fill="#fff"/></svg>