<svg width="39" height="128" viewBox="0 0 39 128" fill="none" xmlns="http://www.w3.org/2000/svg"><path d="M30.3787.874054C14.8067 3.31406 6.36533 16.9461 3.96267 31.5434.558668 52.2301-.709336 74.8261 2.62533 95.5701 5.29466 112.173 13.8827 124.791 31.524 127.025c1.652.209 3.312.336 4.9747.428.68-10.299 1.1933-20.606 1.608-30.9189-1.1974-.0427-2.3934-.116-3.5814-.2667-9.9626-1.2627-14.8133-8.4-16.32-17.7893-1.884-11.732-1.168-24.512.7547-36.212 1.3573-8.256 6.124-15.9653 14.9187-17.3467 1.624-.2546 3.288-.384 4.968-.448-.1627-8.1213-.428-16.23863-.756-24.35464-2.6067.128006-5.1854.361298-7.712.757294z" fill="#EBEAD9"/></svg>