<svg width="15" height="19" viewBox="0 0 15 19" fill="none" xmlns="http://www.w3.org/2000/svg"><path d="M7.09735 1.50746c.22267-.2.58001-.19733.80267.00534.22134.2.25868.55199.08002.78532l-.11602.05866-.18665.004-.18536-.00133-.18131.00133-.18135-.004-.12265-.06534c-.176-.236-.13335-.58664.09065-.78398zM2.87737 17.2115c-.34667 0-.52269-.1734-.52269-.5174V5.19678c0-.33733.17868-.51465.51468-.51598h1.48001l.12132.00534v.67197c0 .46534.25332.72136.71599.72136.48.00133.95867 0 1.43733 0h3.21468c.28531.00133.50531-.11468.62271-.38135l.0559-.28665c.008-.24001.0027-.48135.0027-.71602l.0333-.01198c.548 0 1.0961-.00533 1.6454.00133.2387.00267.4093.17465.4333.41332l.0067.17467v4.13734l.0067.14398.0439-.03333c.496-.496.9934-.992 1.4881-1.492l.0479-.14397c.0027-.9.0027-1.8.0027-2.69867-.0026-1.17067-.92-2.08802-2.0893-2.09069-.4973-.00133-.9947 0-1.492 0h-.1187l-.008-.06667c-.0147-.42-.2706-.668-.69065-.66933h-.53734l-.104-.00664C9.42668 1.28347 8.67335.340784 7.69602.228785 7.19869.172783 6.74936.30479 6.37203.635456c-.52267.456004-.70534 1.035994-.57067 1.723994h-.58135c-.48933 0-.71332.20933-.75199.7l-.01201.036h-.12132c-.50133 0-1.00267.00133-1.50267 0-.248-.00133-.48798.04133-.71865.12933-.81733.308-1.348016 1.07736-1.34935 1.96002-.001333 2.07334 0 4.14666 0 6.2213 0 1.7694-.001333 3.5387 0 5.3094.001334.9573.63602 1.7773 1.55202 2.0213.32667.0853.65999.0653.99199.0627l.16133-.0667c.48133-.476.95867-.9547 1.436-1.432l.07601-.088h-.14001c-.65466 0-1.30933 0-1.96399-.0013z" fill="#0B0146"/></svg>