<svg width="11" height="8" viewBox="0 0 11 8" fill="none" xmlns="http://www.w3.org/2000/svg"><path d="M.06665 7.43675V.538087h.879948v.893323c.173332-.34133.413412-.599976.746742-.779976C2.02668.472767 2.3867.384767 2.7867.384767c.45334 0 .87998.086661 1.23998.261328.37333.174667.70666.435985 1 .785315l.1733.264.14662-.264c.22666-.32.54674-.57466.94674-.763993.2-.089333.39995-.160008.61328-.208008.21334-.049333.41342-.074642.61342-.074642.73333 0 1.45328.349314 2.14661 1.046643.25333.25067.42665.56267.53335.93601.08.27866.1066.65866.1066 1.13333v3.936h-.93331V3.5874c0-.21333.00005-.3933-.01328-.53864-.01333-.14533-.04-.27602-.06667-.39202-.06666-.21733-.14672-.40265-.25338-.55332-.38667-.54667-.90664-.81999-1.57331-.81999-.29333 0-.57339.06931-.85339.20664-.26666.13867-.49333.32935-.66666.57601-.13334.184-.21334.42666-.26667.72666-.01333.17334-.02656.43733-.02656.79466v3.84935h-.93333V3.48874c0-.324-.01344-.56131-.04011-.70798-.05333-.23866-.14656-.46-.29323-.66533-.17333-.25067-.38666-.452-.66666-.604-.28-.152-.57334-.228-.86667-.228-.30667 0-.58672.06265-.85339.18532-.26666.12267-.49333.30401-.66666.54134-.13334.18934-.22667.40401-.26667.64001-.04.23867-.066666.51864-.066666.83864v3.94801H.06665z" fill="#fff"/></svg>