<svg width="2" height="3" viewBox="0 0 2 3" fill="none" xmlns="http://www.w3.org/2000/svg"><path d="M.377307 1.00211H1.4653c-.01334-.163998-.056-.286666-.124-.368-.10533-.128-.24267-.191992-.409338-.191992-.152 0-.27865.050653-.38265.151986C.446646.695437.389307.831445.377307 1.00211zm1.083983.53334l.34134.04267c-.05333.19867-.15333.35333-.29866.464-.14534.10933-.33066.164-.557327.164-.285333 0-.510677-.08667-.677344-.26267-.168-.17466-.250683-.42134-.250683-.73867 0-.326666.084019-.581328.253353-.762662.168-.181333.386656-.27067.655989-.27067.260002 0 .473342.087998.638672.265332.16533.177333.24801.426682.24801.74935l-.00266.08665H.359957c.012.21467.072014.37866.181347.49199.108001.11334.244007.17068.406674.17068.121332 0 .225312-.032.310642-.096.08534-.06267.15334-.164.20267-.304z" fill="#3D3C3E"/></svg>