<svg width="11" height="22" viewBox="0 0 11 22" fill="none" xmlns="http://www.w3.org/2000/svg"><path d="M3.44004 3.06615V9.5422H4.7334c.62667 0 1.10667-.15999 1.46667-.48132.34666-.32133.52005-.90401.52005-1.74668V5.23556c0-.76267-.13341-1.31476-.41341-1.65743-.26667-.34-.69334-.51198-1.26667-.51198h-1.6zM7.05345 21.1395c-.04-.14-.08005-.2707-.12005-.3907-.04-.1213-.07997-.2719-.10664-.4519-.02667-.1814-.05334-.412-.06667-.6934 0-.2813-.01341-.6333-.01341-1.0547v-3.3132c0-.984-.15997-1.6761-.50664-2.0774-.34667-.4027-.89326-.604-1.65326-.604H3.44004v8.5853H.120117V.054176H5.12012c1.73333 0 2.98656.402672 3.75989 1.205334.77334.804 1.15999 2.01732 1.15999 3.64532v1.65605c0 2.16934-.73327 3.59462-2.17327 4.27732.84.3413 1.41334.8986 1.73334 1.672.30666.7733.46663 1.712.46663 2.816v3.2533c0 .5213.0134.9787.0534 1.3707s.1467.788.3067 1.1893H7.05345z" fill="#EBEAD9"/></svg>