<svg width="3" height="4" viewBox="0 0 3 4" fill="none" xmlns="http://www.w3.org/2000/svg"><path d="M.552002 2.29937l.336003-.03066c.014666.136.053343.24533.110677.332.058668.08667.148008.15467.270668.20801.12267.05333.26001.08131.41201.08131.136 0 .256-.02133.36-.06133l.232-.16533.07601-.23066-.07334-.22132-.24135-.15866c-.07333-.02667-.23201-.07203-.47867-.1307-.248-.06-.41999-.116-.51999-.168-.128001-.06667-.223988-.15065-.286655-.25065-.062666-.09867-.094694-.21067-.094694-.33467 0-.136.038683-.261345.116016-.380012.076-.117333.189337-.208001.337333-.268001.148-.061334.312-.093327.49333-.093327.19867 0 .37466.033332.52666.098665.15333.062667.26935.157348.35202.281348.08133.125333.12533.266657.132.423987l-.34134.02533C2.25202 1.08737 2.19067.95938 2.084.87138 1.97867.786047 1.8227.742051 1.61603.742051c-.216 0-.372.039984-.47067.117318l-.148013.285351.105343.23867c.068.06267.24666.12666.536.19199.28933.06534.48799.12268.59466.17201.15733.072.27335.16397.34668.27464.07467.11067.11198.23735.11198.38135 0 .14267-.04132.27867-.12266.404-.08133.12667-.19865.22533-.35332.296-.15333.07067-.32535.10534-.51735.10534-.244 0-.44801-.03601-.61201-.10668-.164-.07066-.29332-.17732-.386654-.31998-.093333-.14267-.142681-.30402-.148014-.48269z" fill="#3D3C3E"/></svg>