<svg width="17" height="6" viewBox="0 0 17 6" fill="none" xmlns="http://www.w3.org/2000/svg"><path d="M2.30668 2.03013c-.44.27733-.85326.57998-1.25326.91198-.57333.496-.653356 1.32135-.160023 1.91869.466663.55733 1.306663.66264 1.933333.18131l.29336-.23737C5.86676 2.81141 8.85337 2.41013 12 3.59947c.8134.30666 1.6.7786 2.4133 1.4386.2667.216.5467.32539.8534.32539.2 0 .4134-.04801.6267-.14668.6267-.3.7466-.8427.7733-1.2067-.0133-.62267-.3733-.98667-.64-1.20534-3.8-3.096-9.60002-3.426609-13.72002-.77461z" fill="#0B0146"/></svg>