<svg width="2" height="3" viewBox="0 0 2 3" fill="none" xmlns="http://www.w3.org/2000/svg"><path d="M.04004 1.58872h.239973l.093359.23733.226693.096.226693-.07998.093359-.21201-.106771-.232-.226562-.10667-.120052-.03734-.066667-.02266-.146614-.09733L.14668.982076.106706.798059c0-.142666.053411-.261321.146745-.354655C.360117.348738.480091.302063.626758.302063c.12 0 .24.046675.333333.141341.106669.094667.146619.206671.146619.337338H.866732L.786784.599394.600065.531393.426758.603398.34668.776738l.093359.202669.226693.093323c.16.04934.266614.10667.346618.16934l.10677.15065.03997.196c0 .16533-.05336.30134-.16002.40667-.106672.10533-.253286.15866-.413286.15866-.146667 0-.280052-.056-.386719-.16667-.106667-.112-.160026-.244-.160026-.39866z" fill="#fff"/></svg>