<svg width="3" height="3" viewBox="0 0 3 3" fill="none" xmlns="http://www.w3.org/2000/svg"><path d="M1.31596 1.00211h1.08665c-.01466-.163998-.05599-.286666-.12399-.368-.10533-.128-.24134-.191992-.40934-.191992-.152 0-.27868.050653-.38268.151986-.10267.101333-.15997.237341-.17064.408006zm1.08265.53334l.34134.04267c-.05333.19867-.15333.35333-.29867.464-.14533.10933-.33069.164-.55735.164-.28534 0-.51065-.08667-.67731-.26267-.168-.17466-.250687-.42134-.250687-.73867 0-.326666.084017-.581328.253357-.762662.168-.181333.38665-.27067.65732-.27067.25867 0 .472.087998.63734.265332.16533.177333.24798.426682.24798.74935l-.00264.08665H1.29727c.012.21467.07335.37866.18135.49199.10933.11334.24398.17068.40664.17068.12134 0 .22535-.032.31068-.096.08533-.06267.15333-.164.20267-.304z" fill="#3D3C3E"/></svg>