<svg width="10" height="9" viewBox="0 0 10 9" fill="none" xmlns="http://www.w3.org/2000/svg"><path d="M7.428 8.01335H5.11335l.82669-2.8373H3.5l-.87597 2.8373H.218689l.178646-.60534L1.60534 3.30534h7.4c-.05333.42-.29469.81733-.72135 1.18933-.19467.172-.35596.27738-.48796.31738.15734.24933.23731.51065.23731.78665 0 .15734-.02401.38131-.07201.67064-.02666.17733-.204.75868-.53333 1.74401zm1.70404-5.3987H1.1267L2.21999.901373h5.87734c.15867 0 .31872.054664.47872.163997.16133.108.28527.23863.36927.39063.124.228.18672.61465.18672 1.15865z" fill="#B9B8A9"/></svg>