<svg width="3" height="3" viewBox="0 0 3 3" fill="none" xmlns="http://www.w3.org/2000/svg"><path d="M.73326 1.09942h1.36003C2.06662.942082 1.98665.808748 1.85331.699415c-.12-.108-.26677-.162663-.4401-.162663-.16 0-.30664.053326-.439976.158659C.839901.800745.759927.935415.73326 1.09942zm1.6.21735h-1.6c0 .164.066615.30799.213281.43066.133329.12.280049.17998.453389.17998.13333 0 .2533-.03334.3733-.104l.25339-.28399h.25325c-.05333.17733-.17333.32401-.33333.44268-.16.11733-.33325.17731-.51992.17731-.26667 0-.480001-.08934-.666667-.26934-.173334-.17866-.266667-.39865-.266667-.65732 0-.258668.093333-.477324.266667-.655991.173333-.18.399917-.270671.653257-.270671.14666 0 .26666.030658.4.090658.12.06.22677.144018.30677.252018l.17331.314649c.02666.095997.03997.214687.03997.353357z" fill="#fff"/></svg>