<svg width="3" height="3" viewBox="0 0 3 3" fill="none" xmlns="http://www.w3.org/2000/svg"><path d="M2.49325 1.59272h.26667c-.08.17333-.20008.31068-.34674.41068-.16.1-.33326.15065-.51993.15065-.26666 0-.49341-.088-.68007-.264-.18667-.176-.279952-.39866-.279952-.66533 0-.257334.093282-.475989.279952-.654655.18666-.178667.41333-.268002.66666-.268002.2 0 .37334.05199.53334.15599.16.102667.28007.242686.34674.420019h-.26667L2.23987.627389c-.12-.064-.22662-.095996-.34662-.095996-.2 0-.37338.066664-.52005.197331-.13333.130666-.2.295996-.2.491996 0 .19733.06667.36269.2.49869s.29336.20264.49336.20264c.13333 0 .25336-.02531.36003-.07865l.26666-.25068z" fill="#fff"/></svg>