<svg width="3" height="3" viewBox="0 0 3 3" fill="none" xmlns="http://www.w3.org/2000/svg"><path d="M2.15463 1.18613c-.12.048-.29997.08932-.53863.12399-.136.02-.23336.04133-.28936.06533l-.12933.10801-.04668.15599.1.21999c.06667.05866.16536.08935.29336.08935.12667 0 .24001-.02935.33867-.08402l.21865-.22799c.03467-.07467.05332-.18533.05332-.33066v-.11999zm.0267.73597c-.12134.104-.24002.17735-.35202.22002-.11333.044-.23467.064-.36533.064-.21334 0-.37733-.05199-.491995-.15599-.116-.10534-.17334-.23867-.17334-.40134l.065332-.26136.170673-.18932.23733-.10801c.06534-.01733.16267-.03332.29333-.05065.26667-.03067.46266-.069347.58932-.113347l.00134-.085319c0-.134667-.03066-.229351-.09333-.284017-.084-.076-.20934-.111979-.37601-.111979-.15466 0-.26931.026648-.34397.081315-.07334.054666-.12934.150687-.164.288021L.855969.770113C.885303.63278.933314.522112 1.00131.435445c.06667-.084.164-.149328.29066-.194661.128-.048.27468-.069336.44134-.069336.16667 0 .30268.019992.40668.058658l.22933.14668.10266.225326c.01067.056.01599.157338.01599.305338v.44001c0 .30666.00669.49998.02135.58131l.08399.23334h-.34532l-.06666-.24001z" fill="#3D3C3E"/></svg>