<svg width="4" height="7" viewBox="0 0 4 7" fill="none" xmlns="http://www.w3.org/2000/svg"><path d="M2.4226 4.65547c-.148-.08267-.21329-.24532-.29596-.38666-.23467-.39333-.45733-.79466-.66667-1.20133-.07066-.136-.10401-.34268-.04935-.47601.06534-.16267.02533-.26399-.04134-.39066-.124-.22933-.24003-.46132-.36269-.69199-.092002-.176-.189325-.352-.322659-.599999l-.090625.172009c-.344.464-.345377.98798-.245377 1.51731.18.95067.616015 1.788 1.182681 2.56.316.43066.70268.78935 1.21068.98802.22133.08666.4493.15864.70397.04131-.25067-.48534-.49868-.95867-.74401-1.43334l-.27865-.09866z" fill="#100F0D"/></svg>