<svg width="3" height="3" viewBox="0 0 3 3" fill="none" xmlns="http://www.w3.org/2000/svg"><path d="M1.09325 1.09406h1.36002C2.4266.936722 2.3465.803389 2.21317.694056c-.13334-.108-.27998-.162663-.43998-.162663-.16 0-.31997.053327-.43997.159993-.13333.104-.21331.238669-.23997.402674zm1.6.21735h-1.6c0 .164.06666.30799.2.43199.14666.11867.29333.17865.46666.17865.13334 0 .25331-.0333.37331-.10397l.25338-.28402h.25326c-.06667.17734-.17333.32534-.33333.44268-.16.11733-.33334.17731-.53334.17731-.25333 0-.47992-.0893-.65325-.2693-.173335-.17867-.266669-.39869-.266669-.65736 0-.257335.08-.477324.266669-.655991.17333-.18.39992-.269336.65325-.269336.13334 0 .26672.029323.38672.089323.13334.06.23992.144018.31992.252018l.17344.314649c.02667.095997.03998.214687.03998.353357z" fill="#fff"/></svg>