<svg width="21" height="17" viewBox="0 0 21 17" fill="none" xmlns="http://www.w3.org/2000/svg"><path d="M18.0266 16.5128H2.25328c-1.13333-.0013-2.000079-.8693-2.013412-1.996V5.60347c.013333-1.1.880052-1.97201 1.986722-1.976.29333-.00267.58661-.00267.87994-.00267.46667 0 .93334.00133 1.4.00133.46667-.00133.77339-.22266.92006-.66133.17333-.556.35994-1.11333.54661-1.66933.14667-.428004.45336-.645316.89336-.645316h6.58674c.44 0 .7466.215977.8799.642646.1867.556.3734 1.11333.5601 1.66933.1466.44534.4533.66267.9333.664.4933 0 .9867-.00133 1.4933-.00133.24 0 .4934 0 .7334.00133 1.16.004 2.0133.86935 2.0133 2.02135v8.81862c0 1.1907-.8533 2.0454-2.04 2.0467zM10.1465 4.61816c-2.71999.00133-4.94661 2.21997-4.94661 4.94531 0 2.75063 2.21336 4.96403 4.96001 4.96133 2.7334-.0013 4.9466-2.2133 4.9466-4.92666.0134-2.76134-2.2-4.97998-4.96-4.97998zm7.2934 1.71331h.4933c.1334 0 .2666 0 .4133-.00134.32-.00266.5468-.23066.5468-.53066.0133-.29867-.2267-.54001-.5334-.54401-.3066-.004-.6134-.00531-.92-.00531-.3067 0-.6133.00131-.92.00531-.32.00267-.56.25469-.5467.55469 0 .29866.24.51865.56.51998.1467.00134.28.00134.4133.00134h.4934z" fill="#A0A19D"/></svg>