<svg width="3" height="3" viewBox="0 0 3 3" fill="none" xmlns="http://www.w3.org/2000/svg"><path d="M.912028 1.00211H1.99868c-.01467-.163998-.05599-.286666-.12399-.368-.10533-.128-.24134-.191992-.40934-.191992-.152 0-.27865.050653-.38265.151986C.980032.695437.922695.831445.912028 1.00211zm1.082652.53334l.34267.04267c-.05466.19867-.15466.35333-.29866.464-.14667.10933-.33199.164-.55866.164-.284 0-.510678-.08667-.677344-.26267-.166667-.17466-.250684-.42134-.250684-.73867 0-.326666.084019-.581328.253353-.762662.168-.181333.387985-.27067.655985-.27067.26134 0 .47334.087998.63868.265332.16533.177333.24801.426682.24801.74935l-.00267.08665H.893343c.012.21467.073348.37866.181347.49199.10933.11334.24401.17068.40801.17068.12 0 .22398-.032.30931-.096.08533-.06267.15333-.164.20267-.304z" fill="#3D3C3E"/></svg>