<svg width="10" height="8" viewBox="0 0 10 8" fill="none" xmlns="http://www.w3.org/2000/svg"><path d="M8.53333 7.40874H1.43997c-.506671 0-.906645-.39067-.906645-.89867V2.49673c0-.49467.400026-.88666.893355-.88933.18667-.00133.37331-.00133.57331-.00133h.45339c.21333 0 .34661-.09867.41328-.29733.08-.24934.16005-.501353.25338-.750686.05334-.193333.2-.290658.4-.290658h2.9599c.2 0 .33333.097323.4.289323.08.249334.17339.501351.25339.752021.06666.20133.19994.29733.41328.29866h1.01341c.50666.00134.89336.39201.89336.90935.01333 1.324.01333 2.64666 0 3.96933 0 .53733-.38672.92266-.92005.92266zM4.99999 2.05405c-1.22666 0-2.22669.99869-2.22669 2.22536 0 1.23866.98669 2.23467 2.22669 2.23467 1.22667-.00134 2.2267-.99602 2.2267-2.21735 0-1.244-.9867-2.24268-2.2267-2.24268zm3.27995.77067c.08 0 .17333.00134.26667.00134.04 0 .09333-.00134.13333-.00134.14667-.00133.25339-.10397.25339-.23997 0-.13334-.10665-.24135-.23998-.24401-.14666-.00134-.28008-.00267-.41341-.00267-.14667 0-.2799.00133-.42656.00267-.13334.00133-.24011.11465-.24011.24931 0 .13467.10672.23334.25339.23467.05333 0 .09333.00134.13333.00134.09334 0 .18662-.00134.27995-.00134z" fill="#AFAEAA"/></svg>