<svg width="3" height="3" viewBox="0 0 3 3" fill="none" xmlns="http://www.w3.org/2000/svg"><path d="M1.65337.536756c-.17333 0-.33339.066668-.45339.201335-.13333.132-.199996.290679-.199996.476009 0 .2.066716.36664.186716.50664.13334.13867.29323.20667.49323.20667l.26667-.04664.22669-.15336.13333-.22799.06667-.26667c0-.19733-.06661-.362659-.21328-.494659-.13333-.134667-.30664-.201335-.50664-.201335zm.94661-.190657V1.86342c0 .16133-.01336.27735-.02669.35068l-.17331.30798c-.09333.09066-.20005.16134-.32005.21201-.12.04933-.25325.07467-.38659.07467-.2 0-.37341-.06134-.54674-.18001-.160002-.12-.26659-.276-.319924-.46934h.239974c.06667.13467.16005.23734.25339.30801.12.07467.25333.11335.4.11335l.31992-.07868.25338-.23067.06667-.19733.01328-.21067v-.096c-.05333.12533-.14661.224-.27995.296-.13333.064-.26674.09599-.41341.09599l-.34661-.06933-.29336-.18933-.200002-.30267C.786624 1.48475.76001 1.36342.76001 1.23676l.013281-.17067.053385-.16934.106641-.206673C1.03998.55141 1.16001.450074 1.29334.387407c.10667-.053333.23998-.081315.37331-.081315.14667 0 .28.031996.4.095996.14667.068.23997.163989.30664.287989V.346099h.22669z" fill="#fff"/></svg>