<svg width="11" height="5" viewBox="0 0 11 5" fill="none" xmlns="http://www.w3.org/2000/svg"><path d="M5.58671.174066c-1.66667.017333-3.2.517382-4.53334 1.484044-.386662.27467-.613433.66397-.640099 1.09597-.026667.39866.133437.78934.440104 1.07467.466665.448 1.213255.47604 1.786585.07071.77334-.54267 1.60006-.86001 2.45339-.94135 1.29333-.124 2.45331.19732 3.50664.94799.26667.188.57328.28932.87995.28932.61336 0 1.14676-.41868 1.30676-1.04134.1467-.56134-.0801-1.12267-.6134-1.50267C8.8133.671409 7.32004.188732 5.58671.174066z" fill="#0B0146"/></svg>