<svg width="8" height="8" viewBox="0 0 8 8" fill="none" xmlns="http://www.w3.org/2000/svg"><path d="M4.2533 1.28344c-.74666 0-1.38677.26797-1.90677.80397s-.7733 1.18401-.7733 1.94267c0 .74.26671 1.37066.78671 1.89066.53334.52267 1.16003.78268 1.89336.78268.76 0 1.3999-.26934 1.89323-.80934.50667-.54.76003-1.19065.76003-1.94931 0-.76-.26662-1.39601-.81328-1.91068-.24-.22933-.52005-.41198-.85339-.54798-.32-.13467-.65325-.20267-.98659-.20267zm0-.898668c.96 0 1.78664.35199 2.50664 1.055988.72.704 1.07995 1.53867 1.07995 2.50401 0 .99333-.34659 1.852-1.05325 2.57467-.69334.72267-1.54667 1.08398-2.53334 1.08398-.98666 0-1.84007-.34934-2.54674-1.04668C.986559 5.85941.639893 5.01675.639893 4.03008c0-1.00133.346718-1.85867 1.053387-2.57334C2.38661.742078 3.2533.384772 4.2533.384772z" fill="#fff"/></svg>