<svg width="18" height="20" viewBox="0 0 18 20" fill="none" xmlns="http://www.w3.org/2000/svg"><path d="M15.924 13.5861c-.5574 0-1.0094-.452-1.0094-1.008 0-.5574.452-1.0107 1.0094-1.0107.5573 0 1.0093.4533 1.0093 1.0107 0 .556-.452 1.008-1.0093 1.008zm-7.56538-1.5067c-1.48133 0-2.68665-1.2067-2.68665-2.68801 0-1.48133 1.20532-2.68666 2.68665-2.68666 1.48134 0 2.68538 1.20533 2.68538 2.68666 0 1.48131-1.20404 2.68801-2.68538 2.68801zm-5.25999.012c-.556 0-1.00801-.4533-1.00801-1.0093s.45201-1.0094 1.00801-1.0094c.55733 0 1.01068.4534 1.01068 1.0094s-.45335 1.0093-1.01068 1.0093zM1.4333 3.38208c0-.92.74666-1.668 1.66533-1.668.92133 0 1.668.748 1.668 1.668 0 .92-.74667 1.668-1.668 1.668-.91867 0-1.66533-.748-1.66533-1.668zm11.9973-.25202c.768 0 1.3893.62136 1.3893 1.38936 0 .76533-.6213 1.38932-1.3893 1.38932-.7653 0-1.388-.62399-1.388-1.38932 0-.768.6227-1.38936 1.388-1.38936zm-2.124 13.99864c0 .7654-.6227 1.3894-1.38932 1.3894-.768 0-1.38932-.624-1.38932-1.3894 0-.7666.62132-1.3893 1.38932-1.3893.76662 0 1.38932.6227 1.38932 1.3893zm4.6174-6.5586c-.636 0-1.1787.316-1.5467.7773l-2.452-1.0747c.0693-.28396.1173-.57598.1173-.88131 0-.83467-.2906-1.59598-.76-2.21465l.7467-.736c.3947.288.876.46399 1.4013.46399 1.3174 0 2.388-1.07065 2.388-2.38531 0-1.31601-1.0706-2.38536-2.388-2.38536-1.3146 0-2.3866 1.06935-2.3866 2.38536 0 .42933.124.82664.3226 1.1733l-.788.77735c-.61996-.47067-1.38264-.76267-2.21998-.76267-.748 0-1.44266.22802-2.02532.61202L5.19596 5.0074c.35067-.45066.568-1.01065.568-1.62532 0-1.468-1.196-2.663999-2.66533-2.663999-1.468 0-2.663999 1.195999-2.663999 2.663999 0 1.46933 1.195999 2.664 2.663999 2.664.49467 0 .95335-.14402 1.35068-.38002l1.14398 1.31869c-.56533.648-.91865 1.48397-.91865 2.40664 0 .20133.02799.39735.05866.59069-.36134-.53334-.94267-.90667-1.63467-.90667-1.10533 0-2.00534.89867-2.00534 2.00669 0 1.108.90001 2.0066 2.00534 2.0066 1.10667 0 2.00534-.8973 2.00801-2.0026.616 1.176 1.83465 1.9893 3.25198 1.9893l.18936-.0187.35599 1.9187c-.80934.3827-1.37468 1.2-1.37468 2.1533 0 1.3147 1.07066 2.3854 2.38799 2.3854 1.31462 0 2.38672-1.0707 2.38672-2.3854 0-1.3173-1.0721-2.3866-2.38672-2.3866l-.04131.0053-.34935-1.88c.86538-.2907 1.57868-.8893 2.02398-1.672l2.4307 1.0653-.064.3174c0 1.1066.9 2.0053 2.0067 2.0053 1.108 0 2.008-.8987 2.008-2.0053 0-1.108-.9-2.008-2.008-2.008z" fill="#0B0146"/></svg>