<svg width="45" height="56" viewBox="0 0 45 56" fill="none" xmlns="http://www.w3.org/2000/svg"><path d="M34.7067 55.1434C15.8 55.1434.47998 39.8234.47998 20.9248c0-7.736 2.57336-14.87205 6.89336-20.604053C16.56 3.22342 24.6801 8.52208 30.9867 15.4874c.2667.2933.5333.5894.7866.8894-.3066 0-.6133-.0014-.9333-.0014-.16 0-.32 0-.4934.0014-.7066.004-1.2666.564-1.2666 1.2733v5.74c0 .7253.56 1.284 1.2933 1.284 1.6934.0013 3.3868.0013 5.0801.0013h2.2533c4.5733 7.912 7.2 17.104 7.2 26.9054 0 .6786-.0133 1.3546-.04 2.0266-3.2133.9987-6.6267 1.536-10.16 1.536zm.76-31.748c-1.7733.0014-3.2-1.424-3.2-3.196 0-.844.3333-1.6133.8799-2.184.1867.2454.3868.496.5868.7454-.32.3866-.52.8853-.5334 1.436-.0133 1.2213.9867 2.2493 2.2267 2.2693h.04c.2667 0 .5467-.052.7867-.1454.1734.2654.3467.5307.5067.7974-.4.1773-.8267.2773-1.2934.2773z" fill="#C9C7B8"/></svg>