<svg width="4" height="3" viewBox="0 0 4 3" fill="none" xmlns="http://www.w3.org/2000/svg"><path d="M.595978 2.1621V.215455h.295996v.273307L1.13465.258098c.10133-.058667.21735-.086654.34668-.086654.144 0 .26266.029323.35599.089323l.19466.252018c.15467-.228.35467-.341341.60134-.341341.19333 0 .34267.053327.44667.159994.10267.106667.15466.271995.15466.494661V2.1621h-.32799V.935442c0-.132-.01067-.226653-.032-.285319L2.75864.511451 2.55998.458098c-.136 0-.25068.045336-.34135.136003-.09066.090666-.13466.237336-.13466.435999v1.132H1.7533V.898104c0-.148-.02665-.25733-.07998-.330664-.05467-.073333-.14266-.109342-.26533-.109342l-.25736.072005-.170635.216016c-.036.093333-.053353.228005-.053353.405341V2.1621H.595978z" fill="#3D3C3E"/></svg>