<svg width="39" height="67" viewBox="0 0 39 67" fill="none" xmlns="http://www.w3.org/2000/svg"><path d="M14.8665 66.6074c.0267-.672.04-1.348.04-2.0267 0-9.8013-2.6267-18.9933-7.20001-26.9053h2.81341c.7733-.0013 1.3199-.552 1.3199-1.3187v-5.6773c0-.7427-.5467-1.3-1.2933-1.3027H9.10649c-.30666-.0013-.49333-.1386-.6-.428-.12-.3586-.22661-.716-.34661-1.0746-.09333-.2747-.29339-.4121-.58672-.4121-.70667-.0013-1.39997-.0013-2.10664-.0013-.70667 0-1.41339 0-2.12005.0013-.29334 0-.49331.1387-.57331.4134-.12.3587-.24003.716-.36003 1.076-.09333.2827-.29325.424-.58658.4253h-.05339c-.25333-.3-.51992-.596-.786588-.8893C8.01324 22.9874 12.5199 14.4314 12.5199 4.82204c0-1.45466-.1068-2.88798-.3068-4.287982C27.4931 3.96072 38.9199 17.6087 38.9199 33.9247c0 15.3573-10.12 28.352-24.0534 32.6827z" fill="#EACFA5"/></svg>