<svg width="6" height="8" viewBox="0 0 6 8" fill="none" xmlns="http://www.w3.org/2000/svg"><path d="M.853271 5.40476H1.7866c0 .36133.1199.66799.3599.91999.24.25333.53341.37867.88008.37867.34667 0 .62667-.10531.86667-.31731.24-.21067.34661-.4867.34661-.82803 0-.36533-.13328-.66533-.41328-.89867-.18667-.16-.48008-.29998-.88008-.41865-.16-.04933-.31992-.09734-.45325-.14267-.13334-.044-.21339-.07466-.25339-.092-.22667-.09733-.42659-.22401-.58659-.37867-.16-.15467-.30674-.35066-.41341-.58933-.09333-.236-.13333-.47732-.13333-.71998 0-.55467.18664-1.01469.5733-1.382687.38667-.366666.85342-.550651 1.41342-.550651.52 0 .95994.185321 1.34661.55332.37333.369338.56003.808008.56003 1.312008h-.93334c0-.29466-.10664-.53067-.30664-.70533-.2-.17467-.45336-.26133-.76002-.26133-.25334 0-.47995.09331-.67995.28131-.18667.18534-.28008.41068-.28008.67468 0 .336.11997.59865.37331.78665.13333.108.41343.228.8401.364.61333.192 1.06662.41336 1.34662.65869.18666.164.33336.35999.42669.58665.09333.224.14661.48134.14661.76934 0 .644-.20002 1.17198-.62669 1.58265-.41333.41067-.94667.61601-1.6.61601-.57333 0-1.07995-.21734-1.47995-.64934-.41333-.43334-.613279-.94932-.613279-1.54932z" fill="#fff"/></svg>