<svg width="3" height="4" viewBox="0 0 3 4" fill="none" xmlns="http://www.w3.org/2000/svg"><path d="M2.94647 1.33405H2.6798c-.09333-.132-.21323-.23468-.35989-.31068-.14667-.076-.30675-.113314-.48008-.113314-.26667 0-.49336.100004-.69336.300004-.200002.2-.306643.43199-.306643.69733 0 .27866.106641.51598.306643.71598.2.2.44005.29866.72005.29866.16 0 .30672-.03865.45339-.11731.14666-.07734.26664-.18399.3733-.31866h.26667c-.10667.2-.26667.36132-.46667.48399-.2.12267-.41336.18398-.62669.18398-.36 0-.65336-.11999-.893359-.35866-.253334-.24133-.373307-.53732-.373307-.88798 0-.33867.120026-.628.360026-.868.25333-.238671.53328-.358663.87995-.358663.13333 0 .2533.015983.3733.049316l.32006.150684.23997.197333.17331.25599z" fill="#fff"/></svg>