<svg width="31" height="181" viewBox="0 0 31 181" fill="none" xmlns="http://www.w3.org/2000/svg"><path d="M21.4573 180.802c-1.356 0-2.9813-.956-4.0973-1.944-4.2174-3.737-8.52271-7.585-11.17471-12.558C.057291 154.812.343967 141.723.427967 129.083c.096-14.945.272009-29.8875.409342-44.8302.257331-28.0306.513341-56.0613.770671-84.091972C8.44265 2.88348 18.2933 5.17543 30.144 6.80743c-1.2147 2.45601-2.1307 5.08137-2.744 7.74537-1.4294 6.224-1.452 12.6733-1.468 19.0587-.0787 30.404-.1574 60.808-.2347 91.2105-.0453 17.721-.092 35.477-1.9107 53.105-.0733.707-.1626 1.448-.5813 2.022-.4467.608-1.0627.853-1.748.853z" fill="#1E1072"/></svg>