<svg width="2" height="3" viewBox="0 0 2 3" fill="none" xmlns="http://www.w3.org/2000/svg"><path d="M.34668 1.85672h.253385c0 .132.04.24534.133333.34001.093334.09467.213282.14134.346612.14134.13334 0 .25341-.044.34675-.13467.09333-.08933.14661-.20134.14661-.33867l-.03997-.18532-.12005-.15202-.17331-.10133-.2-.05866-.133334-.036-.09336-.02933-.186588-.11599L.466732.988721.413346.740739c0-.188.066667-.341331.2-.463997C.74668.155408.906758.095394 1.09342.095394c.18667 0 .34667.062686.46667.186686.13333.125333.2.278663.2.462663h-.25338c0-.122667-.03993-.221335-.11993-.301335-.09333-.08-.20005-.118685-.32005-.118685L.773372.447412.653451.744743.733398.96473l.173308.12399.093364.03467.13333.04001c.13333.03866.21331.06267.23997.07334l.12005.05598.09336.07468.17331.22399.05326.27734c0 .19467-.06662.36-.21328.49467-.14667.13733-.32006.20667-.52006.20667-.199997 0-.373252-.06667-.519919-.2-.146667-.136-.213411-.30668-.213411-.51335z" fill="#fff"/></svg>