<svg width="321" height="244" viewBox="0 0 321 244" fill="none" xmlns="http://www.w3.org/2000/svg"><path d="M82.8267 243.198h-5.3601c1.0934-30.472 20.4267-56.344 47.3604-67.1H.439941v-5.361H320.88v5.306h-7.627c-.346 0-.706.019-1.04.055H152.48c-.107 0-.213.001-.32.001-.04.002-.067.002-.107.002h-.013c-.067 0-.147.001-.213.001 0 .001 0 .001-.014.001-.066 0-.146.002-.213.003-.08 0-.147.001-.227.003-.04.001-.08.001-.106.002-.04 0-.08.002-.12.003-.067.001-.147.003-.227.004-1.707.041-3.413.145-5.107.308v.001c-.04.003-.066.007-.106.01v.001c-.04.003-.08.007-.107.011h-.013c-.027.004-.067.006-.107.01-.027.004-.067.007-.107.011v.001c-.04.003-.066.007-.106.011l-.014.001c-.026.003-.053.007-.093.01 0 .001 0 .001-.013.001-.027.004-.067.007-.094.011l-.013.001c-.027.004-.067.007-.093.009 0 .002-.014.003-.027.003-.027.004-.053.007-.08.009 0 .002-.013.003-.027.004-.026.003-.053.006-.08.008 0 .002-.013.003-.026.004-.027.003-.054.007-.08.01-.014.001-.014.001-.027.002-.027.003-.053.007-.08.01-.013.001-.027.002-.027.002-.026.004-.053.007-.08.01-.013.001-.026.002-.04.004-.013.002-.04.005-.053.008-.013.001-.04.004-.053.005-.014.003-.04.005-.054.007-.013.002-.04.004-.053.006-.013.002-.027.004-.053.006-.014.002-.04.005-.054.008l-.026.002c-33.587 4.138-59.867 32.211-61.2003 66.575zM320.88.988754H4.19997V.987427H320.88" fill="#B9B8A9"/></svg>