<svg width="3" height="3" viewBox="0 0 3 3" fill="none" xmlns="http://www.w3.org/2000/svg"><path d="M.354614 2.1621V.215455h.294694v.273307L.893286.258098C.994619.199431 1.11063.171444 1.23997.171444c.14533 0 .26265.029323.35465.089323l.196.252018c.15466-.228.35466-.341341.60133-.341341.19333 0 .34135.053327.44668.159994.10267.106667.15466.271995.15466.494661V2.1621h-.328V.935442c0-.132-.01066-.226653-.032-.285319L2.51728.511451 2.31861.458098c-.13733 0-.25064.045336-.34131.136003-.09066.090666-.13466.237336-.13466.435999v1.132h-.33067V.898104c0-.148-.02668-.25733-.08135-.330664-.05333-.073333-.14133-.109342-.26266-.109342L.909302.530103.737297.746119C.70263.839452.683944.974124.683944 1.15146V2.1621h-.32933z" fill="#3D3C3E"/></svg>