<svg width="3" height="4" viewBox="0 0 3 4" fill="none" xmlns="http://www.w3.org/2000/svg"><path d="M.693343 2.90074h.306641c.133336 0 .239976-.00401.306636-.01067l.29336-.05866.26667-.15065c.12-.09334.21333-.20667.26667-.33734.06666-.13333.10664-.27466.10664-.42933 0-.30667-.13331-.55869-.37331-.75602l-.26667-.14665L1.33332.9554c-.09334-.009334-.2-.013314-.333336-.013314H.693343V2.90074zm-.239974.21602V.724736h.653251l.25339.013346.23997.042676c.16.044.30664.119993.43998.226662.13333.10666.24005.24134.32005.40534.08.16266.11992.33066.11992.50133 0 .168-.03997.33199-.10664.48799l-.11992.21735-.17344.18532c-.12.11867-.27992.20399-.45325.25332-.13334.03867-.30664.05869-.50664.05869H.453369z" fill="#fff"/></svg>