<svg width="2" height="3" viewBox="0 0 2 3" fill="none" xmlns="http://www.w3.org/2000/svg"><path d="M.799927 1.58872H1.0399l.09336.23733.22669.096.2267-.07998.09322-.21201-.10664-.232-.22669-.10667-.11992-.03734-.06667-.02266-.14674-.09733L.906567.982076.866593.798059c0-.142666.053282-.261321.146617-.354655.10666-.094666.22677-.141341.37344-.141341.13333 0 .24.046675.33333.141341.10667.094667.14661.206671.14661.337338h-.23997L1.55995.599394l-.2-.068001-.1733.072005-.08008.17334.09336.202669.22669.093323c.16.04934.26661.10667.34661.16934l.10664.15065.04011.196c0 .16533-.05336.30134-.16003.40667-.10666.10533-.25341.15866-.41341.15866-.14667 0-.27992-.056-.386587-.16667-.106667-.112-.160026-.244-.160026-.39866z" fill="#fff"/></svg>