<svg width="3" height="3" viewBox="0 0 3 3" fill="none" xmlns="http://www.w3.org/2000/svg"><path d="M1.25339.531393c-.18667 0-.360031.069338-.493364.205338-.146667.136-.213411.301329-.213411.497329 0 .19067.066744.35199.213411.48799.146667.13467.306644.2.506644.2.17333 0 .33328-.06664.47994-.20264.13334-.13733.2-.29734.2-.48134 0-.196-.06666-.362669-.2-.498669-.13333-.138667-.29322-.208008-.49322-.208008zm.91992-.190658V2.11141h-.2267v-.33334c-.06666.11867-.15989.21198-.29322.28132-.12.06266-.25339.09466-.38672.09466-.14667 0-.279951-.02933-.413285-.09066-.133333-.06267-.26677-.15732-.373437-.28532L.373307 1.5714l-.066666-.35599.066666-.336003.120052-.201335c.12-.137333.253256-.234662.386589-.295996.12-.053333.240102-.080013.373442-.080013l.21328.021322.18672.072005c.13333.066667.22656.160016.29322.282682V.340735h.2267z" fill="#fff"/></svg>