<svg width="2" height="3" viewBox="0 0 2 3" fill="none" xmlns="http://www.w3.org/2000/svg"><path d="M.786743 1.58872h.239977l.09336.23733.22656.096.22669-.07998.09336-.21201-.10664-.232-.22669-.10667-.12005-.03734-.06667-.02266-.14662-.09733L.893384.982076.85341.798059c0-.142666.053281-.261321.14661-.354655.10667-.094666.2267-.141341.36003-.141341s.25328.046675.34661.141341c.09334.094667.14675.206671.14675.337338h-.2401L1.53336.599394l-.2-.068001-.16003.072005-.07995.17334.09336.202669.21328.093323c.16.04934.27995.10667.34662.16934l.12005.15065.02669.196c0 .16533-.05336.30134-.16002.40667-.10667.10533-.23995.15866-.41328.15866-.14667 0-.26677-.056-.373441-.16667-.106667-.112-.159896-.244-.159896-.39866z" fill="#fff"/></svg>