<svg width="2" height="3" viewBox="0 0 2 3" fill="none" xmlns="http://www.w3.org/2000/svg"><path d="M1.73322 1.63404c0-.19467-.06662-.35733-.21328-.48933-.13334-.13066-.30669-.197328-.49336-.197328-.200001 0-.360027.067998-.493361.199998-.133333.13467-.2.29599-.2.48666 0 .19333.066667.35866.2.49733.133334.13733.306693.20667.493361.20667.2 0 .36002-.06934.49336-.20667.14666-.13867.21328-.304.21328-.49733zM1.95991.13537v2.39066h-.22669v-.32399c-.08.12266-.18664.21334-.30664.27467-.12.06133-.25333.09333-.4.09333-.133335 0-.266642-.02932-.373309-.08666-.12-.05733-.240104-.15068-.373437-.28134l-.133333-.21335c-.04-.11467-.066667-.23199-.066667-.35199 0-.26.106745-.47865.280078-.655985.186667-.176.413281-.263997.679948-.263997.13333 0 .26672.02932.38672.086653.13333.061334.22669.149327.29336.259989V.13537h.23997z" fill="#fff"/></svg>