<svg width="8" height="9" viewBox="0 0 8 9" fill="none" xmlns="http://www.w3.org/2000/svg"><path d="M5.78273 8.03334H2.50675c-1.13333 0-1.854701-.36132-2.168034-1.08398-.093333-.22134-.124023-.52669-.09069-.91602.006667-.07867.020039-.21598.040039-.41465l.610677-2.30267L3.4587 3.30535l-.74668 2.28398.06667.27604c.06.12534.18805.20665.38405.24798h3.15332l-.4627 1.66934-.18131.23066h.11601l-.00533.01999zm1.49596-5.39863H1.09607c.13067-.44.37066-.828.71999-1.164.39333-.38.79999-.569335 1.21999-.569335h4.74798L7.27869 2.63471z" fill="#B9B8A9"/></svg>