<svg width="3" height="4" viewBox="0 0 3 4" fill="none" xmlns="http://www.w3.org/2000/svg"><path d="M.14801 2.29937l.33597-.03066c.016.136.053344.24533.110677.332.058667.08667.148004.15467.270671.20801.121333.05333.260012.08131.412012.08131.136 0 .25599-.02133.35999-.06133l.232-.16533.07601-.23066-.07334-.22132-.24267-.15866c-.07067-.02667-.23068-.07203-.47868-.1307-.24667-.06-.418655-.116-.518655-.168-.128-.06667-.223987-.15065-.286654-.25065-.062667-.09867-.094694-.21067-.094694-.33467 0-.136.038682-.261345.116016-.380012C.443996.671365.556.580697.704.520697.852.459363 1.01599.42737 1.19733.42737c.2 0 .37466.033332.52799.098665.15067.062667.26802.157348.35068.281348.08134.125333.12534.266657.132.423987l-.34134.02533C1.848 1.08737 1.78668.95938 1.68001.87138c-.10533-.085333-.26134-.129329-.468-.129329-.216002 0-.372006.039984-.470673.117318l-.148014.285351.105338.23867c.068.06267.24667.12666.535999.19199.28934.06534.488.12268.596.17201.156.072.27068.16397.34668.27464.07333.11067.11064.23735.11064.38135 0 .14267-.03999.27867-.12265.404-.08134.12667-.19866.22533-.35332.296-.15334.07067-.32535.10534-.51735.10534-.244 0-.447982-.03601-.611982-.10668-.164-.07066-.293353-.17732-.386686-.31998-.093333-.14267-.142648-.30402-.147982-.48269z" fill="#3D3C3E"/></svg>