<svg width="22" height="21" viewBox="0 0 22 21" fill="none" xmlns="http://www.w3.org/2000/svg"><path d="M16.7332 1.31813c-.48-.359998-.92-.442678-1.4267-.24668-.4667.18267-.7333.51469-.8.98268-.08.61867.1067 1.07601.5867 1.43868 2.6134 1.97466 3.6934 4.57336 3.2 7.72669-.4533 2.9653-2.8267 5.5306-5.7467 6.2373-3.06669.7413-6.38661-.4453-8.18661-2.9266-2.61333-3.572-1.88005-8.2027 1.74661-11.01337.69334-.544.85339-1.3347.38672-1.9707C6.02656.911461 5.2265.804804 4.5065 1.32347 1.81317 3.27147.346582 5.90884.119915 9.16084-.253418 14.8715 3.77317 19.6755 9.5065 20.3368c.4.0453.8001.068 1.1867.068 5.8534 0 10.44-4.9693 10.44-11.33465-.08-2.92667-1.68-5.75202-4.4-7.75202z" fill="#0B0146"/></svg>