<svg width="3" height="3" viewBox="0 0 3 3" fill="none" xmlns="http://www.w3.org/2000/svg"><path d="M.981364 1.00211H2.06935c-.01466-.163998-.05599-.286666-.12532-.368-.104-.128-.24001-.191992-.40801-.191992-.152 0-.27868.050653-.38268.151986-.104.101333-.161309.237341-.171976.408006zm1.083986.53334l.34134.04267c-.05333.19867-.15333.35333-.29867.464-.14533.10933-.33202.164-.55735.164-.28534 0-.51198-.08667-.678649-.26267-.166666-.17466-.250683-.42134-.250683-.73867 0-.326666.085353-.581328.253353-.762662.169329-.181333.387989-.27067.657319-.27067.26 0 .47334.087998.63868.265332.16533.177333.24798.426682.24798.74935l-.00264.08665H.962679c.013333.21467.073351.37866.182681.49199.108.11334.24398.17068.40664.17068.12134 0 .22401-.032.31068-.096.08533-.06267.152-.164.20267-.304z" fill="#3D3C3E"/></svg>