<svg width="11" height="23" viewBox="0 0 11 23" fill="none" xmlns="http://www.w3.org/2000/svg"><path d="M.679899 6.11537c0-1.70666.413361-3.01726 1.226691-3.9306C2.71992 1.27011 3.93331.812769 5.55998.812769c1.62666 0 2.85333.457341 3.66666 1.372001.81336.91334 1.21326 2.22394 1.21326 3.9306v.66133H7.30659v-.872c0-.76267-.14664-1.30132-.43997-1.61198-.28-.312-.69328-.46667-1.21328-.46667-.52 0-.93342.15467-1.21342.46667-.29333.31066-.43997.84931-.43997 1.61198 0 .72266.15995 1.36004.47995 1.91204.32.552.72 1.0733 1.2 1.5653.49333.49333 1.00002.98536 1.56002 1.47606.54667.4933 1.06675 1.0293 1.54675 1.612.48.5826.88 1.2453 1.2 1.9893.32003.7427.47993 1.616.47993 2.62 0 1.7066-.4133 3.0173-1.23996 3.9306-.84.9147-2.06669 1.3707-3.69336 1.3707-1.62666 0-2.85336-.456-3.69335-1.3707-.82667-.9133-1.25326-2.224-1.25326-3.9306v-1.296h3.14661V17.29c0 .764.14672 1.2961.45339 1.5961.32.3026.73325.4519 1.25325.4519s.94672-.1493 1.25339-.4519c.30667-.3.46667-.8321.46667-1.5961 0-.7226-.16008-1.36-.48008-1.9133-.32-.552-.71995-1.0733-1.21328-1.5653-.48-.492-.98662-.984-1.54662-1.4773-.54666-.4907-1.06674-1.0281-1.54674-1.6107-.48-.5814-.88-1.24397-1.2-1.98797-.333335-.744-.493361-1.61606-.493361-2.62006z" fill="#EBEAD9"/></svg>