<svg width="2" height="3" viewBox="0 0 2 3" fill="none" xmlns="http://www.w3.org/2000/svg"><path d="M.999886.947397c-.186667 0-.346615.069303-.479948.206643-.133333.13733-.2.30403-.2.4987 0 .18933.066667.35065.2.48398.133333.13467.293281.20133.479948.20133.200004 0 .360024-.06934.493364-.20667.13333-.14.18658-.30667.18658-.5 0-.196-.06666-.35999-.2-.49199L1.25327.999383.999886.947397zm0-.230664c.253334 0 .466714.089305.653384.270638.17333.181329.26667.394679.26667.644009 0 .25333-.08.47466-.26667.65999-.17333.184-.40005.27868-.653384.27868-.253333 0-.466719-.09067-.653385-.26933-.173334-.17867-.266667-.39465-.266667-.64798 0-.25734.08-.47737.266667-.661365.173333-.184.400052-.274642.653385-.274642z" fill="#fff"/></svg>