<svg width="832" height="279" viewBox="0 0 832 279" fill="none" xmlns="http://www.w3.org/2000/svg"><path d="M558.787 278.614H235.36v-2.68c0-38.508-31.333-69.836-69.84-69.836H57.32c-.8266-.036-1.6534-.055-2.48-.055H.705322c.04-1.782.118703-3.554.270703-5.306H105.707v-75.536l75.12-94.2122h-11.84l4.413-5.36h623.48V5.52609H189.96l3.507-4.26932c.32-.383998.693-.71197 1.013-1.090632h637.24V5.52609h-29.48V200.737h29.48v5.361h-.987c-.453-.036-.893-.055-1.346-.055H796.88V30.9874H480.2v-.0546H313.987V273.253h157.24v-.055h5.36v.055h76.88v-.055h5.36c-.027.908-.04 1.82-.04 2.736v2.68zM292.44 206.098l-9.333 67.155h25.52v-67.155H292.44zm-99.133 0c26.96 10.763 46.293 36.659 47.373 67.155h37.027l9.346-67.155h-93.746zM293.44 30.9888V198.953l-.253 1.784h15.44V30.9888H293.44zm-105.76 0l-76.613 96.0852v73.663H287.8l.293-2.155-.013-167.5932h-100.4zM620.027 206.623l.026-.002-.026.002zm.08-.01c.026-.002.04-.004.053-.006-.013.002-.027.004-.053.006zm.106-.012c.014-.002.04-.004.054-.007-.014.003-.04.004-.054.007zm.107-.012c.013-.003.04-.006.053-.008-.013.002-.026.005-.053.008zm.093-.012c.027-.003.054-.006.08-.01-.026.004-.053.007-.08.01zm.107-.012c.027-.003.053-.007.08-.01-.027.003-.053.007-.08.01zm.107-.012c.026-.003.053-.007.08-.01-.027.003-.054.006-.08.01zm.106-.014c.027-.002.054-.005.08-.008-.026.003-.053.006-.08.008zm.107-.012c.027-.002.053-.005.08-.009-.027.004-.053.007-.08.009zm.107-.012c.026-.002.066-.005.093-.009-.027.004-.053.007-.093.009zm.106-.01c.027-.004.067-.007.094-.011-.027.004-.067.007-.094.011zm.107-.012c.04-.003.067-.007.093-.01-.026.003-.053.007-.093.01zm.107-.011c.04-.004.066-.008.106-.011-.04.003-.066.007-.106.011zm.106-.012c.04-.004.08-.007.107-.011-.027.004-.067.008-.107.011zm.107-.011c.04-.004.08-.006.107-.01-.027.004-.067.006-.107.01zm.12-.01c.027-.004.067-.008.107-.011-.04.003-.08.007-.107.011zm.107-.012c.04-.003.066-.007.106-.01-.04.003-.066.007-.106.01zm.106-.011c1.694-.163 3.4-.267 5.107-.308-1.72.041-3.413.145-5.107.308zm5.107-.308c.08-.001.16-.003.227-.004-.067.001-.147.003-.227.004zm.227-.004c.04-.001.08-.003.12-.003-.04 0-.08.002-.12.003zm.12-.003c.026-.001.066-.001.106-.002-.04.001-.08.001-.106.002zm.106-.002c.08-.002.147-.003.227-.003-.08 0-.147.001-.227.003zm.227-.003c.067-.001.147-.003.213-.003-.066 0-.146.002-.213.003zm.227-.004c.066 0 .146-.001.213-.001-.067 0-.147.001-.213.001zm.226-.001c.04 0 .067 0 .107-.002-.04 0-.08.002-.107.002zm.107-.002c.107 0 .213-.001.32-.001-.107 0-.213.001-.32.001zm.347-.001h159.706-159.706z" fill="#CBCBCB"/></svg>