<svg width="3" height="3" viewBox="0 0 3 3" fill="none" xmlns="http://www.w3.org/2000/svg"><path d="M1.57327.531454c-.18667 0-.34667.066668-.46667.201335-.133333.132-.2.292011-.2.476011 0 .2.066667.368.2.50667.12.13867.28008.20664.48008.20664l.26666-.04665.22657-.15335.14674-.22799.05326-.26667c0-.19733-.06662-.362661-.21328-.494661-.13334-.134667-.29336-.201335-.49336-.201335zM2.5066.340796V1.85945c0 .16-.00003.27735-.02669.34935l-.17331.30801c-.09333.09066-.18659.16131-.31992.21197-.12.04934-.25339.07468-.38672.07468-.2 0-.37328-.06001-.54662-.18001-.159995-.12-.266714-.27601-.320047-.46934h.239974c.066663.13467.160003.23734.266663.30801.10667.07466.24006.11334.38672.11334l.33334-.07867.23997-.23067.06667-.19733.01328-.20934v-.09733c-.05334.12533-.14662.22399-.27995.29599-.13333.064-.26662.096-.41328.096l-.33334-.0693-.306766-.18936-.2-.30267c-.053333-.11333-.079948-.23333-.079948-.36133l.013281-.17067.053386-.169333.10664-.20664C.9466.54614 1.06663.444804 1.19996.382138c.10667-.053334.23997-.080013.37331-.080013.14666 0 .28007.030661.41341.094661.13333.068.22656.164021.29323.288021V.340796h.22669z" fill="#fff"/></svg>