<svg width="2" height="3" viewBox="0 0 2 3" fill="none" xmlns="http://www.w3.org/2000/svg"><path d="M.786743 1.59408h.226567l.09336.23733.23997.096.21341-.07998.09336-.21201-.10677-.232-.22656-.10667-.12006-.03734-.06666-.02266-.146617-.09866L.879972.987403.839998.803419c0-.142667.05336-.261322.160022-.354655.09334-.094667.21336-.142676.36003-.142676.13333 0 .24.048009.33333.142676.10667.094667.16003.206671.16003.337337h-.25339L1.53336.604754l-.2-.068002-.17331.072006-.08008.173339.10677.20267.21328.093323c.16.04934.26662.10667.34662.16934l.10677.15065.03997.196c0 .16533-.05336.30134-.16002.40667-.10667.10533-.25328.15866-.41328.15866-.14667 0-.28006-.056-.386722-.16667-.093334-.112-.146615-.24533-.146615-.39866z" fill="#fff"/></svg>