<svg width="23" height="7" viewBox="0 0 23 7" fill="none" xmlns="http://www.w3.org/2000/svg"><path d="M21.9465 4.03945C19.0532 1.56479 15.6532.23146 12.1066.180794c-2.94671 0-5.30663.529317-7.6533 1.717316-1.16.588-2.2401 1.32667-3.2401 2.19733-.42667.38667-.573284.90399-.413284 1.45599.173333.556.586714.8787 1.320054.96804.42666 0 .75997-.22267 1.03997-.46133 3.05333-2.536 6.58667-3.53737 10.46666-2.96804 2.4.34667 4.6 1.36804 6.5333 3.0347.2934.25734.64.39597.9866.39597.4 0 .7467-.16935 1.0267-.48269.5067-.60533.4267-1.44529-.2267-1.99863z" fill="#0B0146"/></svg>