<svg width="16" height="9" viewBox="0 0 16 9" fill="none" xmlns="http://www.w3.org/2000/svg"><path d="M11.0813 3.28211l.244.05332.0894-.01865c.7706-.72934 1.5399-1.46003 2.3106-2.18936l.0134-.11598c-.1027-.362669.1093-.738669.468-.833336.3626-.097334.7346.117314.8253.47998.0626.256-.0027.480026-.1947.658696-.196.18133-.428.2213-.68.13864l-.12.02135c-.756.72133-1.5133 1.44133-2.2733 2.15999l-.04.14535c.0706.26.008.49064-.1907.67331-.1987.18133-.4346.22399-.688.13199l-.14.02937c-.74531.67333-1.49199 1.34531-2.23999 2.01598l-.04.12933c.09733.36533-.12399.73602-.48399.82269-.37067.08933-.73335-.13334-.81468-.50534l-.09466-.09069c-.64533-.15867-1.29201-.31998-1.93734-.48265l-.10934.03734c-.23467.272-.62398.31599-.91331.09866l-.11469-.01068c-.68133.34134-1.36264.68266-2.04531 1.02266l-.068.10934c-.00133.37334-.30267.66934-.67467.66667-.368003-.00267-.664002-.3-.665335-.66934-.002667-.36933.300005-.67467.672005-.67334.152.00134.29065.05068.41465.14268l.08935.01068c.69334-.344 1.38531-.69068 2.07598-1.03868l.04935-.08531c.00933-.356.25466-.63868.59199-.67468.35333-.03733.65067.17733.73467.532l.07067.07334c.656.16267 1.312.32799 1.96934.48932l.08665-.02799c.21067-.23467.48801-.304.78001-.19466l.08932-.01468c.76267-.68267 1.52269-1.36932 2.28533-2.05199l.0227-.10534c-.1187-.43067.1987-.84799.6453-.85999z" fill="#0B0146"/></svg>