<svg width="3" height="3" viewBox="0 0 3 3" fill="none" xmlns="http://www.w3.org/2000/svg"><path d="M.999984 1.09942H2.36001c-.04-.157338-.11997-.290672-.23997-.400005-.13334-.108-.28011-.162663-.44011-.162663-.16 0-.31997.053326-.43997.158659-.13334.105334-.21331.240004-.239976.404009zm1.599996.21735H.999984c0 .164.066666.30799.199996.43066.14667.12.29334.17998.46667.17998.13333 0 .25331-.03334.37331-.104l.25338-.28399h.25326c-.06667.17733-.17334.32401-.33334.44268-.16.11733-.34666.17731-.53333.17731-.25333 0-.47992-.08934-.65325-.26934-.18667-.17866-.26667-.39865-.26667-.65732 0-.258668.08-.477324.26667-.655991.17333-.18.38658-.270671.65325-.270671.13333 0 .26672.030658.38672.090658s.22672.144018.32005.252018l.17331.314649c.02667.095997.03997.214687.03997.353357z" fill="#fff"/></svg>