<svg width="11" height="23" viewBox="0 0 11 23" fill="none" xmlns="http://www.w3.org/2000/svg"><path d="M1.0798 6.11537c0-1.70666.40003-3.01726 1.22669-3.9306C3.11983 1.27011 4.33321.812769 5.95988.812769c1.62667 0 2.85325.457341 3.65325 1.372001.81337.91334 1.22667 2.22394 1.22667 3.9306v.66133H7.70649v-.872c0-.76267-.14664-1.30132-.43997-1.61198-.29333-.312-.69328-.46667-1.21328-.46667-.53333 0-.93336.15467-1.22669.46667-.29334.31066-.4267.84931-.4267 1.61198 0 .72266.14662 1.36004.47995 1.91204.32.552.72 1.0733 1.2 1.5653.48.49333 1.00008.98536 1.54675 1.47606.56.4933 1.08002 1.0293 1.56002 1.612.48.5826.88003 1.2453 1.20003 1.9893.32.7427.4799 1.616.4799 2.62 0 1.7066-.4134 3.0173-1.25337 3.9306-.82666.9147-2.05328 1.3707-3.67994 1.3707-1.62667 0-2.85336-.456-3.69336-1.3707-.84-.9133-1.253258-2.224-1.253258-3.9306v-1.296H4.11991V17.29c0 .764.16 1.2961.46666 1.5961.32.3026.73326.4519 1.25326.4519s.93338-.1493 1.25338-.4519c.30667-.3.46667-.8321.46667-1.5961 0-.7226-.16008-1.36-.48008-1.9133-.33333-.552-.73328-1.0733-1.21328-1.5653-.48-.492-.99995-.984-1.54661-1.4773-.56-.4907-1.06675-1.0281-1.54675-1.6107-.49333-.5814-.89328-1.24397-1.21328-1.98797-.32-.744-.48008-1.61606-.48008-2.62006z" fill="#EBEAD9"/></svg>