<svg width="4" height="4" viewBox="0 0 4 4" fill="none" xmlns="http://www.w3.org/2000/svg"><path d="M.906616 2.29937l.336004-.03066c.016.136.05198.24533.11064.332.05867.08667.14801.15467.27067.20801.12134.05333.26002.08131.41335.08131.13467 0 .25466-.02133.35866-.06133l.232-.16533.07601-.23066-.07334-.22132-.24268-.15866c-.072-.02667-.23064-.07203-.47864-.1307-.24667-.06-.42002-.116-.51869-.168-.128-.06667-.22399-.15065-.28665-.25065-.06267-.09867-.09466-.21067-.09466-.33467 0-.136.03865-.261345.11598-.380012.07733-.117333.18934-.208001.33734-.268001.148-.061334.31199-.093327.49199-.093327.2 0 .37603.033332.52803.098665.15333.062667.26931.157348.35198.281348.08133.125333.12533.266657.132.423987l-.34134.02533c-.01867-.16933-.08132-.29732-.18666-.38532-.10533-.085333-.26133-.129329-.468-.129329-.216 0-.372.039984-.47067.117318l-.14801.285351.104.23867c.06934.06267.24801.12666.53734.19199.28933.06534.488.12268.596.17201.156.072.27201.16397.34534.27464.07467.11067.11201.23735.11201.38135 0 .14267-.04002.27867-.12269.404-.08133.12667-.19865.22533-.35332.296-.15333.07067-.32535.10534-.51735.10534-.244 0-.44798-.03601-.61198-.10668-.164-.07066-.29335-.17732-.38668-.31998-.094669-.14267-.14265-.30402-.147984-.48269z" fill="#3D3C3E"/></svg>