<svg width="9" height="9" viewBox="0 0 9 9" fill="none" xmlns="http://www.w3.org/2000/svg"><path d="M5.66007 8.02402L.026733 8.01334l.542644-1.96133L4.47205 6.072c.34-.03867.50931-.2053.50931-.4933 0-.17466-.02267-.29205-.06934-.35338-.04533-.06-.14932-.11868-.31465-.17734H2.60538c-.43333 0-.74932-.10663-.95065-.32396-.19867-.216-.2987-.56933-.2987-1.05599v-.3627h4.5627c.55733.07067.93069.18137 1.12402.33203.03067.02134.21733.22268.55866.60534.13066.332.19733.7093.19733 1.1293 0 .76267-.28536 1.42669-.85736 1.99069-.276.28267-.70131.50266-1.28131.66133zM8.2214 2.61464H1.53207c.14534-.44.40799-.82927.79199-1.16927.42-.364.84665-.544009 1.28132-.544009h5.08001L8.2214 2.61464z" fill="#B9B8A9"/></svg>