<svg width="2" height="3" viewBox="0 0 2 3" fill="none" xmlns="http://www.w3.org/2000/svg"><path d="M.293319 1.09406H1.66663c-.04-.157338-.11998-.290671-.23998-.400004-.13333-.108-.27997-.162663-.439972-.162663-.173333 0-.320052.053327-.453385.159993-.133334.104-.213308.238669-.239974.402674zm1.600001.21735H.293319c0 .164.079948.30799.213281.43199.133333.11867.293385.17865.453385.17865.133335 0 .266585-.0333.386585-.10397l.25339-.28402h.25338c-.06666.17734-.17333.32534-.33333.44268-.17333.11733-.34667.17731-.533332.17731-.253333 0-.480052-.0893-.653385-.2693-.186667-.17867-.279948-.39869-.279948-.65736 0-.257335.093333-.477324.266666-.655991.186667-.18.4-.269336.666667-.269336.133332 0 .266592.029323.386592.089323s.22672.144018.32005.252018l.16002.314649c.02667.095997.03998.214687.03998.353357z" fill="#fff"/></svg>