<svg width="9" height="8" viewBox="0 0 9 8" fill="none" xmlns="http://www.w3.org/2000/svg"><path d="M6.98667 5.41544h1.03997c-.30666.67866-.76002 1.21333-1.36002 1.60267-.58667.39066-1.25334.58531-2 .58531-1.04 0-1.92-.34399-2.66667-1.02799C1.26662 5.88876.893311 5.02477.893311 3.98077c0-1.00134.373259-1.85068 1.119919-2.54935C2.74657.734086 3.62664.384772 4.62664.384772c.74667 0 1.44.201308 2.06667.606641.62667.403997 1.07995.950677 1.34661 1.641337H6.98667c-.24-.40666-.56-.73331-1-.97998-.42667-.24533-.88008-.36933-1.34674-.36933-.77334 0-1.43993.256-1.98659.76666-.54667.512-.8267 1.15066-.8267 1.91999 0 .768.26667 1.41468.8 1.94268.52.528 1.17328.79065 1.94662.79065.52 0 .97336-.10401 1.36002-.31334.38667-.20934.73339-.53331 1.05339-.97464z" fill="#fff"/></svg>