<svg width="3" height="3" viewBox="0 0 3 3" fill="none" xmlns="http://www.w3.org/2000/svg"><path d="M1.87987.947397c-.18667 0-.3599.069303-.49323.206643-.13334.13733-.2.30403-.2.4987 0 .18933.06661.35065.21328.48398.13333.13467.29328.20133.47995.20133.2 0 .36002-.06934.49336-.20667.12-.14.18671-.30667.18671-.5 0-.196-.06666-.35999-.2-.49199L2.13325.999383 1.87987.947397zm0-.230664c.24 0 .46677.089305.6401.270638.18667.181329.27995.394679.27995.644009 0 .25333-.09333.47466-.26667.65999-.18666.184-.40005.27868-.65338.27868-.25334 0-.46659-.09067-.65326-.26933-.18667-.17867-.280077-.39465-.280077-.64798 0-.25734.093407-.47737.280077-.661365.17333-.184.39992-.274642.65326-.274642z" fill="#fff"/></svg>