<svg width="3" height="3" viewBox="0 0 3 3" fill="none" xmlns="http://www.w3.org/2000/svg"><path d="M.670662 1.00211H1.75732c-.01467-.163998-.05599-.286666-.12399-.368-.10534-.128-.24135-.191992-.40935-.191992-.152 0-.278647.050653-.382647.151986C.738666.695437.681329.831445.670662 1.00211zm1.083988.53334l.34.04267c-.05333.19867-.15333.35333-.29866.464-.14534.10933-.33066.164-.55733.164-.283996 0-.510673-.08667-.67734-.26267-.166667-.17466-.250651-.42134-.250651-.73867 0-.326666.083987-.581328.25332-.762662.168-.181333.38799-.27067.655991-.27067.26133 0 .47334.087998.63867.265332.16533.177333.24801.426682.24801.74935l-.00266.08665H.651978c.012.21467.073347.37866.181347.49199.109333.11334.244005.17068.406675.17068.12133 0 .22531-.032.31064-.096.08534-.06267.15334-.164.20401-.304z" fill="#3D3C3E"/></svg>