<svg width="49" height="9" viewBox="0 0 49 9" fill="none" xmlns="http://www.w3.org/2000/svg"><path d="M43.5946 8.79341c-5.2533-3.648-11.7853-5.85332-18.1866-5.85332-1.4333 0-2.86.11064-4.264.33998-2.92.47866-5.784 1.42535-8.36 2.89069-.1614.092-.3306.19462-.4133.35996-.0613.12-.0707.26002-.0761.39336-.012.26533-.0106.53063-.0053.79596C8.37064 6.65337 4.32936 6.03339.270691 5.87473 4.65736 4.16406 9.10664 2.55207 13.7533 1.7134c3.0867-.55733 6.1987-.854689 9.316-.854689 2.0747 0 4.152.132005 6.2253.405339C36.1373 2.16938 42.58 4.7094 48.6547 7.9134c-1.6974.23466-3.3841.52534-5.0601.88001z" fill="#EACFA5"/></svg>