<svg width="9" height="9" viewBox="0 0 9 9" fill="none" xmlns="http://www.w3.org/2000/svg"><path d="M6.58134 1.74879c.14133.00933.23733.05733.29733.16666l-.01468.33067-.31732.31331-.37868-.03997-.06533-.37601c.10133-.12533.22401-.23735.34535-.34535l.13333-.04931zM5.56666 3.55012c-.94533.952-1.89334 1.89865-2.84268 2.84531-.144.14267-.32132.14001-.45599.00401-.13066-.13334-.13199-.31198.00534-.44932.948-.94933 1.89598-1.89734 2.84531-2.84401.10267-.10267.22536-.13067.36136-.07467.116.04933.19198.17067.20931.30934l-.12265.20934zM.825317 6.13678c.876003.87733 1.761343 1.76401 2.642673 2.64667C5.28933 6.95946 7.116 5.13144 8.93733 3.30611 8.06266 2.43144 7.17732 1.54477 6.29332.660767A10542.913553 10542.913553 0 00.825317 6.13678z" fill="#0B0146"/></svg>