<svg width="8" height="8" viewBox="0 0 8 8" fill="none" xmlns="http://www.w3.org/2000/svg"><path d="M.986678 3.47543H6.29332c-.12-.616-.42667-1.13466-.93333-1.55732-.49334-.42267-1.0667-.63467-1.69336-.63467-.65334 0-1.23995.20531-1.74662.61598s-.82667.93601-.933332 1.57601zm6.239972.84401H.986678c0 .64133.266612 1.20265.813282 1.68265.53333.468 1.13331.70133 1.77331.70133.53333 0 1.01341-.13467 1.48008-.40533.45333-.272.79999-.64135 1-1.10935h.9733c-.24.68934-.66664 1.26536-1.30664 1.72536-.62666.45867-1.32005.68932-2.05338.68932-1.01334 0-1.8667-.34934-2.56003-1.04668C.399933 5.85941.053345 5.00342.053345 3.99408c0-1.00666.34664-1.85866 1.039975-2.55999C1.78665.735422 2.64001.384772 3.65334.384772c.53334 0 1.03993.117318 1.51993.350651.48.234667.8933.562657 1.23997.985317.32.37734.53339.78535.65339 1.22002.10666.37733.16002.83735.16002 1.37868z" fill="#fff"/></svg>