<svg width="10" height="9" viewBox="0 0 10 9" fill="none" xmlns="http://www.w3.org/2000/svg"><path d="M7.94537 8.01335H5.63209l.82663-2.8373H4.01874l-.87597 2.8373H.737427L2.12408 3.30534h7.4c-.05333.42-.29469.81733-.72135 1.18933-.19467.172-.35733.27738-.48933.31738.15867.24933.23731.51065.23731.78665 0 .15734-.02264.38131-.07064.67064-.02667.17733-.20403.75868-.5347 1.74401zm1.70534-5.3987H1.64674L2.73873.901373h5.87734c.15867 0 .31868.054664.48002.163997.16133.108.28396.23863.36796.39063.124.228.18666.61465.18666 1.15865z" fill="#B9B8A9"/></svg>