<svg width="8" height="10" viewBox="0 0 8 10" fill="none" xmlns="http://www.w3.org/2000/svg"><path d="M3.89325 6.70342c.77334 0 1.4267-.256 1.96003-.76933.54667-.51334.81328-1.156.81328-1.928 0-.752-.26672-1.39332-.78672-1.92532-.53333-.53067-1.17325-.79733-1.91992-.79733-.77333 0-1.42669.25199-1.96003.75732-.54666.50533-.81328 1.13599-.81328 1.89066 0 .39066.05331.74399.17331 1.05999.10667.316.29328.604.54661.86667.26667.26.55998.46535.90665.61735.34666.15333.70674.22799 1.08007.22799zM.319946.538092h.879944V1.72074c.26667-.42267.66667-.757303 1.2-1.00397C2.89323.495437 3.41325.384771 3.95992.384771c.50667 0 1 .105317 1.46667.315983.46666.213333.92002.551986 1.36002 1.019986.21334.20133.41331.51735.57331.94535.16.42933.23997.88002.23997 1.35335 0 1.00533-.35997 1.85331-1.10664 2.54665-.73333.69066-1.61336 1.03733-2.62669 1.03733-.54667 0-1.05338-.12133-1.52005-.36266-.50667-.26-.86656-.62266-1.09323-1.09199v3.70931H.319946V.538092z" fill="#fff"/></svg>