<svg width="46" height="129" viewBox="0 0 46 129" fill="none" xmlns="http://www.w3.org/2000/svg"><path d="M34.5253 97.2675c-9.9627-1.2627-14.8133-8.4-16.32-17.7893-1.884-11.732-1.168-24.512.7547-36.212 1.3573-8.256 6.124-15.9654 14.9187-17.3467 3.632-.5693 7.4439-.5773 11.2479-.4V1.00481c-5-.073337-9.9639.11866-14.748.86934C14.8066 4.31414 6.3653 17.9461 3.96263 32.5435.5573 53.2301-.709371 75.8262 2.6253 96.5702 5.29463 113.173 13.8826 125.792 31.524 128.025c4.5.568 9.048.673 13.6026.47V97.3168c-3.5453.3294-7.0986.3947-10.6013-.0493z" fill="#EBEAD9"/></svg>