<svg width="3" height="3" viewBox="0 0 3 3" fill="none" xmlns="http://www.w3.org/2000/svg"><path d="M0 2.1621V.215455h.294661v.273307L.538672.258098C.640005.199431.755986.171444.885319.171444c.145331 0 .264021.029323.354691.089323L1.436.512785c.15467-.228.35467-.341341.60134-.341341.19333 0 .34134.053327.44534.159994.10534.106667.15599.271995.15599.494661V2.1621h-.32799V.935442c0-.132-.01067-.226653-.032-.285319L2.16266.511451 1.964.458098c-.13734 0-.25068.045336-.34134.136003-.08934.090666-.13601.237336-.13601.435999v1.132h-.32933V.898104c0-.148-.02664-.25733-.08131-.330664C1.02268.494107.93468.458098.813346.458098L.554655.530103.382682.746119C.348016.839452.330664.974124.330664 1.15146V2.1621H0z" fill="#3D3C3E"/></svg>