<svg width="4" height="4" viewBox="0 0 4 4" fill="none" xmlns="http://www.w3.org/2000/svg"><path d="M3.23992 1.33942h-.26666c-.09333-.132-.21336-.23468-.36003-.31201-.16-.074667-.31995-.113314-.47995-.113314-.26666 0-.50664.101334-.70664.300004-.2.2-.29336.43333-.29336.69866 0 .27867.10665.51598.30665.71598.2.2.43997.29867.70664.29867.16 0 .32-.03865.46666-.11732.14667-.07733.2667-.18402.36003-.31868h.26666c-.10666.2-.25325.36135-.45325.48268-.2.124-.41344.18532-.6401.18532-.34667 0-.6399-.11999-.89323-.35866-.24-.24133-.360029-.53732-.360029-.88799 0-.33867.120029-.628.360029-.868s.53328-.358659.87994-.358659c.12 0 .24003.015984.36003.049317l.31992.150683.24011.195999.18658.25732z" fill="#fff"/></svg>