<svg width="7" height="8" viewBox="0 0 7 8" fill="none" xmlns="http://www.w3.org/2000/svg"><path d="M6.73327.538093V7.43676h-.87995V6.36475c-.21333.42-.53341.73468-.94674.94802-.38667.19466-.84.29065-1.33334.29065-.46666 0-.87992-.09067-1.25325-.27067-.4-.19733-.78677-.52-1.17344-.968-.186667-.192-.320001-.49865-.400001-.91732-.066666-.328-.093229-.74932-.093229-1.26266V.538093h.93333V4.18477c0 .41867.02662.73198.07995.94265.04.20933.12003.40134.22669.57867.18667.32.42662.56668.74662.73868.32.17333.66672.25865 1.05338.25865.34667 0 .65329-.06934.94662-.21201.28-.14133.53341-.35333.74674-.632.14667-.21733.26667-.484.33334-.8.05333-.26666.07994-.55864.07994-.87464V.538093h.93334z" fill="#fff"/></svg>