<svg width="2" height="3" viewBox="0 0 2 3" fill="none" xmlns="http://www.w3.org/2000/svg"><path d="M1.50934 1.18613c-.12.048-.3.08932-.540004.12399-.134667.02-.231988.04133-.287988.06533l-.129362.10801-.046647.15599.1.21999c.066666.05866.163993.08935.293326.08935.126665 0 .240005-.02935.338675-.08402l.21865-.22799c.03467-.07467.05335-.18533.05335-.33066v-.11999zm.028.73597c-.12267.104-.24136.17735-.35336.22002-.11333.044-.234661.064-.365328.064-.213333 0-.377325-.05199-.491992-.15599-.116-.10534-.17334-.23867-.17334-.40134l.065332-.26136.170671-.18932.237337-.10801c.065333-.01733.16266-.03332.293327-.05065.266663-.03067.462693-.069347.589353-.113347l.00134-.085319c0-.134667-.0307-.229351-.09336-.284017-.084-.076-.21065-.111979-.37598-.111979-.154666 0-.269343.026648-.344009.081315C.623997.580769.568.67679.533333.814124L.210677.770113C.24001.63278.287988.522112.354655.435445c.068-.084.165358-.149328.292025-.194661.128-.048.274643-.069336.44264-.069336.16534 0 .30134.019992.40534.058658l.22933.14668.10267.225326c.01067.056.01602.157338.01602.305338v.44001c0 .30666.00665.49998.02132.58131l.08401.23334h-.34534l-.06533-.24001z" fill="#3D3C3E"/></svg>