<svg width="3" height="3" viewBox="0 0 3 3" fill="none" xmlns="http://www.w3.org/2000/svg"><path d="M.439925 1.09406H1.79995C1.77328.936722 1.69326.803389 1.57326.694056c-.13333-.108-.27998-.162663-.43998-.162663-.173329 0-.320048.053327-.453381.159993-.133333.104-.213307.238669-.239974.402674zm1.599995.21735H.439925c0 .164.080078.30799.213412.43199.133333.11867.293255.17865.453253.17865.13334 0 .26672-.0333.38672-.10397l.25326-.28402h.25338c-.06667.17734-.17328.32534-.34661.44268-.16.11733-.33339.17731-.52006.17731-.266662 0-.479996-.0893-.666662-.2693-.173333-.17867-.266667-.39869-.266667-.65736 0-.257335.093334-.477324.266667-.655991C.653284.391399.86667.302063 1.12.302063c.14667 0 .28.029323.4.089323s.22659.144018.31993.252018l.16002.314649c.02667.095997.03997.214687.03997.353357z" fill="#fff"/></svg>