<svg width="11" height="11" viewBox="0 0 11 11" fill="none" xmlns="http://www.w3.org/2000/svg"><path d="M9.51994 10.6754H6.70653c-.30667-.5253-.62662-1.04395-.94662-1.55729 1.12-.496 1.89336-1.60802 1.89336-2.89469 0-1.77867-1.42667-3.20797-3.2-3.20664-.90667 0-1.73344.384-2.30677.99866-.45333-.556-.90664-1.10133-1.373307-1.63867h.053386c.293331-.00133.493251-.14266.586591-.42532.12-.36.24002-.71734.36002-1.076011.08-.274667.27998-.413347.57331-.413347C3.05317.460759 3.75989.460757 4.46655.460757c.70667 0 1.39998.000002 2.10664.001335.29334 0 .49339.137345.58672.412012.12.358666.22662.716006.34662 1.074676.10666.28933.29333.42666.6.42799H9.5465c.7467.00267 1.2934.56001 1.2934 1.30267v5.67731c0 .76665-.5466 1.31735-1.31996 1.31865zM9.1465 3.42209c-.2 0-.39992.00133-.58659.004-.21333.00267-.36002.16402-.36002.35869.01333.18933.15997.332.3733.33333.18667.00134.38664.00134.57331.00134h.32005c.09334 0 .17334 0 .26667-.00134.2-.00133.34668-.14667.35998-.34134 0-.19333-.14665-.34801-.35998-.35068-.18667-.00267-.38672-.004-.58672-.004z" fill="#F5E8D4"/></svg>