<svg width="33" height="3" viewBox="0 0 33 3" fill="none" xmlns="http://www.w3.org/2000/svg"><path d="M32.564 2.84009H2.63864c-.01466-.012-.02934-.02404-.04401-.03737-.004-.00267-.00798-.00665-.01198-.00931-.01066-.00934-.02266-.01866-.03333-.028-.004-.00266-.00798-.00667-.01198-.01067-.01467-.01067-.02934-.0227-.04401-.0347a1.34424 1.34424 0 00-.00534-.00534c-.01333-.00934-.02534-.02-.03867-.03067-.004-.004-.00931-.00798-.01465-.01198-.01066-.008-.02-.01602-.03066-.02402-.00534-.004-.00938-.00798-.01472-.01198-.01333-.01067-.02664-.02-.03997-.03066-.00533-.004-.01198-.00935-.01732-.01335-.00933-.008-.01869-.01466-.02936-.02266-.00667-.00533-.01332-.01068-.01999-.01601-.008-.00533-.01602-.01065-.02402-.01732-.00667-.00533-.01466-.01068-.02266-.01601-.00666-.00534-.01332-.01062-.01998-.01595-.01467-.01067-.03068-.02267-.04668-.03334-.004-.004-.00932-.00804-.01465-.01204-.00933-.00667-.0187-.01332-.02936-.01999-.004-.004-.00798-.00664-.01198-.00931-.03467-.02533-.07067-.05067-.10534-.07467-.00133-.00134-.00264-.00134-.00397-.00267-.012-.008-.02404-.01733-.03737-.02533l-.0013-.00137c-.596-.408-1.249382-.73864-1.945382-.97597L1.10668.033382 2.81996 1.32674v.38932L32.564 2.84009z" fill="#EACFA5"/></svg>