<svg width="3" height="3" viewBox="0 0 3 3" fill="none" xmlns="http://www.w3.org/2000/svg"><path d="M.999984 1.09406H2.36001C2.33334.936722 2.25337.803389 2.12004.694056c-.12-.108-.2667-.162663-.4267-.162663-.17333 0-.32005.053327-.45338.159993-.13334.104-.21331.238669-.239976.402674zm1.599996.21735H.999984c0 .164.066616.30799.213276.43199.13334.11867.29339.17865.45339.17865.13333 0 .26664-.0333.37331-.10397l.26666-.28402h.25339c-.06667.17734-.17341.32534-.34675.44268-.16.11733-.33325.17731-.51992.17731-.26666 0-.48-.0893-.66666-.2693-.173337-.17867-.26667-.39869-.26667-.65736 0-.257335.093333-.477324.26667-.655991.18666-.18.39992-.269336.65325-.269336.14667 0 .28.029323.4.089323s.22672.144018.32005.252018l.16003.314649c.02667.095997.03997.214687.03997.353357z" fill="#fff"/></svg>