<svg width="3" height="3" viewBox="0 0 3 3" fill="none" xmlns="http://www.w3.org/2000/svg"><path d="M.73195 1.00211h1.08799c-.01467-.163998-.05599-.286666-.12399-.368-.10534-.128-.24135-.191992-.40935-.191992-.152 0-.27864.050653-.382645.151986C.801288.695437.74395.831445.73195 1.00211zm1.08402.53334l.34131.04267c-.05334.19867-.15334.35333-.29867.464-.14533.10933-.33066.164-.55732.164-.28534 0-.510683-.08667-.678683-.26267-.166666-.17466-.249316-.42134-.249316-.73867 0-.326666.083987-.581328.25332-.762662.168-.181333.386689-.27067.656019-.27067.26 0 .47331.087998.63864.265332.16534.177333.24802.426682.24802.74935l-.00267.08665H.714632c.012.21467.073315.37866.181315.49199.109333.11334.244003.17068.406673.17068.12133 0 .22534-.032.31068-.096.08533-.06267.15333-.164.20267-.304z" fill="#3D3C3E"/></svg>