<svg width="6" height="4" viewBox="0 0 6 4" fill="none" xmlns="http://www.w3.org/2000/svg"><path d="M5.00662 2.74339c-.41067-.34267-.81198-.69466-1.23731-1.06-.204.168-.38798.31998-.58398.48132-.196-.156-.38135-.30534-.58535-.46934-.412.35067-.8147.69734-1.2267 1.036l-.2373.08269-.04134-.096c.444-.38.88799-.76003 1.35599-1.16269-.412-.35734-.80663-.695981-1.19597-1.042648L1.14399.298041 1.36.37405c.52933.448 1.05465.90399 1.58132 1.35466l.24401.18134C3.78799 1.39272 4.37996.882054 4.98129.378054l.2347-.069336-.12402.215983c-.37734.337334-.76268.667999-1.17468 1.029329.24934.216.48138.41735.71472.61869.16933.14533.3453.284.50664.436l.08932.18799-.22135-.05332zM5.28396.055365C4.58796.0647 3.892.058035 3.196.058035v.002669c-.70533 0-1.40934.007995-2.11334-.005339C.837325.051365.746658.138056.749325.37939c.006666.785331.005333 1.570651 0 2.355991-.001334.22266.075979.31998.311975.31865 1.41067-.00667 2.8187-.00533 4.22937 0 .22666.00133.32265-.07998.31998-.31064-.00666-.78534-.00933-1.57069 0-2.356026.00267-.241333-.08269-.334665-.32669-.331999z" fill="#100F0D"/></svg>