<svg width="3" height="3" viewBox="0 0 3 3" fill="none" xmlns="http://www.w3.org/2000/svg"><path d="M1.81463 1.45013l.32399.0413c-.036.224-.12667.3987-.272.52536-.14667.12667-.32667.18933-.53867.18933-.26667 0-.481347-.08667-.64268-.26133-.162666-.17334-.242643-.42268-.242643-.74935 0-.209335.034671-.391987.104004-.551987C.615964.48612.722617.367433.865283.2901c.142667-.08.295997-.118652.463997-.118652.212 0 .38535.053326.51869.159993.13466.106667.22132.258656.25865.45599L1.7866.83678C1.75594.706113 1.70128.60745 1.62394.540784L1.34263.442118c-.16667 0-.30134.059981-.405342.179981-.104.118666-.155989.306665-.155989.565331 0 .26133.049318.45067.150651.56934.1.11866.23066.17868.39199.17868.12934 0 .23869-.03999.32536-.11999.08533-.07867.14133-.20133.16533-.36533z" fill="#3D3C3E"/></svg>