<svg width="6" height="6" viewBox="0 0 6 6" fill="none" xmlns="http://www.w3.org/2000/svg"><path d="M4.41865 3.56877c.028-.24133.05863-.48133.09063-.74533H5.26c.028.69334-.15735.85867-.84135.74533zm-.45735 1.148l-.06003-.06934c.12-.22666.20004-.49466.37604-.66399.11467-.11067.36933-.07466.55866-.10533l.05736.12666c-.31067.23734-.62137.47467-.93203.712zm-.68002.03734v-.83734h.73204c-.248.32933-.45336.60134-.66003.87467l-.07201-.03733zm-.01334-1.8l.15872-.14667c.17467-.02.35463.00533.5293-.01067.24-.024.26137.09333.2347.28533-.072.516-.06799.51733-.59199.516H3.26c0-.24-.01073-.44399.00794-.64399zm.00534-1.23601c.24133 0 .46134-.00799.68001.00668l.15736.12666c.048.20266.07197.41066.10664.62933-.264.01733-.48267.03201-.70267.04668-.188.01333-.28665-.06668-.27598-.26135.00933-.17466.0213-.34933.03464-.548zM3.27731.518105c.32667.248.51998.527995.67598.881335h-.67598V.518105zm1.592.849335c-.46134.11733-.53065.08266-.74265-.31867-.07333-.136001-.16668-.261331-.28535-.446664.46267.167999.772.419994 1.028.765334zM5.26 2.4981c-.208 0-.41736.01068-.62403-.00666L4.496 2.34877c-.03734-.19733-.05201-.39867-.07468-.59733.656-.132.86668.05066.83868.74666zm-2.30137-.02132l-.20801.02266c-.228.00133-.45599 0-.72799 0 .03333-.24267.008-.488.108-.66133.15067-.26.45736-.09466.69336-.128.16934-.02266.16667.12399.164.23999-.00533.16667-.01736.33201-.02936.52668zm.01068.97866l-.17331.14933c-.676.06134-.73872-.00666-.74805-.80266h.78001l.0267.00133c.256.17467.05331.43734.11465.652zM2.95466 4.7501l-.07338.04134c-.21466-.27333-.42797-.54667-.64264-.82133l.05866-.06534h.65736v.84533zM1.332 3.90477c.2 0 .34933-.00399.49733.00267l.14128.04667c.13466.232.26001.46799.40801.74132-.47867-.112-.76262-.40932-1.04662-.79066zM.958629 2.79411c.206671 0 .415991-.01067.625321.00666l.14401.14666c.04267.19734.05999.40134.08933.62001-.72667.13066-.918661-.03999-.858661-.77333zm.857361-1.04668c-.02534.216-.04402.41867-.08002.61734l-.12936.12667c-.20933.01467-.41996.00666-.629296.00666-.128-.59867.148006-.856.838676-.75067zm.536-1.081327l-.20267.333333c-.216.449334-.25199.470664-.78399.385334.20934-.405332.57599-.589334.98666-.718667zm.59863-.095996v.837333h-.64134l-.06263-.06134c.208-.272.41729-.545319.62663-.818653l.07734.04266zm.15469-.4C1.74264.170107.651983 1.2661.64665 2.6461c-.008 1.34533 1.09866 2.48001 2.43066 2.49067 1.40267.012 2.51065-1.07866 2.51732-2.47999.008-1.36934-1.11199-2.488006-2.48932-2.486673z" fill="#100F0D"/></svg>