<svg width="43" height="8" viewBox="0 0 43 8" fill="none" xmlns="http://www.w3.org/2000/svg"><path d="M1.14398 7.9894c-.354667-1.12 1.21598-2.28667.67865-3.33067-.33334-.64667-1.861301-1.34665-.5293-2.04798.38267-.20133.83467-.19864 1.26667-.20397 4.72533-.056 9.3573-1.534702 14.08-1.534702.08 0 .1613.001367.2427.001367 5.88.064 11.452 2.471945 17.208 3.674605 2.6666.55734 5.3706.85469 8.0893 1.02136-2.1813.41867-4.3907.59603-6.6134.59603-2.992 0-6.0053-.32004-8.9986-.80137-4.2187-.67733-8.4627-1.76665-12.74-1.91732-.236-.008-.472-.01198-.7093-.01198-2.588 0-5.17606.48529-7.65206 1.21595-1.82934.54-3.84933 1.49068-4.32266 3.33868z" fill="#EACFA5"/></svg>