<svg width="2" height="3" viewBox="0 0 2 3" fill="none" xmlns="http://www.w3.org/2000/svg"><path d="M.38527 1.00211h1.08802c-.01467-.163998-.05599-.286666-.12532-.368-.104-.128-.24135-.191992-.408012-.191992-.152 0-.280016.050653-.382683.151986C.454609.695437.39727.831445.38527 1.00211zm1.08402.53334l.34134.04267c-.05333.19867-.15333.35333-.29867.464-.14533.10933-.33202.164-.557354.164-.285333 0-.510646-.08667-.678646-.26267-.166666-.17466-.249349-.42134-.249349-.73867 0-.326666.08402-.581328.253353-.762662.168-.181333.386656-.27067.65599-.27067.259996 0 .473336.087998.637336.265332.16533.177333.24798.426682.24798.74935l-.00133.08665H.367952c.012.21467.072015.37866.181348.49199.108.11334.243974.17068.406641.17068.121329 0 .224009-.032.309339-.096.08534-.06267.15467-.164.20401-.304z" fill="#3D3C3E"/></svg>