<svg width="3" height="3" viewBox="0 0 3 3" fill="none" xmlns="http://www.w3.org/2000/svg"><path d="M2.05465 1.45013l.32536.0413c-.036.224-.12667.3987-.27201.52536-.14666.12667-.32533.18933-.53867.18933-.26666 0-.48001-.08667-.642674-.26133-.162667-.17334-.243978-.42268-.243978-.74935 0-.209335.035973-.391987.105306-.551987C.857318.48612.964002.367433 1.10667.2901c.14133-.08.296-.118652.464-.118652.212 0 .38398.053326.51998.159993.13467.106667.22003.258656.25736.45599L2.02799.83678C1.99732.706113 1.94266.60745 1.86533.540784L1.58398.442118c-.16667 0-.30131.059981-.40531.179981-.104.118666-.15602.306665-.15602.565331 0 .26133.04935.45067.15069.56934.1.11866.23065.17868.39199.17868.12933 0 .23866-.03999.32532-.11999.08667-.07867.14133-.20133.164-.36533z" fill="#3D3C3E"/></svg>