<svg width="3" height="3" viewBox="0 0 3 3" fill="none" xmlns="http://www.w3.org/2000/svg"><path d="M.974648 1.00211H2.0613c-.01467-.163998-.05599-.286666-.12399-.368-.10533-.128-.24134-.191992-.40934-.191992-.152 0-.27865.050653-.38265.151986-.10267.101333-.160005.237341-.170672.408006zm1.083982.53334l.34001.04267c-.05333.19867-.15333.35333-.29867.464-.14533.10933-.33065.164-.55732.164-.284 0-.51068-.08667-.677344-.26267-.166667-.17466-.250651-.42134-.250651-.73867 0-.326666.083987-.581328.25332-.762662.167995-.181333.387985-.27067.655985-.27067.26134 0 .47334.087998.63868.265332.16533.177333.24801.426682.24801.74935l-.00267.08665H.954628c.013334.21467.074682.37866.182682.49199.10933.11334.24401.17068.40667.17068.12134 0 .22532-.032.31065-.096.08533-.06267.15334-.164.204-.304z" fill="#3D3C3E"/></svg>