<svg width="21" height="12" viewBox="0 0 21 12" fill="none" xmlns="http://www.w3.org/2000/svg"><path d="M18.5999 8.44873c0 .464-.08.54805-.56.54805-4.92.00133-9.83997.0013-14.7733.0013-.48-.00133-.56002-.08267-.56002-.56667v-6.4013c0-.45733.08002-.54401.56002-.54401h14.7733c.48 0 .56.07333.56.56133v6.4013zm-8 2.60267c-.2266.004-.4133-.1787-.4-.4133 0-.2494.1468-.3867.3868-.3907.2266-.004.3866.1294.4.3774.0133.2373-.1601.4226-.3868.4266zM19.5465.243393c-5.96-.001333-11.9199-.001333-17.8799 0-.62667 0-.786717.162684-.786717.785347V11.0581c0 .6333.146767.792.773437.792H19.5732c.6267 0 .7868-.1574.7868-.7827V1.07139c0-.676002-.1468-.827997-.8135-.827997z" fill="#0B0146"/></svg>