<svg width="4" height="6" viewBox="0 0 4 6" fill="none" xmlns="http://www.w3.org/2000/svg"><path d="M2.18662 2.79813l-.00397-.00133-.00404.00133c-.57466.00534-1.04398-.45732-1.05332-1.03732C1.11596 1.18748 1.5853.714142 2.1693.706142l.00534.001335.00397-.001335c.56134-.006666 1.03868.461328 1.04668 1.025328.008.58666-.45067 1.05866-1.03867 1.06666zM3.75466 1.4288C3.60266.751465 3.088.264807 2.39867.17014 1.84133.092806 1.36399.270139.985319.686139.611986 1.09681.507973 1.58615.605306 2.12615c.069334.384.205297.74798.362631 1.10532.257333.58266.573353 1.136.916013 1.67334.09467.148.19336.29333.29336.44666l.01869-.02666c.40533-.59733.77462-1.216 1.08528-1.868.192-.39867.35866-.80801.45332-1.24134.05734-.26.07739-.52267.02006-.78667z" fill="#100F0D"/></svg>