<svg width="3" height="3" viewBox="0 0 3 3" fill="none" xmlns="http://www.w3.org/2000/svg"><path d="M.740006 1.00211H1.82799C1.81333.838112 1.772.715444 1.704.63411c-.10666-.128-.24267-.191992-.40934-.191992-.152 0-.27998.050653-.382648.151986-.104.101333-.160005.237341-.172006.408006zm1.083984.53334l.34134.04267c-.05333.19867-.15333.35333-.29866.464-.14534.10933-.33199.164-.55733.164-.28533 0-.510676-.08667-.678676-.26267-.166667-.17466-.249316-.42134-.249316-.73867 0-.326666.083987-.581328.25332-.762662.168-.181333.386652-.27067.655992-.27067.26 0 .472.087998.63733.265332.16534.177333.24935.426682.24935.74935l-.00267.08665H.721322c.013333.21467.073347.37866.181347.49199.109331.11334.245341.17068.408011.17068.12133 0 .22397-.032.31064-.096.084-.06267.152-.164.20267-.304z" fill="#3D3C3E"/></svg>