<svg width="3" height="3" viewBox="0 0 3 3" fill="none" xmlns="http://www.w3.org/2000/svg"><path d="M1.54647.536752c-.2 0-.35998.069339-.50664.205339-.133336.136-.200003.301329-.200003.497329 0 .19067.066745.35199.213413.48799.13333.13333.30656.2.49323.2.18666 0 .34674-.068.48008-.20267.14666-.13733.21328-.29731.21328-.48131 0-.196-.06667-.36267-.2-.49867-.13334-.138666-.29336-.208008-.49336-.208008zm.92005-.190657V2.11677h-.22669v-.33334c-.06667.11867-.16003.21198-.29336.28132-.12.06266-.25334.09466-.4.09466-.13334 0-.26667-.02933-.4-.09066-.146669-.06267-.266643-.15732-.373309-.28532l-.119922-.20667-.053385-.35602L.66652.884767.786572.683432c.12-.137333.253258-.234695.386588-.296029.12-.053333.23997-.081315.37331-.081315l.2.022657.2.072005c.13333.066667.22669.160015.29336.282682V.346095h.22669z" fill="#fff"/></svg>