<svg width="2" height="4" viewBox="0 0 2 4" fill="none" xmlns="http://www.w3.org/2000/svg"><path d="M.400033 2.89546h.360026c.133333 0 .226614-.00665.279951-.01732l.16002-.05469.17331-.16133.06667-.22399-.01328-.14267-.06667-.12399-.21341-.16267-.213284-.04134-.133334-.00534-.146614-.00267H.400033v.93601zm0-1.15199h.320052l.226562-.01334.173433-.05866.13334-.14001.06666-.19333-.06666-.18665-.13334-.14001L.906673.944807.67998.936799H.400033v.806671zm-.226693 1.368V.719481h.560026l.279944.019987.25339.098665.21328.222657.06667.29333-.06667.27067-.18659.208c.12.05067.21328.12934.27995.23467.08.10534.10664.22934.10664.36667l-.07995.31335-.21328.23333-.32005.11465-.133334.01067-.2.00534H.17334z" fill="#fff"/></svg>