<svg width="3" height="3" viewBox="0 0 3 3" fill="none" xmlns="http://www.w3.org/2000/svg"><path d="M.759993 1.09942H2.12002c-.02667-.157338-.10677-.290672-.2401-.400005-.13334-.108-.27998-.162663-.43998-.162663-.16 0-.31997.053326-.439973.158659C.866634.800745.78666.935415.759993 1.09942zm1.599997.21735H.759993c0 .164.066615.30799.213282.43066.133335.12.280055.17998.453385.17998.13333 0 .25331-.03334.37331-.104l.25338-.28399h.25326c-.06667.17733-.17334.32401-.33334.44268-.16.11733-.33333.17731-.53333.17731-.25333 0-.479921-.08934-.653254-.26934C.613353 1.71141.52002 1.49142.52002 1.23275c0-.258668.08-.477324.266666-.655991.173333-.18.399924-.270671.653254-.270671.13333 0 .26672.030658.38672.090658.13333.06.23992.144018.31992.252018l.17344.314649c.02667.095997.03997.214687.03997.353357z" fill="#fff"/></svg>