<svg width="24" height="5" viewBox="0 0 24 5" fill="none" xmlns="http://www.w3.org/2000/svg"><path d="M1.65234 2.73242c-.32161-.09245-.55599-.20573-.703121-.33984-.145834-.13542-.21875-.30209-.21875-.5 0-.22396.089192-.40886.267578-.55469.179683-.14713.412763-.2207.699223-.2207.19531 0 .36914.03776.52148.11328.15365.07552.27214.17969.35547.3125.08463.13281.12695.27799.12695.43555h-.37695c0-.17188-.05469-.30664-.16406-.4043-.10938-.09896-.26368-.14844-.46289-.14844-.1849 0-.32943.04102-.4336.12305-.10286.08073-.15429.19336-.15429.33789 0 .11588.04882.21419.14648.29492.09896.07943.26628.15234.50195.21875.23698.06641.42188.13997.55469.2207.13411.07943.23307.17253.29688.2793.0651.10677.09765.23242.09765.37695 0 .23047-.08984.41537-.26953.55469-.17969.13802-.41992.20703-.7207.20703-.19532 0-.37761-.03711-.54688-.11133-.16927-.07552-.300128-.17838-.392576-.30859-.091146-.13021-.136719-.27799-.136719-.44336h.376955c0 .17188.06315.30794.18945.4082.12761.09896.29753.14844.50977.14844.19791 0 .34961-.04036.45508-.12109.10546-.08073.1582-.19076.1582-.33008 0-.13932-.04883-.24674-.14649-.32227-.09765-.07682-.27474-.15234-.53125-.22656zm2.35743 1.30664c-.28646 0-.51954-.09375-.69922-.28125-.17969-.1888-.26953-.44075-.26953-.75586v-.0664c0-.20964.03971-.39649.11914-.56055.08073-.16536.1927-.29427.33593-.38672.14453-.09375.30079-.14062.46875-.14062.27474 0 .48828.09049.64063.27148.15234.18099.22851.4401.22851.77734v.1504H3.40234c.00521.20833.06576.37695.18164.50585.11719.12761.26563.19141.44532.19141.1276 0 .23567-.02604.32422-.07812.08854-.05209.16601-.1211.23242-.20704l.2207.17188c-.17708.27213-.44271.4082-.79687.4082zm-.04493-1.89453c-.14583 0-.26823.05339-.36718.16016-.09896.10547-.16016.2539-.1836.44531h1.0586v-.02734c-.01042-.1836-.0599-.32552-.14844-.42578-.08854-.10157-.20833-.15235-.35938-.15235zm2.31055.06641c-.05469-.00912-.11393-.01367-.17773-.01367-.23698 0-.39779.10091-.48243.30273V4h-.36132V1.88672h.35156l.00586.24414c.11849-.1888.28646-.2832.5039-.2832.07032 0 .1237.00911.16016.02734v.33594zM7.3418 3.50977l.52343-1.62305h.36915L7.47656 4h-.27539l-.76562-2.11328h.36914l.53711 1.62305zm2.08984.52929c-.28646 0-.51953-.09375-.69922-.28125-.17969-.1888-.26953-.44075-.26953-.75586v-.0664c0-.20964.03971-.39649.11914-.56055.08073-.16536.19271-.29427.33594-.38672.14453-.09375.30078-.14062.46875-.14062.27474 0 .48828.09049.64058.27148.1524.18099.2286.4401.2286.77734v.1504H8.82422c.00521.20833.06575.37695.18164.50585.11719.12761.26562.19141.44531.19141.12761 0 .23568-.02604.32422-.07812.08854-.05209.16602-.1211.23241-.20704l.2207.17188c-.1771.27213-.44269.4082-.79686.4082zm-.04492-1.89453c-.14583 0-.26823.05339-.36719.16016-.09896.10547-.16015.2539-.18359.44531h1.05859v-.02734c-.01042-.1836-.05989-.32552-.14844-.42578-.08854-.10157-.20833-.15235-.35937-.15235zm2.31058.06641c-.0547-.00912-.114-.01367-.1778-.01367-.2369 0-.3978.10091-.4824.30273V4h-.3613V1.88672h.3515l.0059.24414c.1185-.1888.2865-.2832.5039-.2832.0703 0 .1237.00911.1602.02734v.33594zm2.4257.63867h-.6679V4h-.377V1.15625h.9414c.3203 0 .5664.07292.7383.21875.1732.14583.2598.35807.2598.63672 0 .17708-.0482.33138-.1446.46289-.095.13151-.2278.22982-.3984.29492l.668 1.20703V4h-.4024l-.6172-1.15039zm-.6679-.30664h.5761c.1862 0 .334-.04818.4434-.14453.1107-.09636.166-.22526.166-.38672 0-.17578-.0527-.31055-.1582-.4043-.1041-.09375-.2552-.14127-.4531-.14258h-.5742v1.07813zm2.9101 1.49609c-.2864 0-.5195-.09375-.6992-.28125-.1797-.1888-.2695-.44075-.2695-.75586v-.0664c0-.20964.0397-.39649.1191-.56055.0808-.16536.1927-.29427.336-.38672.1445-.09375.3007-.14062.4687-.14062.2748 0 .4883.09049.6406.27148.1524.18099.2286.4401.2286.77734v.1504h-1.4317c.0052.20833.0658.37695.1817.50585.1171.12761.2656.19141.4453.19141.1276 0 .2356-.02604.3242-.07812.0885-.05209.166-.1211.2324-.20704l.2207.17188c-.1771.27213-.4427.4082-.7969.4082zm-.0449-1.89453c-.1458 0-.2682.05339-.3672.16016-.0989.10547-.1601.2539-.1836.44531h1.0586v-.02734c-.0104-.1836-.0599-.32552-.1484-.42578-.0886-.10157-.2083-.15235-.3594-.15235zm1.6309-.25781l.0117.26562c.1614-.20312.3724-.30468.6328-.30468.4466 0 .6719.25195.6758.75586V4h-.3613V2.60156c-.0013-.15234-.0365-.26497-.1055-.33789-.0677-.07291-.1738-.10937-.3184-.10937-.1172 0-.22.03125-.3086.09375-.0885.0625-.1575.14453-.207.24609V4h-.3613V1.88672h.3418zm2.3554-.51172v.51172h.3946v.2793h-.3946v1.31054c0 .08464.0176.14844.0528.19141.0351.04167.095.0625.1797.0625.0416 0 .0989-.00781.1718-.02344V4c-.095.02604-.1875.03906-.2773.03906-.1615 0-.2832-.04883-.3652-.14648-.0821-.09766-.1231-.23633-.1231-.41602V2.16602h-.3848v-.2793h.3848V1.375h.3613zM22.4297 4c-.0208-.04167-.0378-.11589-.0508-.22266-.168.17448-.3685.26172-.6016.26172-.2083 0-.3795-.05859-.5136-.17578-.1328-.11849-.1992-.26823-.1992-.44922 0-.22005.0833-.39062.25-.51172.1679-.12239.4036-.18359.707-.18359h.3515v-.16602c0-.1263-.0377-.22656-.1132-.30078-.0756-.07552-.1869-.11328-.334-.11328-.1289 0-.237.03255-.3242.09766-.0873.0651-.1309.14388-.1309.23633h-.3633c0-.10547.0371-.20704.1114-.30469.0755-.09896.177-.17708.3046-.23438.1289-.05729.2702-.08593.4239-.08593.2435 0 .4342.06119.5722.18359.1381.12109.2097.28841.2149.50195v.97266c0 .19401.0247.34831.0742.46289V4h-.3789zm-.5996-.27539c.1133 0 .2207-.0293.3222-.08789.1016-.0586.1752-.13477.2207-.22852v-.43359h-.2832c-.4427 0-.664.12956-.664.38867 0 .11328.0377.20182.1133.26563.0755.0638.1725.0957.291.0957zM23.6934 4h-.3614V1h.3614v3z" fill="#000"/></svg>