<svg width="36" height="5" viewBox="0 0 36 5" fill="none" xmlns="http://www.w3.org/2000/svg"><path d="M2.98828 3.50195l.40625-1.61523h.36133L3.14062 4h-.29296l-.51368-1.60156L1.83398 4h-.29296L.927734 1.88672h.359376l.41601 1.58203.49219-1.58203h.29102l.50195 1.61523zm3.00781 0l.40625-1.61523h.36133L6.14844 4h-.29297L5.3418 2.39844 4.8418 4h-.29297l-.61328-2.11328h.35937l.41602 1.58203.49218-1.58203h.29102l.50195 1.61523zm3.00782 0l.40625-1.61523h.36132L9.15625 4h-.29297l-.51367-1.60156L7.84961 4h-.29297l-.61328-2.11328h.35937l.41602 1.58203.49219-1.58203h.29101l.50196 1.61523zm.90234.3086c0-.0625.01823-.11459.05469-.15625.03776-.04167.09376-.0625.16796-.0625s.1302.02083.168.0625c.039.04166.0586.09375.0586.15625 0 .05989-.0196.11002-.0586.15039-.0378.04036-.0938.06054-.168.06054-.0742 0-.1302-.02018-.16796-.06054-.03646-.04037-.05469-.0905-.05469-.15039zm2.83595-.84375c0 .32291-.0742.58268-.2227.77929-.1484.19532-.3476.29297-.5976.29297-.267 0-.4733-.0944-.6192-.2832L11.2852 4h-.3321V1h.3614v1.11914c.1458-.18099.347-.27148.6035-.27148.2565 0 .4577.097.6035.29101.1471.19401.2207.45964.2207.79688v.03125zm-.3613-.04102c0-.24609-.0476-.4362-.1426-.57031-.0951-.13412-.2318-.20117-.4102-.20117-.2383 0-.4095.11067-.5136.33203v.91406c.1106.22135.2832.33203.5175.33203.1732 0 .308-.06706.4043-.20117.0964-.13411.1446-.33594.1446-.60547zm2.123.86524c-.1406.16536-.347.24804-.6191.24804-.2253 0-.3972-.0651-.5157-.19531-.1171-.13151-.1764-.32552-.1777-.58203v-1.375h.3613v1.36523c0 .32032.1302.48047.3907.48047.276 0 .4596-.10286.5507-.30859V1.88672h.3614V4h-.3438l-.0078-.20898zM15.7988 4h-.3613V1.88672h.3613V4zm-.3906-2.67383c0-.05859.0176-.10807.0527-.14844.0365-.04036.0899-.06054.1602-.06054.0703 0 .1237.02018.1601.06054.0365.04037.0547.08985.0547.14844 0 .0586-.0182.10742-.0547.14649-.0364.03906-.0898.05859-.1601.05859-.0703 0-.1237-.01953-.1602-.05859-.0351-.03907-.0527-.08789-.0527-.14649zM16.7715 4h-.3613V1h.3613v3zm.4922-1.07422c0-.32422.0768-.58463.2304-.78125.1537-.19792.3549-.29687.6036-.29687.2474 0 .4433.08463.5878.2539V1h.3614v3h-.3321l-.0175-.22656c-.1446.17708-.3457.26562-.6035.26562-.2448 0-.4447-.10026-.5997-.30078-.1536-.20052-.2304-.46224-.2304-.78516v-.02734zm.3613.04102c0 .23958.0495.42708.1484.5625.099.13541.2357.20312.4102.20312.2292 0 .3965-.10286.5019-.30859v-.97071c-.108-.19921-.274-.29882-.498-.29882-.1771 0-.3151.06836-.4141.20508-.0989.13671-.1484.33919-.1484.60742zm2.4746-1.5918v.51172h.3945v.2793h-.3945v1.31054c0 .08464.0176.14844.0527.19141.0352.04167.0951.0625.1797.0625.0417 0 .099-.00781.1719-.02344V4c-.095.02604-.1875.03906-.2773.03906-.1615 0-.2832-.04883-.3653-.14648-.082-.09766-.123-.23633-.123-.41602V2.16602h-.3848v-.2793h.3848V1.375h.3613zm1.6953 2.66406c-.2864 0-.5195-.09375-.6992-.28125-.1797-.1888-.2695-.44075-.2695-.75586v-.0664c0-.20964.0397-.39649.1191-.56055.0807-.16536.1927-.29427.3359-.38672.1446-.09375.3008-.14062.4688-.14062.2747 0 .4883.09049.6406.27148.1524.18099.2285.4401.2285.77734v.1504h-1.4316c.0052.20833.0658.37695.1816.50585.1172.12761.2657.19141.4454.19141.1276 0 .2356-.02604.3242-.07812.0885-.05209.166-.1211.2324-.20704l.2207.17188c-.1771.27213-.4427.4082-.7969.4082zM21.75 2.14453c-.1458 0-.2682.05339-.3672.16016-.0989.10547-.1601.2539-.1836.44531h1.0586v-.02734c-.0104-.1836-.0599-.32552-.1484-.42578-.0886-.10157-.2084-.15235-.3594-.15235zm2.1367 1.59961c.1289 0 .2416-.03906.3379-.11719.0964-.07812.1497-.17578.1602-.29297h.3418c-.0065.1211-.0482.23633-.125.34571-.0769.10937-.1797.19661-.3086.26172-.1276.0651-.2631.09765-.4063.09765-.2877 0-.5169-.0957-.6875-.28711-.1693-.19271-.2539-.45573-.2539-.78906v-.06055c0-.20573.0378-.38867.1133-.54882.0755-.16016.1836-.28451.3242-.37305.1419-.08854.3093-.13281.502-.13281.2369 0 .4336.07096.5898.21289.1576.14192.2415.32617.252.55273h-.3418c-.0105-.13672-.0625-.2487-.1563-.33594-.0924-.08854-.207-.13281-.3437-.13281-.1836 0-.3262.06641-.4278.19922-.1002.13151-.1504.32227-.1504.57227v.06836c0 .24348.0502.43098.1504.5625.1003.13151.2435.19726.4297.19726zm1.6074-1.60156c.1602-.19662.3685-.29492.625-.29492.4467 0 .6719.25195.6758.75586V4h-.3613V2.60156c-.0013-.15234-.0365-.26497-.1055-.33789-.0677-.07291-.1738-.10937-.3183-.10937-.1172 0-.2201.03125-.3086.09375-.0886.0625-.1576.14453-.2071.24609V4h-.3613V1h.3613v1.14258zm1.8497 1.66797c0-.0625.0182-.11459.0546-.15625.0378-.04167.0938-.0625.168-.0625.0742 0 .1302.02083.168.0625.039.04166.0586.09375.0586.15625 0 .05989-.0196.11002-.0586.15039-.0378.04036-.0938.06054-.168.06054-.0742 0-.1302-.02018-.168-.06054-.0364-.04037-.0546-.0905-.0546-.15039zm1.8945-.06641c.1289 0 .2415-.03906.3379-.11719.0963-.07812.1497-.17578.1601-.29297h.3418c-.0065.1211-.0482.23633-.125.34571-.0768.10937-.1797.19661-.3086.26172-.1276.0651-.263.09765-.4062.09765-.2878 0-.5169-.0957-.6875-.28711-.1693-.19271-.2539-.45573-.2539-.78906v-.06055c0-.20573.0377-.38867.1133-.54882.0755-.16016.1836-.28451.3242-.37305.1419-.08854.3092-.13281.5019-.13281.237 0 .4336.07096.5899.21289.1575.14192.2415.32617.2519.55273h-.3418c-.0104-.13672-.0625-.2487-.1562-.33594-.0925-.08854-.2071-.13281-.3438-.13281-.1836 0-.3261.06641-.4277.19922-.1003.13151-.1504.32227-.1504.57227v.06836c0 .24348.0501.43098.1504.5625.1003.13151.2435.19726.4297.19726zm1.1504-.82031c0-.20703.0403-.39323.1211-.5586.082-.16536.1953-.29296.3398-.38281.1458-.08984.3119-.13476.4981-.13476.2877 0 .5201.09961.6972.29882.1784.19922.2676.4642.2676.79493v.02539c0 .20573-.0397.39062-.1191.55468-.0782.16276-.1908.28972-.3379.38086-.1459.09115-.3138.13672-.5039.13672-.2865 0-.5189-.09961-.6973-.29883-.1771-.19921-.2656-.46289-.2656-.79101v-.02539zm.3633.04297c0 .23437.054.42252.1621.56445.1093.14193.2552.21289.4375.21289.1836 0 .3294-.07161.4375-.21484.108-.14453.1621-.34636.1621-.60547 0-.23177-.0554-.41927-.166-.5625-.1094-.14453-.2553-.2168-.4375-.2168-.1784 0-.3223.07096-.4317.21289s-.164.34505-.164.60938zm2.3535-1.08008l.0097.23437c.155-.18229.364-.27343.627-.27343.2956 0 .4967.11328.6035.33984.0703-.10156.1615-.18359.2734-.24609.1133-.0625.2468-.09375.4004-.09375.4636 0 .6993.24544.7071.73632V4h-.3614V2.60547c0-.15104-.0345-.26367-.1035-.33789-.069-.07552-.1849-.11328-.3476-.11328-.1342 0-.2455.04036-.334.12109-.0886.07943-.14.18685-.1543.32227V4h-.3633V2.61523c0-.30729-.1504-.46093-.4512-.46093-.237 0-.3991.10091-.4863.30273V4h-.3613V1.88672h.3418z" fill="#434343"/></svg>